<?xml version="1.0" standalone="no"?>
<!DOCTYPE svg PUBLIC "-//W3C//DTD SVG 1.1//EN" "http://www.w3.org/Graphics/SVG/1.1/DTD/svg11.dtd" >
<svg xmlns="http://www.w3.org/2000/svg" xmlns:xlink="http://www.w3.org/1999/xlink" version="1.1">
<metadata>
Created by FontForge 20141024 at Sat Nov  8 03:35:02 2014
 By Jimmy Warting
 Copyright (c) 1989, 2002 Fundicion Tipografica Neufville S. A.
 This record material and the data recorded thereon is the property of
 Fundicion Tipografica Neufville S. A. and Adobe Systems Incorporated,
 or its licensors, and may not be reproduced, used, displayed, modified,
 disclosed or transferred in any manner without the express written
 approval of Fundicion Tipografica Neufville S. A. and Adobe Systems
 Incorporated. 
</metadata>
<defs>
<font id="CandidaStd-Roman" horiz-adv-x="556" >
  <font-face 
    font-family="Candida Std"
    font-weight="400"
    font-stretch="normal"
    units-per-em="1000"
    panose-1="2 6 5 3 5 5 5 2 3 4"
    ascent="690"
    descent="-310"
    x-height="472"
    cap-height="682"
    bbox="-166 -234 1000 908"
    underline-thickness="50"
    underline-position="-50"
    stemh="24"
    stemv="84"
    unicode-range="U+0020-FB02"
  />
<missing-glyph horiz-adv-x="500" 
d="M0 0v700h500v-700h-500zM250 395l170 255h-340zM280 350l170 -255v510zM80 50h340l-170 255zM50 605v-510l170 255z" />
    <glyph glyph-name="f_i" unicode="fi" horiz-adv-x="611" 
d="M403 631c0 28 23 51 51 51s51 -23 51 -51s-23 -51 -51 -51s-51 23 -51 51zM19 0v42h78v388h-78v42h81v82c0 79 45 136 129 136c29 0 65 -6 92 -37l-34 -59h-12c-10 40 -24 60 -53 60c-30 0 -41 -28 -41 -74v-108h324v-430h87v-42h-258v42h87v388h-240v-388h87v-42h-249z
" />
    <glyph glyph-name="f_l" unicode="fl" horiz-adv-x="611" 
d="M334 0v42h87v602l-87 -4v42l171 8v-648h87v-42h-258zM19 0v42h78v388h-78v42h81v82c0 79 45 136 129 136c29 0 65 -6 92 -37l-34 -59h-12c-10 40 -24 60 -53 60c-30 0 -41 -28 -41 -74v-108h109v-42h-109v-388h87v-42h-249z" />
    <glyph glyph-name=".notdef" horiz-adv-x="500" 
d="M0 0v700h500v-700h-500zM250 395l170 255h-340zM280 350l170 -255v510zM80 50h340l-170 255zM50 605v-510l170 255z" />
    <glyph glyph-name="space" unicode=" " horiz-adv-x="278" 
 />
    <glyph glyph-name="exclam" unicode="!" horiz-adv-x="334" 
d="M119 51c0 35 14 63 48 63s48 -28 48 -63s-14 -63 -48 -63s-48 28 -48 63zM146 172l-30 510h102l-30 -510h-42z" />
    <glyph glyph-name="quotedbl" unicode="&#x22;" 
d="M314 438v244h78v-244h-78zM164 438v244h78v-244h-78z" />
    <glyph glyph-name="numbersign" unicode="#" 
d="M494 265v-54h-110l-30 -211h-60l30 211h-130l-30 -211h-60l30 211h-102v54h110l22 156h-102v54h110l29 199h60l-29 -199h130l29 199h60l-29 -199h102v-54h-110l-22 -156h102zM354 421h-130l-22 -156h130z" />
    <glyph glyph-name="dollar" unicode="$" 
d="M300 293v-265c76 3 150 43 150 124c0 83 -68 114 -150 141zM252 417v229c-70 0 -134 -27 -134 -108c0 -61 59 -96 134 -121zM37 0v180h60v-37c0 -58 77 -108 155 -115v282c-101 38 -218 69 -218 202c0 122 111 170 218 170v51h48v-51c56 -7 108 -18 146 -54v54h54v-180
h-54v6c0 85 -75 127 -146 138v-248c111 -38 234 -74 234 -214c0 -128 -111 -190 -234 -192v-67h-48v67c-59 3 -117 24 -155 50v-42h-60z" />
    <glyph glyph-name="percent" unicode="%" horiz-adv-x="1000" 
d="M104 517c0 95 76 165 160 165s160 -70 160 -165s-76 -165 -160 -165s-160 70 -160 165zM176 517c0 -80 30 -141 88 -141s88 61 88 141s-30 141 -88 141s-88 -61 -88 -141zM576 157c0 95 76 165 160 165s160 -70 160 -165s-76 -165 -160 -165s-160 70 -160 165zM648 157
c0 -80 30 -141 88 -141s88 61 88 141s-30 141 -88 141s-88 -61 -88 -141zM246 -28l451 730h48l-451 -730h-48z" />
    <glyph glyph-name="ampersand" unicode="&#x26;" horiz-adv-x="722" 
d="M264 469l34 -49c54 36 79 75 79 120c0 43 -24 86 -77 86c-37 0 -70 -26 -70 -69c0 -32 20 -68 34 -88zM680 42v-42h-168l-39 51c-42 -34 -99 -59 -187 -59c-124 0 -228 57 -228 175c0 106 73 168 168 215l-36 47c-30 40 -38 75 -38 106c0 66 55 133 148 133
c73 0 143 -48 143 -128c0 -70 -60 -129 -117 -156l179 -236c42 65 62 151 61 213h78c-6 -92 -51 -180 -112 -251l52 -68h96zM448 86l-195 258c-54 -35 -111 -79 -111 -147c0 -93 80 -157 172 -157c49 0 97 14 134 46z" />
    <glyph glyph-name="quoteright" unicode="&#x2019;" horiz-adv-x="278" 
d="M82 438l20 244h94l-72 -244h-42z" />
    <glyph glyph-name="parenleft" unicode="(" horiz-adv-x="334" 
d="M279 682v-42c-54 -32 -86 -98 -91 -182c-8 -81 -8 -165 -8 -227s0 -146 8 -227c5 -84 37 -150 91 -182v-42c-90 45 -126 105 -153 178c-28 84 -36 173 -36 273s8 189 36 273c27 73 63 133 153 178z" />
    <glyph glyph-name="parenright" unicode=")" horiz-adv-x="334" 
d="M55 -220v42c54 32 86 98 91 182c8 81 8 165 8 227s0 146 -8 227c-5 84 -37 150 -91 182v42c90 -45 126 -105 153 -178c28 -84 36 -173 36 -273s-8 -189 -36 -273c-27 -73 -63 -133 -153 -178z" />
    <glyph glyph-name="asterisk" unicode="*" 
d="M155 614l84 -15l34 83h12l32 -83l84 15l6 -12l-55 -71l55 -63l-6 -12l-84 12l-32 -80h-12l-34 80l-84 -12l-6 12l54 63l-54 71z" />
    <glyph glyph-name="plus" unicode="+" horiz-adv-x="600" 
d="M267 0v220h-220v66h220v220h66v-220h220v-66h-220v-220h-66z" />
    <glyph glyph-name="comma" unicode="," horiz-adv-x="278" 
d="M85 -138l12 252h96l-66 -252h-42z" />
    <glyph glyph-name="hyphen" unicode="-" horiz-adv-x="389" 
d="M68 195v84h253v-84h-253z" />
    <glyph glyph-name="period" unicode="." horiz-adv-x="278" 
d="M139 -12c-34 0 -48 28 -48 63s14 63 48 63s48 -28 48 -63s-14 -63 -48 -63z" />
    <glyph glyph-name="slash" unicode="/" horiz-adv-x="389" 
d="M81 -8h-72l299 698h72z" />
    <glyph glyph-name="zero" unicode="0" 
d="M509 337c0 -185 -73 -345 -231 -345s-231 160 -231 345s73 345 231 345s231 -160 231 -345zM413 337c0 81 -5 309 -135 309s-135 -228 -135 -309s5 -309 135 -309s135 228 135 309z" />
    <glyph glyph-name="one" unicode="1" 
d="M250 42v537l-115 -88l-31 34l178 157h52v-640h115v-42h-310v42h111z" />
    <glyph glyph-name="two" unicode="2" 
d="M44 0v18l159 163c145 149 178 240 178 313c0 81 -42 146 -123 146c-89 0 -127 -76 -127 -155h-84c13 131 90 197 220 197c112 0 210 -65 210 -185c0 -90 -65 -174 -169 -279l-138 -140h264v68h60v-146h-450z" />
    <glyph glyph-name="three" unicode="3" 
d="M217 334v42h30c84 5 133 57 133 146c0 50 -35 118 -128 118c-66 0 -99 -46 -99 -124h-90c0 86 63 166 194 166c109 0 213 -48 213 -162c0 -88 -48 -142 -133 -160v-2c94 -9 149 -89 149 -179c0 -134 -108 -187 -233 -187c-110 0 -209 47 -218 168h90
c8 -80 48 -132 133 -132c93 0 132 69 132 154c0 104 -61 150 -150 152h-23z" />
    <glyph glyph-name="four" unicode="4" 
d="M390 160v-118h85v-42h-256v42h87v118h-292v18l324 504h52v-462h85v-60h-85zM306 220v318h-2l-203 -318h205z" />
    <glyph glyph-name="five" unicode="5" 
d="M34 158h84c0 -71 42 -124 122 -124c111 0 156 115 156 195c0 86 -48 164 -160 164c-45 0 -89 -16 -126 -40l-19 10l94 311h291l-20 -66h-239l-57 -187c42 21 78 26 125 26c105 0 207 -74 207 -214c0 -133 -84 -241 -250 -241c-109 0 -205 50 -208 166z" />
    <glyph glyph-name="six" unicode="6" 
d="M149 214c0 -82 25 -186 132 -186c94 0 132 103 132 199c0 85 -32 166 -126 166c-101 0 -138 -95 -138 -179zM477 554h-78c-3 55 -42 92 -97 92c-134 0 -159 -155 -159 -258v-44h2c36 66 86 97 160 97c124 0 204 -98 204 -206c0 -153 -88 -243 -228 -243
c-193 0 -234 187 -234 340c0 162 69 350 263 350c78 0 167 -42 167 -128z" />
    <glyph glyph-name="seven" unicode="7" 
d="M50 529v145h436l-123 -322h98l-18 -42h-96l-124 -310h-96l139 310h-95l18 42h99l115 256h-293v-79h-60z" />
    <glyph glyph-name="eight" unicode="8" 
d="M157 513c0 -77 45 -129 121 -129s121 52 121 129c0 78 -46 131 -121 133c-85 0 -121 -55 -121 -133zM51 177c0 91 53 168 144 187v2c-84 18 -122 81 -122 151c0 85 65 165 205 165s205 -80 205 -165c0 -70 -55 -139 -122 -151v-2c90 -22 144 -95 144 -187
c0 -102 -90 -185 -227 -185c-144 0 -227 83 -227 185zM147 188c0 -92 39 -154 131 -154s131 62 131 154c0 69 -34 148 -131 148s-131 -79 -131 -148z" />
    <glyph glyph-name="nine" unicode="9" 
d="M407 460c0 82 -25 186 -132 186c-94 0 -132 -103 -132 -199c0 -85 32 -166 126 -166c101 0 138 95 138 179zM48 141h84c3 -76 36 -113 122 -113c134 0 159 155 159 258v44h-2c-36 -66 -86 -97 -160 -97c-124 0 -204 98 -204 206c0 153 88 243 228 243
c193 0 234 -187 234 -340c0 -162 -69 -350 -263 -350c-103 0 -198 51 -198 149z" />
    <glyph glyph-name="colon" unicode=":" horiz-adv-x="278" 
d="M91 51c0 35 14 63 48 63s48 -28 48 -63s-14 -63 -48 -63s-48 28 -48 63zM91 370c0 35 14 63 48 63s48 -28 48 -63s-14 -63 -48 -63s-48 28 -48 63z" />
    <glyph glyph-name="semicolon" unicode=";" horiz-adv-x="278" 
d="M85 -138l12 252h96l-66 -252h-42zM91 297c0 35 14 63 48 63s48 -28 48 -63s-14 -63 -48 -63s-48 28 -48 63z" />
    <glyph glyph-name="less" unicode="&#x3c;" horiz-adv-x="600" 
d="M553 60v-68l-506 230v62l506 230v-68l-423 -193z" />
    <glyph glyph-name="equal" unicode="=" horiz-adv-x="600" 
d="M47 320v66h506v-66h-506zM47 120v66h506v-66h-506z" />
    <glyph glyph-name="greater" unicode="&#x3e;" horiz-adv-x="600" 
d="M47 60l423 193l-423 193v68l506 -230v-62l-506 -230v68z" />
    <glyph glyph-name="question" unicode="?" horiz-adv-x="444" 
d="M283 252l57 -32c-23 -39 -62 -65 -115 -65c-62 0 -117 41 -117 113c0 132 197 206 197 307c0 51 -30 73 -81 73c-56 0 -85 -37 -85 -91h-78c0 96 69 133 162 133c103 0 160 -51 160 -138c0 -149 -209 -214 -209 -307c0 -30 22 -48 47 -48c34 0 49 31 62 55zM163 51
c0 35 14 63 48 63s48 -28 48 -63s-14 -63 -48 -63s-48 28 -48 63z" />
    <glyph glyph-name="at" unicode="@" horiz-adv-x="800" 
d="M329 280c0 -61 26 -80 63 -80s101 68 119 210c6 43 -14 62 -43 62c-50 0 -139 -69 -139 -192zM608 507l-59 -239c-3 -14 -5 -26 -5 -39c0 -19 17 -35 42 -35c75 0 124 97 124 197c0 116 -106 257 -292 257c-155 0 -286 -109 -286 -333c0 -145 119 -281 296 -281
c90 0 149 20 200 50l13 -34c-57 -30 -133 -58 -212 -58c-265 0 -381 198 -381 333c0 218 170 365 370 365c187 0 334 -127 334 -298c0 -103 -69 -240 -189 -240c-68 0 -92 58 -91 70h-2c-11 -17 -57 -70 -116 -70c-32 0 -97 11 -97 125c0 80 67 243 199 243
c47 0 59 -28 72 -49l10 36h70z" />
    <glyph glyph-name="A" unicode="A" horiz-adv-x="778" 
d="M18 0v42h64l281 648h37l288 -648h72v-42h-248v42h81l-68 154h-323l-65 -154h79v-42h-198zM504 244l-145 328l-137 -328h282z" />
    <glyph glyph-name="B" unicode="B" horiz-adv-x="667" 
d="M212 341v-299h123c91 0 171 39 171 144c0 96 -55 155 -187 155h-107zM212 640v-257h112c99 0 151 51 151 129c0 80 -60 128 -164 128h-99zM32 0v42h90v598h-90v42h315c113 0 219 -38 224 -168c0 -89 -75 -134 -153 -151v-2c102 -7 190 -70 190 -179
c0 -135 -126 -185 -250 -182h-326z" />
    <glyph glyph-name="C" unicode="C" horiz-adv-x="778" 
d="M705 683v-192h-60v8c0 86 -88 149 -211 149c-176 0 -280 -130 -280 -307c0 -163 116 -307 280 -307c138 0 207 47 264 111l36 -38c-83 -88 -188 -115 -302 -115c-216 0 -380 146 -380 349c0 219 158 349 365 349c103 0 172 -20 228 -79v72h60z" />
    <glyph glyph-name="D" unicode="D" horiz-adv-x="778" 
d="M32 0v42h90v598h-90v42h289c219 0 393 -120 393 -341c0 -237 -179 -341 -417 -341h-265zM212 640v-598h85c202 0 315 130 315 299c0 220 -146 299 -291 299h-109z" />
    <glyph glyph-name="E" unicode="E" horiz-adv-x="667" 
d="M23 0v42h99v598h-99v42h566v-136h-54v76h-323v-239h268v79h54v-203h-54v82h-268v-281h332v85h54v-145h-575z" />
    <glyph glyph-name="F" unicode="F" horiz-adv-x="611" 
d="M32 0v42h90v598h-90v42h542v-137h-54v77h-308v-239h257v79h54v-205h-54v84h-257v-299h90v-42h-270z" />
    <glyph glyph-name="G" unicode="G" horiz-adv-x="833" 
d="M725 682v-186h-54v7c0 92 -122 145 -230 145c-186 0 -287 -143 -287 -307c0 -163 116 -307 289 -307c107 0 179 46 219 95v139h-121v48h211v-316h-31c-10 24 -20 49 -37 72c-76 -67 -167 -80 -257 -80c-211 0 -375 135 -375 349c0 219 163 349 370 349
c75 0 175 -15 249 -79v71h54z" />
    <glyph glyph-name="H" unicode="H" horiz-adv-x="834" 
d="M32 0v42h90v598h-90v42h270v-42h-90v-257h410v257h-90v42h270v-42h-90v-598h90v-42h-270v42h90v299h-410v-299h90v-42h-270z" />
    <glyph glyph-name="I" unicode="I" horiz-adv-x="334" 
d="M32 0v42h90v598h-90v42h270v-42h-90v-598h90v-42h-270z" />
    <glyph glyph-name="J" unicode="J" horiz-adv-x="500" 
d="M198 640v42h270v-42h-90v-473c0 -127 -84 -175 -197 -175c-111 0 -178 60 -178 151l90 14c0 -60 24 -123 93 -123c66 0 102 49 102 136v470h-90z" />
    <glyph glyph-name="K" unicode="K" horiz-adv-x="722" 
d="M32 0v42h90v598h-90v42h270v-42h-90v-334l334 334h-77v42h234v-42h-84l-245 -244l270 -354h66v-42h-264v42h84l-221 290l-97 -97v-193h90v-42h-270z" />
    <glyph glyph-name="L" unicode="L" horiz-adv-x="611" 
d="M32 0v42h90v598h-90v42h270v-42h-90v-580h296v102h66v-162h-542z" />
    <glyph glyph-name="M" unicode="M" horiz-adv-x="1000" 
d="M32 0v42h84v598h-84v42h170l298 -537l295 537h173v-42h-84v-598h84v-42h-264v42h90v544h-2l-295 -537h-36l-289 519h-2v-526h87v-42h-225z" />
    <glyph glyph-name="N" unicode="N" horiz-adv-x="834" 
d="M32 0v42h90v598h-90v42h163l474 -520v478h-90v42h234v-42h-90v-648h-24l-523 576v-526h90v-42h-234z" />
    <glyph glyph-name="O" unicode="O" horiz-adv-x="834" 
d="M154 347c0 -169 82 -313 263 -313s263 144 263 313c0 158 -87 301 -263 301s-263 -143 -263 -301zM52 341c0 194 152 349 365 349c202 0 365 -130 365 -349c0 -209 -148 -349 -365 -349c-233 0 -365 147 -365 349z" />
    <glyph glyph-name="P" unicode="P" horiz-adv-x="611" 
d="M32 0v42h90v598h-90v42h284c131 0 254 -48 254 -203c0 -141 -108 -209 -254 -209c-29 0 -66 2 -104 7v-235h90v-42h-270zM212 640v-320c31 -2 62 -2 93 -2c98 0 169 40 169 161c0 100 -61 161 -181 161h-81z" />
    <glyph glyph-name="Q" unicode="Q" horiz-adv-x="834" 
d="M397 78l-31 22c26 37 56 77 111 77c34 0 69 -29 116 -76c59 57 87 147 87 246c0 158 -87 301 -263 301s-263 -143 -263 -301c0 -169 82 -313 263 -313c44 0 83 9 115 24c-34 37 -57 53 -77 53c-31 0 -36 -14 -58 -33zM785 19l25 -26c-27 -37 -63 -70 -109 -70
c-42 0 -84 42 -134 96c-45 -18 -95 -27 -150 -27c-233 0 -365 147 -365 349c0 194 152 349 365 349c202 0 365 -130 365 -349c0 -127 -55 -228 -146 -287c40 -43 65 -65 88 -65c24 0 47 17 61 30z" />
    <glyph glyph-name="R" unicode="R" horiz-adv-x="667" 
d="M212 640v-298h97c100 0 154 68 154 153c0 86 -52 145 -170 145h-81zM32 0v42h90v598h-90v42h294c120 0 233 -47 233 -188c0 -94 -70 -157 -157 -176c39 -33 73 -110 121 -179c31 -45 54 -95 115 -95h9v-44h-58c-114 0 -149 120 -263 280c-10 14 -28 20 -54 20h-60v-258
h90v-42h-270z" />
    <glyph glyph-name="S" unicode="S" horiz-adv-x="611" 
d="M524 682v-174h-54v6c0 92 -106 134 -189 134c-72 0 -139 -31 -139 -106c0 -169 416 -113 416 -357c0 -132 -116 -193 -242 -193c-112 0 -164 25 -195 46v-38h-60v180h60v-43c0 -79 133 -102 190 -103c80 0 163 32 163 115c0 199 -416 122 -416 367c0 121 108 174 222 174
c75 0 143 -15 190 -58v50h54z" />
    <glyph glyph-name="T" unicode="T" horiz-adv-x="668" 
d="M196 0v42h93v580h-207v-84h-60v144h624v-144h-60v84h-207v-580h93v-42h-276z" />
    <glyph glyph-name="U" unicode="U" horiz-adv-x="778" 
d="M32 640v42h270v-42h-90v-372c0 -165 84 -228 196 -228c114 0 198 66 198 195v405h-84v42h228v-42h-84v-404c0 -146 -84 -244 -258 -244c-204 0 -286 92 -286 263v385h-90z" />
    <glyph glyph-name="V" unicode="V" horiz-adv-x="778" 
d="M371 -8l-283 648h-72v42h261v-42h-90l231 -546l224 546h-84v42h204v-42h-60l-272 -648h-59z" />
    <glyph glyph-name="W" unicode="W" horiz-adv-x="1000" 
d="M667 -8l-163 532h-2l-162 -532h-62l-199 648h-66v42h252v-42h-90l153 -522h2l171 564h45l171 -564h2l150 522h-86v42h204v-42h-63l-193 -648h-64z" />
    <glyph glyph-name="X" unicode="X" horiz-adv-x="778" 
d="M28 640v42h277v-42h-84l173 -228l183 228h-88v42h234v-42h-81l-215 -268l254 -330h78v-42h-276v42h84l-199 254l-208 -254h81v-42h-222v42h78l240 298l-230 300h-79z" />
    <glyph glyph-name="Y" unicode="Y" horiz-adv-x="722" 
d="M239 0v42h90v202l-231 396h-78v42h274v-42h-88l188 -333l183 333h-85v42h210v-42h-66l-217 -389v-209h90v-42h-270z" />
    <glyph glyph-name="Z" unicode="Z" horiz-adv-x="667" 
d="M56 545v137h547v-18l-427 -604h389v90h60v-150h-555c-23 0 -28 0 -28 2v13c0 4 3 8 35 53l392 554h-353v-77h-60z" />
    <glyph glyph-name="bracketleft" unicode="[" horiz-adv-x="334" 
d="M178 -178h86v-42h-170v902h170v-42h-86v-818z" />
    <glyph glyph-name="backslash" unicode="\" horiz-adv-x="389" 
d="M380 -8h-72l-299 698h72z" />
    <glyph glyph-name="bracketright" unicode="]" horiz-adv-x="334" 
d="M156 640h-86v42h170v-902h-170v42h86v818z" />
    <glyph glyph-name="asciicircum" unicode="^" horiz-adv-x="600" 
d="M443 309l-143 289l-143 -289h-68l181 365h60l181 -365h-68z" />
    <glyph glyph-name="underscore" unicode="_" horiz-adv-x="500" 
d="M500 -125h-500v50h500v-50z" />
    <glyph glyph-name="quoteleft" unicode="&#x2018;" horiz-adv-x="278" 
d="M82 438l72 244h42l-20 -244h-94z" />
    <glyph glyph-name="a" unicode="a" 
d="M445 42h81v-42h-163v59h-2c-28 -46 -82 -71 -146 -71c-98 0 -170 59 -170 165c0 104 76 166 182 166c60 0 104 -24 132 -70h2v102c0 58 -25 97 -102 97c-52 0 -101 -29 -130 -65l-43 42c52 41 107 59 180 59c92 0 179 -28 179 -148v-294zM361 115v72c0 46 -63 84 -112 84
c-63 0 -114 -47 -114 -112c0 -82 47 -123 111 -123c69 0 115 51 115 79z" />
    <glyph glyph-name="b" unicode="b" horiz-adv-x="611" 
d="M106 80v564l-78 -4v42l162 8v-296h2c27 51 78 90 154 90c141 0 214 -110 214 -242c0 -134 -78 -254 -224 -254c-70 0 -122 30 -154 93l-36 -81h-48c3 25 7 51 8 80zM190 236c0 -111 33 -206 137 -206s137 95 137 206c1 130 -50 206 -133 206c-96 0 -141 -91 -141 -206z
" />
    <glyph glyph-name="c" unicode="c" horiz-adv-x="500" 
d="M408 478h45l6 -154h-47v14c0 55 -62 98 -120 98c-110 0 -151 -103 -151 -209c0 -98 45 -197 158 -197c60 0 101 14 139 60l32 -30c-43 -57 -115 -72 -183 -72c-147 0 -242 95 -242 239c0 145 94 257 222 257c51 0 99 -14 139 -58h2v52z" />
    <glyph glyph-name="d" unicode="d" horiz-adv-x="611" 
d="M501 690v-648h84v-42h-168v71h-2c-24 -55 -88 -83 -145 -83c-146 0 -225 101 -225 242c0 130 73 254 222 254c65 0 113 -28 148 -72h2v232l-85 -4v42zM141 235c0 -97 39 -205 139 -205c78 0 132 60 137 136v161c0 54 -65 115 -135 115c-102 0 -141 -121 -141 -207z" />
    <glyph glyph-name="e" unicode="e" 
d="M503 224h-362c0 -136 69 -194 170 -194c67 0 122 35 159 90l41 -34c-44 -71 -138 -98 -217 -98c-163 0 -249 105 -249 248c0 149 100 248 233 248c119 0 225 -71 225 -235v-25zM141 266h272c0 94 -33 176 -135 176c-100 0 -137 -85 -137 -176z" />
    <glyph glyph-name="f" unicode="f" horiz-adv-x="334" 
d="M19 0v42h78v388h-78v42h81v82c0 79 45 136 129 136c29 0 65 -6 92 -37l-34 -59h-12c-10 40 -24 60 -53 60c-30 0 -41 -28 -41 -74v-108h109v-42h-109v-388h87v-42h-249z" />
    <glyph glyph-name="g" unicode="g" horiz-adv-x="611" 
d="M141 228c0 -91 30 -198 132 -198c92 0 141 84 141 156v80c0 95 -47 176 -133 176c-109 0 -140 -117 -140 -214zM75 -151l67 51c30 -49 66 -92 129 -92c93 0 148 44 148 150v124h-2c-34 -64 -89 -94 -161 -94c-153 0 -211 131 -211 245c0 131 73 251 220 251
c66 0 130 -33 152 -88h2v76h163v-42h-84v-438c0 -114 -45 -226 -240 -226c-75 0 -136 23 -183 83z" />
    <glyph glyph-name="h" unicode="h" horiz-adv-x="611" 
d="M106 42v602l-81 -4v42l165 8v-292h2c33 61 86 86 158 86c78 0 155 -39 155 -137v-305h81v-42h-246v42h81v290c0 58 -37 98 -98 98c-79 0 -133 -65 -133 -140v-248h81v-42h-246v42h81z" />
    <glyph glyph-name="i" unicode="i" horiz-adv-x="296" 
d="M19 0v42h87v388h-87v42h171v-430h87v-42h-258zM88 631c0 28 23 51 51 51s51 -23 51 -51s-23 -51 -51 -51s-51 23 -51 51z" />
    <glyph glyph-name="j" unicode="j" horiz-adv-x="296" 
d="M-38 -169l43 48h12c0 -33 8 -57 45 -57c42 0 44 55 44 90v518h-86v42h170v-530c0 -126 -84 -162 -134 -162c-51 0 -81 25 -94 51zM189 631c0 -28 -23 -51 -51 -51c-27 0 -51 23 -51 51s24 51 51 51c28 0 51 -23 51 -51z" />
    <glyph glyph-name="k" unicode="k" horiz-adv-x="611" 
d="M34 0v42h84v602l-84 -4v42l168 8v-459l199 199h-80v42h234v-42h-90l-145 -145l206 -243h66v-42h-244v42h72l-159 188l-59 -59v-129h84v-42h-252z" />
    <glyph glyph-name="l" unicode="l" horiz-adv-x="296" 
d="M19 0v42h87v602l-87 -4v42l171 8v-648h87v-42h-258z" />
    <glyph glyph-name="m" unicode="m" horiz-adv-x="888" 
d="M106 42v388h-87v42h171v-66h2c25 54 71 78 144 78c77 0 133 -35 140 -92h2c25 59 73 92 153 92c112 0 151 -62 151 -138v-304h87v-42h-247v42h76v304c0 60 -33 90 -96 90c-79 0 -116 -70 -116 -131v-263h75v-42h-235v42h76v291c0 67 -32 103 -86 103
c-99 0 -126 -70 -126 -144v-250h75v-42h-246v42h87z" />
    <glyph glyph-name="n" unicode="n" horiz-adv-x="611" 
d="M106 42v388h-81v42h165v-74h2c33 61 86 86 158 86c78 0 155 -39 155 -137v-305h81v-42h-246v42h81v290c0 58 -37 98 -98 98c-79 0 -133 -65 -133 -140v-248h81v-42h-246v42h81z" />
    <glyph glyph-name="o" unicode="o" 
d="M141 236c0 -111 33 -206 137 -206s137 95 137 206s-33 206 -137 206s-137 -95 -137 -206zM45 236c0 149 100 248 233 248s233 -99 233 -248s-100 -248 -233 -248s-233 99 -233 248z" />
    <glyph glyph-name="p" unicode="p" horiz-adv-x="611" 
d="M464 242c0 137 -63 199 -130 200c-98 2 -144 -90 -144 -206c0 -111 33 -206 137 -206s137 95 137 212zM106 -178v608h-84v42h168v-76h2c27 49 71 88 154 88c141 0 214 -118 214 -242c0 -134 -78 -254 -224 -254c-57 0 -113 29 -144 79h-2v-245h84v-42h-258v42h90z" />
    <glyph glyph-name="q" unicode="q" horiz-adv-x="611" 
d="M494 430v-608h81v-42h-249v42h84v241h-2c-27 -50 -85 -75 -144 -75c-114 0 -219 80 -219 245c0 134 89 251 229 251c54 0 105 -24 139 -66l30 54h132v-42h-81zM141 236c0 -138 72 -200 140 -200c66 0 123 36 129 122v208c-18 30 -61 76 -129 76s-140 -68 -140 -206z" />
    <glyph glyph-name="r" unicode="r" horiz-adv-x="389" 
d="M25 0v42h81v388h-78v42h162v-70h2c18 37 61 82 113 82c40 0 67 -26 77 -48v-12l-52 -46c-12 21 -29 46 -54 46c-58 0 -86 -75 -86 -139v-243h81v-42h-246z" />
    <glyph glyph-name="s" unicode="s" horiz-adv-x="444" 
d="M49 0v132h50v-22c0 -38 63 -80 127 -80c35 0 91 22 91 77c0 127 -272 55 -272 241c0 91 71 136 159 136c43 0 97 -20 115 -52h2v40h48v-114h-50v23c0 23 -49 61 -112 61c-52 0 -90 -22 -90 -71c0 -117 278 -54 278 -236c0 -91 -77 -147 -160 -147c-53 0 -102 15 -136 60
h-2v-48h-48z" />
    <glyph glyph-name="t" unicode="t" horiz-adv-x="334" 
d="M181 430v-322c0 -46 5 -78 43 -78c29 0 43 32 45 55h12l34 -33v-11c-14 -24 -47 -53 -107 -53c-73 0 -111 33 -111 120v322h-78v42h78v132l78 43l6 -8v-167h118v-42h-118z" />
    <glyph glyph-name="u" unicode="u" horiz-adv-x="611" 
d="M505 472v-430h81v-42h-165v68h-2c-33 -55 -86 -80 -155 -80c-96 0 -158 45 -158 147v295h-81v42h165v-324c0 -77 38 -112 100 -112c88 0 131 63 131 128v266h-81v42h165z" />
    <glyph glyph-name="v" unicode="v" 
d="M244 -6l-179 436h-60v42h228v-42h-77l134 -346l127 346h-74v42h192v-42h-61l-171 -436h-59z" />
    <glyph glyph-name="w" unicode="w" horiz-adv-x="834" 
d="M245 -6l-161 436h-70v42h234v-42h-77l115 -328h2l122 370h43l122 -370h2l113 328h-81v42h204v-42h-68l-158 -436h-52l-121 352h-2l-116 -352h-51z" />
    <glyph glyph-name="x" unicode="x" 
d="M296 0v42h68l-108 146l-107 -146h71v-42h-204v42h72l140 185l-146 203h-70v42h240v-42h-71l99 -141l103 141h-73v42h204v-42h-73l-132 -178l155 -210h71v-42h-239z" />
    <glyph glyph-name="y" unicode="y" 
d="M89 -220v42h81l76 179l-180 429h-57v42h222v-42h-79l137 -334l137 334h-81v42h190v-42h-55l-256 -608h81v-42h-216z" />
    <glyph glyph-name="z" unicode="z" horiz-adv-x="500" 
d="M44 334v138h405v-18l-300 -412h243v95h54v-137h-407c-8 0 -11 0 -11 2v12c0 5 4 10 21 32l284 384h-235v-96h-54z" />
    <glyph glyph-name="braceleft" unicode="{" horiz-adv-x="334" 
d="M127 -68v175c0 70 -11 104 -72 124c61 20 72 54 72 124v175c0 130 58 152 152 152v-12c-53 -17 -68 -59 -68 -134v-165c0 -77 -15 -120 -94 -139v-2c79 -19 94 -62 94 -139v-165c0 -75 15 -117 68 -134v-12c-94 0 -152 22 -152 152z" />
    <glyph glyph-name="bar" unicode="|" horiz-adv-x="222" 
d="M78 -8v698h66v-698h-66z" />
    <glyph glyph-name="braceright" unicode="}" horiz-adv-x="334" 
d="M123 -74v165c0 77 15 120 94 139v2c-79 19 -94 62 -94 139v165c0 75 -15 117 -68 134v12c94 0 152 -22 152 -152v-175c0 -70 11 -104 72 -124c-61 -20 -72 -54 -72 -124v-175c0 -130 -58 -152 -152 -152v12c53 17 68 59 68 134z" />
    <glyph glyph-name="asciitilde" unicode="~" horiz-adv-x="600" 
d="M105 182l-36 51c22 42 58 86 117 86c42 0 82 -12 123 -31c35 -19 68 -35 105 -35c35 0 58 35 81 71l36 -51c-30 -42 -63 -86 -117 -86c-42 0 -82 12 -123 32c-35 18 -68 34 -105 34c-41 0 -65 -35 -81 -71z" />
    <glyph glyph-name="exclamdown" unicode="&#xa1;" horiz-adv-x="334" 
d="M119 419c0 35 14 63 48 63s48 -28 48 -63s-14 -63 -48 -63s-48 28 -48 63zM116 -212l30 510h42l30 -510h-102z" />
    <glyph glyph-name="cent" unicode="&#xa2;" 
d="M224 64l131 366c-15 4 -31 6 -48 6c-104 0 -145 -103 -145 -209c0 -63 19 -126 62 -163zM147 -153l57 160c-86 34 -138 114 -138 220c0 145 94 257 226 257c27 0 53 -4 77 -13l49 138h36l-55 -154c10 -7 19 -14 27 -23h2v46h51l6 -154h-48c0 44 -19 75 -51 93l-132 -372
c18 -10 41 -15 66 -15c60 0 101 14 139 60l31 -30c-43 -57 -114 -72 -182 -72c-26 0 -50 3 -71 10l-54 -151h-36z" />
    <glyph glyph-name="sterling" unicode="&#xa3;" 
d="M60 0v36c77 32 134 80 134 171c0 46 -27 88 -54 123h-94v42h58c-24 40 -44 79 -44 125c0 116 103 185 210 185c62 0 124 -18 169 -62v54h54v-174h-55c4 94 -71 140 -159 140c-77 0 -141 -35 -141 -119c0 -54 52 -106 82 -149h162v-42h-131c15 -25 21 -56 21 -86
c0 -65 -36 -117 -89 -164v-2h283v72h54v-150h-460z" />
    <glyph glyph-name="fraction" unicode="&#x2044;" horiz-adv-x="167" 
d="M285 702h48l-451 -730h-48z" />
    <glyph glyph-name="yen" unicode="&#xa5;" 
d="M158 0v42h89v117h-140v48h140v43l-21 45h-119v48h97l-134 289h-78v42h266v-42h-90l145 -310l132 310h-85v42h204v-42h-66l-122 -289h101v-48h-121l-19 -45v-43h140v-48h-140v-117h90v-42h-269z" />
    <glyph glyph-name="florin" unicode="&#x192;" 
d="M123 379l8 42h109l26 133c15 79 70 136 154 136c29 0 64 -6 85 -37l-45 -59h-12c-2 40 -12 60 -41 60c-30 0 -47 -28 -56 -74l-31 -159h122l-8 -42h-122l-81 -417c-30 -155 -115 -182 -165 -182c-51 0 -76 25 -84 51l52 48h12c-6 -33 -3 -57 34 -57c42 0 53 48 61 90
l91 467h-109z" />
    <glyph glyph-name="section" unicode="&#xa7;" 
d="M127 -37h78c0 -37 18 -73 59 -73c31 0 59 21 59 57c0 97 -232 180 -232 321c0 86 54 140 122 184c-35 27 -73 64 -73 121c0 72 61 117 132 117c85 0 134 -42 138 -122h-78c0 36 -11 80 -58 80c-34 0 -56 -22 -56 -52c0 -94 247 -184 247 -336c0 -88 -54 -138 -127 -175
c37 -29 63 -56 63 -116c0 -67 -55 -121 -134 -121c-78 0 -136 39 -140 115zM169 300c0 -84 88 -130 137 -187c42 30 81 69 81 124c0 73 -96 142 -144 186c-44 -32 -74 -67 -74 -123z" />
    <glyph glyph-name="currency" unicode="&#xa4;" 
d="M27 130l55 56c-33 41 -52 94 -52 151c0 58 20 111 52 152l-55 55l45 45l56 -56c42 33 94 52 150 52c57 0 110 -19 150 -52l56 56l45 -45l-56 -56c34 -41 53 -94 53 -151s-19 -110 -52 -151l55 -56l-45 -45l-56 56c-41 -33 -93 -52 -150 -52c-56 0 -108 19 -150 52
l-56 -56zM96 337c0 -101 81 -182 182 -182s182 81 182 182s-81 182 -182 182s-182 -81 -182 -182z" />
    <glyph glyph-name="quotesingle" unicode="'" horiz-adv-x="278" 
d="M100 438v244h78v-244h-78z" />
    <glyph glyph-name="quotedblleft" unicode="&#x201c;" 
d="M299 438l72 244h42l-20 -244h-94zM143 438l72 244h42l-20 -244h-94z" />
    <glyph glyph-name="guillemotleft" unicode="&#xab;" 
d="M403 54l-138 183l138 183h60l-138 -183l138 -183h-60zM231 54l-138 183l138 183h60l-138 -183l138 -183h-60z" />
    <glyph glyph-name="guilsinglleft" unicode="&#x2039;" horiz-adv-x="278" 
d="M40 237l138 183h60l-138 -183l138 -183h-60z" />
    <glyph glyph-name="guilsinglright" unicode="&#x203a;" horiz-adv-x="278" 
d="M238 237l-138 -183h-60l138 183l-138 183h60z" />
    <glyph glyph-name="fi" unicode="&#xfb01;" horiz-adv-x="611" 
d="M403 631c0 28 23 51 51 51s51 -23 51 -51s-23 -51 -51 -51s-51 23 -51 51zM19 0v42h78v388h-78v42h81v82c0 79 45 136 129 136c29 0 65 -6 92 -37l-34 -59h-12c-10 40 -24 60 -53 60c-30 0 -41 -28 -41 -74v-108h324v-430h87v-42h-258v42h87v388h-240v-388h87v-42h-249z
" />
    <glyph glyph-name="fl" unicode="&#xfb02;" horiz-adv-x="611" 
d="M334 0v42h87v602l-87 -4v42l171 8v-648h87v-42h-258zM19 0v42h78v388h-78v42h81v82c0 79 45 136 129 136c29 0 65 -6 92 -37l-34 -59h-12c-10 40 -24 60 -53 60c-30 0 -41 -28 -41 -74v-108h109v-42h-109v-388h87v-42h-249z" />
    <glyph glyph-name="endash" unicode="&#x2013;" horiz-adv-x="500" 
d="M0 210v54h500v-54h-500z" />
    <glyph glyph-name="dagger" unicode="&#x2020;" 
d="M236 42v343h-123v-77h-42v220h42v-77h123v161h-88v42h260v-42h-88v-161h123v77h42v-220h-42v77h-123v-343h88v-42h-260v42h88z" />
    <glyph glyph-name="daggerdbl" unicode="&#x2021;" 
d="M239 42v114h-126v-48h-42v156h42v-48h126v222h-126v-48h-42v156h42v-48h126v114h-73v42h224v-42h-73v-114h126v48h42v-156h-42v48h-126v-222h126v48h42v-156h-42v48h-126v-114h75v-42h-228v42h75z" />
    <glyph glyph-name="periodcentered" unicode="&#xb7;" horiz-adv-x="278" 
d="M76 299c0 35 28 63 63 63s63 -28 63 -63s-28 -63 -63 -63s-63 28 -63 63z" />
    <glyph glyph-name="paragraph" unicode="&#xb6;" horiz-adv-x="600" 
d="M514 682v-42h-82v-742h82v-42h-148v784h-58v-784h-148v42h82v372c-137 0 -197 88 -197 206s60 206 197 206h272zM242 312v328c-80 0 -119 -46 -119 -164s39 -164 119 -164z" />
    <glyph glyph-name="bullet" unicode="&#x2022;" horiz-adv-x="500" 
d="M80 341c0 94 76 170 170 170s171 -76 171 -170s-77 -171 -171 -171s-170 77 -170 171z" />
    <glyph glyph-name="quotesinglbase" unicode="&#x201a;" horiz-adv-x="278" 
d="M82 -130l18 244h96l-72 -244h-42z" />
    <glyph glyph-name="quotedblbase" unicode="&#x201e;" 
d="M143 -130l20 244h94l-72 -244h-42zM299 -130l20 244h94l-72 -244h-42z" />
    <glyph glyph-name="quotedblright" unicode="&#x201d;" 
d="M143 438l20 244h94l-72 -244h-42zM299 438l20 244h94l-72 -244h-42z" />
    <glyph glyph-name="guillemotright" unicode="&#xbb;" 
d="M265 54l138 183l-138 183h60l138 -183l-138 -183h-60zM93 54l138 183l-138 183h60l138 -183l-138 -183h-60z" />
    <glyph glyph-name="ellipsis" unicode="&#x2026;" horiz-adv-x="1000" 
d="M167 -12c-34 0 -48 28 -48 63s14 63 48 63s48 -28 48 -63s-14 -63 -48 -63zM500 -12c-34 0 -48 28 -48 63s14 63 48 63s48 -28 48 -63s-14 -63 -48 -63zM833 -12c-34 0 -48 28 -48 63s14 63 48 63s48 -28 48 -63s-14 -63 -48 -63z" />
    <glyph glyph-name="perthousand" unicode="&#x2030;" horiz-adv-x="1000" 
d="M362 150c0 102 67 158 140 158s140 -56 140 -158s-67 -158 -140 -158s-140 56 -140 158zM428 150c0 -90 27 -134 74 -134s74 44 74 134s-27 134 -74 134s-74 -44 -74 -134zM685 150c0 102 67 158 140 158s140 -56 140 -158s-67 -158 -140 -158s-140 56 -140 158zM751 150
c0 -90 27 -134 74 -134s74 44 74 134s-27 134 -74 134s-74 -44 -74 -134zM35 524c0 102 67 158 140 158s140 -56 140 -158s-67 -158 -140 -158s-140 56 -140 158zM101 524c0 -90 27 -134 74 -134s74 44 74 134s-27 134 -74 134s-74 -44 -74 -134zM92 -28l451 730h48
l-451 -730h-48z" />
    <glyph glyph-name="questiondown" unicode="&#xbf;" horiz-adv-x="444" 
d="M161 218l-57 32c23 39 62 65 115 65c62 0 117 -41 117 -113c0 -132 -197 -206 -197 -307c0 -51 30 -73 81 -73c56 0 85 37 85 91h78c0 -96 -69 -133 -162 -133c-103 0 -160 51 -160 138c0 149 209 214 209 307c0 30 -22 48 -47 48c-34 0 -49 -31 -62 -55zM281 419
c0 -35 -14 -63 -48 -63s-48 28 -48 63s14 63 48 63s48 -28 48 -63z" />
    <glyph glyph-name="grave" unicode="`" horiz-adv-x="278" 
d="M188 550l-165 97c-19 11 -23 22 -23 35c0 16 14 30 32 30c23 0 37 -16 56 -34l120 -111c5 -5 10 -9 10 -14c0 -6 -4 -10 -9 -11c-5 -2 -11 2 -21 8z" />
    <glyph glyph-name="acute" unicode="&#xb4;" horiz-adv-x="278" 
d="M70 567l120 111c19 18 33 34 56 34c18 0 32 -14 32 -30c0 -13 -4 -24 -23 -35l-165 -97c-10 -6 -16 -10 -21 -8c-5 1 -9 5 -9 11c0 5 5 9 10 14z" />
    <glyph glyph-name="circumflex" unicode="&#x2c6;" horiz-adv-x="278" 
d="M14 566l96 146h58l97 -146c3 -5 7 -11 7 -17c-1 -6 -6 -7 -10 -7s-12 4 -23 14l-99 96l-101 -96c-11 -10 -19 -14 -23 -14s-9 1 -10 7c0 6 5 12 8 17z" />
    <glyph glyph-name="tilde" unicode="&#x2dc;" horiz-adv-x="278" 
d="M254 686h24c0 -56 -34 -98 -82 -98c-25 0 -47 8 -69 16s-43 16 -61 16c-25 0 -42 -14 -42 -42h-24c0 50 31 96 82 96c21 0 43 -8 64 -16s42 -16 58 -16c28 0 50 14 50 44z" />
    <glyph glyph-name="macron" unicode="&#xaf;" horiz-adv-x="278" 
d="M0 612v48h278v-48h-278z" />
    <glyph glyph-name="breve" unicode="&#x2d8;" horiz-adv-x="278" 
d="M252 713h24c0 -111 -50 -168 -137 -168s-137 57 -137 168h24c5 -63 46 -108 113 -108s108 45 113 108z" />
    <glyph glyph-name="dotaccent" unicode="&#x2d9;" horiz-adv-x="278" 
d="M88 631c0 28 23 51 51 51s51 -23 51 -51s-23 -51 -51 -51s-51 23 -51 51z" />
    <glyph glyph-name="dieresis" unicode="&#xa8;" horiz-adv-x="278" 
d="M1 631c0 28 23 51 51 51s51 -23 51 -51s-23 -51 -51 -51s-51 23 -51 51zM175 631c0 28 23 51 51 51s51 -23 51 -51s-23 -51 -51 -51s-51 23 -51 51z" />
    <glyph glyph-name="ring" unicode="&#x2da;" horiz-adv-x="278" 
d="M38 632c0 56 45 101 101 101s101 -45 101 -101s-45 -101 -101 -101s-101 45 -101 101zM74 632c0 -36 29 -65 65 -65s65 29 65 65s-29 65 -65 65s-65 -29 -65 -65z" />
    <glyph glyph-name="cedilla" unicode="&#xb8;" horiz-adv-x="278" 
d="M161 0l-27 -69c11 1 22 2 36 2c38 0 75 -24 75 -69c0 -64 -67 -84 -122 -84c-37 0 -73 12 -106 26l15 30c23 -12 52 -20 82 -20c32 0 59 13 59 42c0 32 -27 39 -54 39c-15 0 -26 -2 -38 -4l44 107h36z" />
    <glyph glyph-name="hungarumlaut" unicode="&#x2dd;" horiz-adv-x="278" 
d="M-18 567l120 111c19 18 33 34 56 34c18 0 32 -14 32 -30c0 -13 -4 -24 -23 -35l-165 -97c-10 -6 -16 -10 -21 -8c-5 1 -9 5 -9 11c0 5 5 9 10 14zM158 567l120 111c19 18 33 34 56 34c18 0 32 -14 32 -30c0 -13 -4 -24 -23 -35l-165 -97c-10 -6 -16 -10 -21 -8
c-5 1 -9 5 -9 11c0 5 5 9 10 14z" />
    <glyph glyph-name="ogonek" unicode="&#x2db;" horiz-adv-x="278" 
d="M194 0h36c-58 -40 -78 -86 -78 -130c0 -37 16 -54 49 -54c22 0 43 5 65 13l6 -32c-29 -10 -56 -17 -88 -17c-57 0 -104 20 -104 79c-2 55 67 111 114 141z" />
    <glyph glyph-name="caron" unicode="&#x2c7;" horiz-adv-x="278" 
d="M110 542l-96 146c-3 5 -8 11 -8 17c1 6 6 7 10 7s12 -4 23 -14l101 -96l99 96c11 10 19 14 23 14s9 -1 10 -7c0 -6 -4 -12 -7 -17l-97 -146h-58z" />
    <glyph glyph-name="emdash" unicode="&#x2014;" horiz-adv-x="1000" 
d="M0 210v54h1000v-54h-1000z" />
    <glyph glyph-name="AE" unicode="&#xc6;" horiz-adv-x="1000" 
d="M926 60v88h54v-148h-487v42h90l-65 154h-323l-63 -154h80v-42h-198v42h66l246 598h-90v42h535v-137h-54v77h-291l102 -239h263v79h54v-200h-54v79h-245l121 -281h259zM354 586l-139 -342h283z" />
    <glyph glyph-name="ordfeminine" unicode="&#xaa;" horiz-adv-x="361" 
d="M233 545v45c0 39 -16 62 -66 62c-36 0 -66 -9 -85 -30l-28 25c34 25 70 35 123 35c60 0 122 -16 122 -99v-162h41v-30h-106v32h-2c-17 -23 -52 -38 -97 -38c-71 0 -117 35 -117 99c0 62 49 99 121 99c46 0 74 -14 93 -38l-1 -2l2 -2v4zM233 461v43c0 26 -41 49 -70 49
c-45 0 -73 -27 -73 -66c0 -49 30 -72 71 -72c42 0 72 29 72 46z" />
    <glyph glyph-name="Lslash" unicode="&#x141;" horiz-adv-x="611" 
d="M32 0v42h90v263l-90 -46v57l90 46v278h-90v42h270v-42h-90v-233l180 91v-57l-180 -90v-291h296v102h66v-162h-542z" />
    <glyph glyph-name="Oslash" unicode="&#xd8;" horiz-adv-x="834" 
d="M197 159l416 400c-43 54 -108 89 -196 89c-176 0 -263 -143 -263 -301c0 -70 14 -135 43 -188zM45 13l92 89c-56 62 -85 144 -85 239c0 194 152 349 365 349c95 0 181 -29 246 -83l96 92l30 -30l-94 -91c54 -59 87 -139 87 -237c0 -209 -148 -349 -365 -349
c-104 0 -188 29 -249 80l-93 -89zM637 523l-416 -400c42 -54 107 -89 196 -89c181 0 263 144 263 313c0 64 -14 126 -43 176z" />
    <glyph glyph-name="OE" unicode="&#x152;" horiz-adv-x="1000" 
d="M141 338c0 -153 43 -304 214 -304c163 0 214 154 214 304c0 185 -68 310 -214 310c-172 0 -214 -177 -214 -310zM907 60v86h54v-146h-392v93h-2c-46 -71 -130 -101 -213 -101c-242 0 -315 175 -315 349s101 349 315 349c88 0 164 -24 213 -95h2v87h392v-137h-54v77h-254
v-239h205v76h54v-202h-54v84h-205v-281h254z" />
    <glyph glyph-name="ordmasculine" unicode="&#xba;" horiz-adv-x="361" 
d="M92 534c0 -67 21 -119 89 -119c67 0 88 52 88 119c0 66 -21 118 -88 118c-68 0 -89 -52 -89 -118zM20 534c0 89 65 148 161 148c95 0 160 -59 160 -148c0 -90 -65 -149 -160 -149c-96 0 -161 59 -161 149z" />
    <glyph glyph-name="ae" unicode="&#xe6;" horiz-adv-x="834" 
d="M121 387l-46 41c45 40 114 56 173 56c62 0 121 -19 161 -68c48 51 95 68 160 68c126 0 224 -80 224 -250h-358c0 -139 59 -204 161 -204c78 0 129 34 162 86l42 -34c-61 -73 -125 -94 -218 -94c-88 0 -166 33 -206 105c-34 -71 -95 -105 -172 -105
c-98 0 -170 67 -170 166s78 165 176 165c65 0 122 -27 139 -77h2v100c0 64 -40 100 -105 100c-55 0 -101 -26 -125 -55zM351 125v58c0 36 -50 88 -113 88c-66 0 -114 -38 -114 -116c0 -64 36 -119 115 -119c57 0 112 53 112 89zM435 276h268c0 89 -37 166 -130 166
c-107 0 -138 -76 -138 -166z" />
    <glyph glyph-name="dotlessi" unicode="&#x131;" horiz-adv-x="296" 
d="M19 0v42h87v388h-87v42h171v-430h87v-42h-258z" />
    <glyph glyph-name="lslash" unicode="&#x142;" horiz-adv-x="296" 
d="M19 0v42h87v263l-87 -46v57l87 46v282l-87 -4v42l171 8v-286l87 42v-57l-87 -42v-305h87v-42h-258z" />
    <glyph glyph-name="oslash" unicode="&#xf8;" 
d="M154 133l232 246c-22 39 -56 63 -108 63c-104 0 -137 -95 -137 -206c0 -37 4 -72 13 -103zM402 340l-232 -247c21 -39 55 -63 108 -63c104 0 137 95 137 206c0 38 -4 73 -13 104zM35 6l62 67c-33 42 -52 98 -52 163c0 149 100 248 233 248c61 0 115 -20 154 -56l59 62
l30 -24l-63 -66c34 -43 53 -99 53 -164c0 -149 -100 -248 -233 -248c-60 0 -113 20 -154 57l-59 -63z" />
    <glyph glyph-name="oe" unicode="&#x153;" horiz-adv-x="944" 
d="M523 276h271c0 84 -33 166 -135 166c-98 0 -136 -85 -136 -166zM152 236c0 -111 33 -206 137 -206c105 0 138 95 138 206s-33 206 -138 206c-104 0 -137 -95 -137 -206zM846 116l42 -34c-61 -73 -125 -94 -218 -94c-88 0 -157 34 -197 89c-42 -56 -107 -89 -184 -89
c-133 0 -233 99 -233 248s100 248 233 248c77 0 142 -33 185 -91c39 56 103 91 186 91c126 0 224 -80 224 -250h-361c0 -139 59 -204 161 -204c78 0 129 34 162 86z" />
    <glyph glyph-name="germandbls" unicode="&#xdf;" 
d="M19 0v42h78v489c0 116 76 159 186 159c86 0 173 -41 173 -138c0 -80 -53 -123 -121 -135v-2c118 -18 176 -91 176 -220c-2 -95 -34 -207 -154 -207c-56 0 -90 28 -90 92v13h42v-10c0 -27 8 -59 46 -59c58 0 60 110 60 154c0 145 -27 215 -135 215h-23v42h27
c55 0 94 45 94 111c0 67 -44 108 -103 108c-60 0 -94 -41 -94 -112v-500h55v-42h-217z" />
    <glyph glyph-name="onesuperior" unicode="&#xb9;" horiz-adv-x="361" 
d="M91 276v30h70v313l-72 -50l-21 24l117 89h36v-376h72v-30h-202z" />
    <glyph glyph-name="logicalnot" unicode="&#xac;" horiz-adv-x="600" 
d="M487 108v212h-440v66h506v-278h-66z" />
    <glyph glyph-name="mu" unicode="&#xb5;" horiz-adv-x="611" 
d="M505 472v-430h81v-42h-165v68h-2c-33 -55 -86 -80 -155 -80c-30 0 -60 5 -86 21c0 -76 9 -126 9 -178c0 -34 -18 -51 -45 -51s-45 17 -45 51c0 52 9 102 9 174v425h-81v42h165v-335c0 -58 33 -101 100 -101c88 0 131 63 131 128v266h-81v42h165z" />
    <glyph glyph-name="trademark" unicode="&#x2122;" horiz-adv-x="990" 
d="M376 682v-88h-24c0 37 -22 64 -63 64h-50v-308c0 -50 21 -50 50 -50v-24h-171v24c26 0 49 0 49 50v308h-49c-42 0 -64 -27 -64 -64h-24v88h346zM668 276l-150 304h-2v-230c0 -50 22 -50 54 -50v-24h-131v24c29 0 53 0 53 50v266v2c-13 24 -31 38 -59 40h-11v24h119
l156 -313l157 313h106v-24c-30 0 -55 -17 -55 -50v-258c0 -50 19 -50 49 -50v-24h-170v24c28 1 49 0 49 50v232h-2l-151 -306h-12z" />
    <glyph glyph-name="Eth" unicode="&#xd0;" horiz-adv-x="778" 
d="M212 640v-257h230v-42h-230v-299h85c202 0 315 130 315 299c0 220 -146 299 -291 299h-109zM122 42v299h-78v42h78v257h-90v42h289c219 0 393 -120 393 -341c0 -237 -179 -341 -417 -341h-265v42h90z" />
    <glyph glyph-name="onehalf" unicode="&#xbd;" horiz-adv-x="834" 
d="M592 702h48l-451 -730h-48zM60 276v30h70v313l-72 -50l-21 24l117 89h36v-376h72v-30h-202zM755 54v34h42v-88h-288c-5 0 -8 5 -8 10s3 9 8 14l129 126c56 58 77 92 77 151c0 48 -25 75 -74 75c-58 0 -81 -41 -81 -88h-60c0 79 52 118 147 118c88 0 140 -33 140 -108
c0 -58 -41 -96 -81 -134l-115 -110h164z" />
    <glyph glyph-name="plusminus" unicode="&#xb1;" horiz-adv-x="600" 
d="M267 338v168h66v-168h220v-66h-220v-168h-66v168h-220v66h220zM47 0v66h506v-66h-506z" />
    <glyph glyph-name="Thorn" unicode="&#xde;" horiz-adv-x="611" 
d="M32 0v42h90v598h-90v42h270v-42h-90v-63h104c131 0 254 -48 254 -203c0 -141 -108 -209 -254 -209c-29 0 -66 1 -104 7v-130h90v-42h-270zM212 535v-316c31 -4 62 -6 93 -6c98 0 169 40 169 161c0 100 -61 161 -181 161h-81z" />
    <glyph glyph-name="onequarter" unicode="&#xbc;" horiz-adv-x="834" 
d="M611 0v30h54v63h-187v18l205 298h48v-274h55v-42h-55v-63h55v-30h-175zM665 135v188h-2l-128 -188h130zM635 702h48l-451 -730h-48zM71 276v30h70v313l-72 -50l-21 24l117 89h36v-376h72v-30h-202z" />
    <glyph glyph-name="divide" unicode="&#xf7;" horiz-adv-x="600" 
d="M47 220v66h506v-66h-506zM237 455c0 35 28 63 63 63s63 -28 63 -63s-28 -63 -63 -63s-63 28 -63 63zM237 51c0 35 28 63 63 63s63 -28 63 -63s-28 -63 -63 -63s-63 28 -63 63z" />
    <glyph glyph-name="brokenbar" unicode="&#xa6;" horiz-adv-x="222" 
d="M78 -8v261h66v-261h-66zM78 429v261h66v-261h-66z" />
    <glyph glyph-name="degree" unicode="&#xb0;" horiz-adv-x="400" 
d="M103 537c0 -54 43 -97 97 -97s97 43 97 97s-43 97 -97 97s-97 -43 -97 -97zM55 537c0 80 65 145 145 145s145 -65 145 -145s-65 -145 -145 -145s-145 65 -145 145z" />
    <glyph glyph-name="thorn" unicode="&#xfe;" horiz-adv-x="611" 
d="M190 236c0 -111 33 -206 137 -206s137 95 137 212c0 137 -57 199 -137 200c-93 2 -140 -90 -137 -206zM106 -178v822l-84 -4v42l168 8v-296h2c27 51 78 90 154 90c141 0 214 -118 214 -242c0 -134 -78 -254 -224 -254c-57 0 -113 29 -144 79h-2v-245h84v-42h-258v42h90z
" />
    <glyph glyph-name="threequarters" unicode="&#xbe;" horiz-adv-x="834" 
d="M627 0v30h54v63h-187v18l205 298h48v-274h55v-42h-55v-63h55v-30h-175zM681 135v188h-2l-128 -188h130zM656 702h48l-451 -730h-48zM154 468v36h20c50 0 82 24 82 76c0 43 -22 72 -70 72c-53 0 -73 -23 -73 -69h-60c0 66 61 99 139 99c67 0 130 -26 130 -97
c0 -51 -37 -85 -90 -96v-2c61 -5 103 -53 103 -107c0 -80 -81 -112 -158 -112c-74 0 -139 28 -145 101h66c0 -48 26 -71 82 -71c60 0 83 36 83 84c0 63 -36 86 -94 86h-15z" />
    <glyph glyph-name="twosuperior" unicode="&#xb2;" horiz-adv-x="361" 
d="M287 330v34h42v-88h-288c-5 0 -8 5 -8 10s3 9 8 14l129 126c56 58 77 92 77 151c0 48 -25 75 -74 75c-58 0 -81 -41 -81 -88h-60c0 79 52 118 147 118c88 0 140 -33 140 -108c0 -58 -41 -96 -81 -134l-115 -110h164z" />
    <glyph glyph-name="registered" unicode="&#xae;" horiz-adv-x="800" 
d="M231 531v18h171c88 0 137 -30 137 -96c0 -56 -34 -97 -85 -110l55 -87c32 -46 45 -70 85 -70v-24h-67c-40 0 -66 72 -133 168h-46v-111c0 -33 26 -33 53 -33v-24h-170v24c28 0 51 0 51 33v278c0 34 -23 34 -51 34zM348 525v-171h45c53 0 74 38 74 91c0 60 -33 80 -74 80
h-45zM51 341c0 193 156 349 349 349s349 -156 349 -349s-156 -349 -349 -349s-349 156 -349 349zM683 341c0 160 -123 289 -283 289s-283 -129 -283 -289s123 -289 283 -289s283 129 283 289z" />
    <glyph glyph-name="minus" unicode="&#x2212;" horiz-adv-x="600" 
d="M553 220h-506v66h506v-66z" />
    <glyph glyph-name="eth" unicode="&#xf0;" 
d="M95 677l7 30c60 -6 123 -18 173 -44l107 65l33 -27l-101 -61c139 -83 197 -207 197 -384s-96 -268 -233 -268c-133 0 -233 99 -233 248s102 248 223 248c87 0 125 -43 145 -86h2c-13 76 -77 170 -146 215l-105 -64l-28 30l100 61c-44 21 -93 33 -141 37zM141 236
c0 -111 33 -206 137 -206s137 95 137 206s-33 206 -137 206s-137 -95 -137 -206z" />
    <glyph glyph-name="multiply" unicode="&#xd7;" horiz-adv-x="600" 
d="M254 253l-182 182l45 46l182 -183l183 183l46 -46l-183 -182l183 -182l-46 -46l-183 183l-182 -183l-45 46z" />
    <glyph glyph-name="threesuperior" unicode="&#xb3;" horiz-adv-x="361" 
d="M151 468v36h20c50 0 82 24 82 76c0 43 -22 72 -70 72c-53 0 -73 -23 -73 -69h-60c0 66 61 99 139 99c67 0 130 -26 130 -97c0 -51 -37 -85 -90 -96v-2c61 -5 103 -53 103 -107c0 -80 -81 -112 -158 -112c-74 0 -139 28 -145 101h66c0 -48 26 -71 82 -71c60 0 83 36 83 84
c0 63 -36 86 -94 86h-15z" />
    <glyph glyph-name="copyright" unicode="&#xa9;" horiz-adv-x="800" 
d="M575 256l-19 -75c-6 -9 -17 -17 -38 -24c-21 -6 -51 -10 -95 -10c-123 0 -224 60 -224 203c0 83 60 196 229 196c31 0 64 -3 88 -9c25 -7 42 -18 42 -34v-69h-18c0 43 -33 88 -117 88c-96 0 -139 -70 -140 -173c-1 -102 41 -178 148 -178c70 0 107 39 127 85h17zM51 341
c0 193 156 349 349 349s349 -156 349 -349s-156 -349 -349 -349s-349 156 -349 349zM683 341c0 160 -123 289 -283 289s-283 -129 -283 -289s123 -289 283 -289s283 129 283 289z" />
    <glyph glyph-name="Aacute" unicode="&#xc1;" horiz-adv-x="778" 
d="M18 0v42h64l281 648h37l288 -648h72v-42h-248v42h81l-68 154h-323l-65 -154h79v-42h-198zM504 244l-145 328l-137 -328h282zM320 742l120 111c19 18 33 34 56 34c18 0 32 -14 32 -30c0 -13 -4 -24 -23 -35l-165 -97c-10 -6 -16 -10 -21 -8c-5 1 -9 5 -9 11c0 5 5 9 10 14
z" />
    <glyph glyph-name="Acircumflex" unicode="&#xc2;" horiz-adv-x="778" 
d="M18 0v42h64l281 648h37l288 -648h72v-42h-248v42h81l-68 154h-323l-65 -154h79v-42h-198zM504 244l-145 328l-137 -328h282zM264 741l96 146h58l97 -146c3 -5 7 -11 7 -17c-1 -6 -6 -7 -10 -7s-12 4 -23 14l-99 96l-101 -96c-11 -10 -19 -14 -23 -14s-9 1 -10 7
c0 6 5 12 8 17z" />
    <glyph glyph-name="Adieresis" unicode="&#xc4;" horiz-adv-x="778" 
d="M18 0v42h64l281 648h37l288 -648h72v-42h-248v42h81l-68 154h-323l-65 -154h79v-42h-198zM504 244l-145 328l-137 -328h282zM251 806c0 28 23 51 51 51s51 -23 51 -51s-23 -51 -51 -51s-51 23 -51 51zM425 806c0 28 23 51 51 51s51 -23 51 -51s-23 -51 -51 -51
s-51 23 -51 51z" />
    <glyph glyph-name="Agrave" unicode="&#xc0;" horiz-adv-x="778" 
d="M18 0v42h64l281 648h37l288 -648h72v-42h-248v42h81l-68 154h-323l-65 -154h79v-42h-198zM504 244l-145 328l-137 -328h282zM438 725l-165 97c-19 11 -23 22 -23 35c0 16 14 30 32 30c23 0 37 -16 56 -34l120 -111c5 -5 10 -9 10 -14c0 -6 -4 -10 -9 -11
c-5 -2 -11 2 -21 8z" />
    <glyph glyph-name="Aring" unicode="&#xc5;" horiz-adv-x="778" 
d="M18 0v42h64l281 648h37l288 -648h72v-42h-248v42h81l-68 154h-323l-65 -154h79v-42h-198zM504 244l-145 328l-137 -328h282zM276 807c0 56 45 101 101 101s101 -45 101 -101s-45 -101 -101 -101s-101 45 -101 101zM312 807c0 -36 29 -65 65 -65s65 29 65 65
s-29 65 -65 65s-65 -29 -65 -65z" />
    <glyph glyph-name="Atilde" unicode="&#xc3;" horiz-adv-x="778" 
d="M18 0v42h64l281 648h37l288 -648h72v-42h-248v42h81l-68 154h-323l-65 -154h79v-42h-198zM504 244l-145 328l-137 -328h282zM504 861h24c0 -56 -34 -98 -82 -98c-25 0 -47 8 -69 16s-43 16 -61 16c-25 0 -42 -14 -42 -42h-24c0 50 31 96 82 96c21 0 43 -8 64 -16
s42 -16 58 -16c28 0 50 14 50 44z" />
    <glyph glyph-name="Ccedilla" unicode="&#xc7;" horiz-adv-x="778" 
d="M448 -8l-24 -61c11 1 22 2 36 2c38 0 75 -24 75 -69c0 -64 -67 -84 -122 -84c-37 0 -73 12 -106 26l15 30c23 -12 52 -20 82 -20c32 0 59 13 59 42c0 32 -27 39 -54 39c-15 0 -26 -2 -38 -4l41 99c-206 9 -360 152 -360 349c0 219 158 349 365 349c103 0 172 -20 228 -79
v72h60v-192h-60v8c0 86 -88 149 -211 149c-176 0 -280 -130 -280 -307c0 -163 116 -307 280 -307c138 0 207 47 264 111l36 -38c-79 -84 -178 -113 -286 -115z" />
    <glyph glyph-name="Eacute" unicode="&#xc9;" horiz-adv-x="667" 
d="M23 0v42h99v598h-99v42h566v-136h-54v76h-323v-239h268v79h54v-203h-54v82h-268v-281h332v85h54v-145h-575zM265 742l120 111c19 18 33 34 56 34c18 0 32 -14 32 -30c0 -13 -4 -24 -23 -35l-165 -97c-10 -6 -16 -10 -21 -8c-5 1 -9 5 -9 11c0 5 5 9 10 14z" />
    <glyph glyph-name="Ecircumflex" unicode="&#xca;" horiz-adv-x="667" 
d="M23 0v42h99v598h-99v42h566v-136h-54v76h-323v-239h268v79h54v-203h-54v82h-268v-281h332v85h54v-145h-575zM209 741l96 146h58l97 -146c3 -5 7 -11 7 -17c-1 -6 -6 -7 -10 -7s-12 4 -23 14l-99 96l-101 -96c-11 -10 -19 -14 -23 -14s-9 1 -10 7c0 6 5 12 8 17z" />
    <glyph glyph-name="Edieresis" unicode="&#xcb;" horiz-adv-x="667" 
d="M23 0v42h99v598h-99v42h566v-136h-54v76h-323v-239h268v79h54v-203h-54v82h-268v-281h332v85h54v-145h-575zM196 806c0 28 23 51 51 51s51 -23 51 -51s-23 -51 -51 -51s-51 23 -51 51zM370 806c0 28 23 51 51 51s51 -23 51 -51s-23 -51 -51 -51s-51 23 -51 51z" />
    <glyph glyph-name="Egrave" unicode="&#xc8;" horiz-adv-x="667" 
d="M23 0v42h99v598h-99v42h566v-136h-54v76h-323v-239h268v79h54v-203h-54v82h-268v-281h332v85h54v-145h-575zM383 725l-165 97c-19 11 -23 22 -23 35c0 16 14 30 32 30c23 0 37 -16 56 -34l120 -111c5 -5 10 -9 10 -14c0 -6 -4 -10 -9 -11c-5 -2 -11 2 -21 8z" />
    <glyph glyph-name="Iacute" unicode="&#xcd;" horiz-adv-x="334" 
d="M32 0v42h90v598h-90v42h270v-42h-90v-598h90v-42h-270zM98 742l120 111c19 18 33 34 56 34c18 0 32 -14 32 -30c0 -13 -4 -24 -23 -35l-165 -97c-10 -6 -16 -10 -21 -8c-5 1 -9 5 -9 11c0 5 5 9 10 14z" />
    <glyph glyph-name="Icircumflex" unicode="&#xce;" horiz-adv-x="334" 
d="M32 0v42h90v598h-90v42h270v-42h-90v-598h90v-42h-270zM42 741l96 146h58l97 -146c3 -5 7 -11 7 -17c-1 -6 -6 -7 -10 -7s-12 4 -23 14l-99 96l-101 -96c-11 -10 -19 -14 -23 -14s-9 1 -10 7c0 6 5 12 8 17z" />
    <glyph glyph-name="Idieresis" unicode="&#xcf;" horiz-adv-x="334" 
d="M32 0v42h90v598h-90v42h270v-42h-90v-598h90v-42h-270zM29 806c0 28 23 51 51 51s51 -23 51 -51s-23 -51 -51 -51s-51 23 -51 51zM203 806c0 28 23 51 51 51s51 -23 51 -51s-23 -51 -51 -51s-51 23 -51 51z" />
    <glyph glyph-name="Igrave" unicode="&#xcc;" horiz-adv-x="334" 
d="M32 0v42h90v598h-90v42h270v-42h-90v-598h90v-42h-270zM216 725l-165 97c-19 11 -23 22 -23 35c0 16 14 30 32 30c23 0 37 -16 56 -34l120 -111c5 -5 10 -9 10 -14c0 -6 -4 -10 -9 -11c-5 -2 -11 2 -21 8z" />
    <glyph glyph-name="Ntilde" unicode="&#xd1;" horiz-adv-x="834" 
d="M32 0v42h90v598h-90v42h163l474 -520v478h-90v42h234v-42h-90v-648h-24l-523 576v-526h90v-42h-234zM532 861h24c0 -56 -34 -98 -82 -98c-25 0 -47 8 -69 16s-43 16 -61 16c-25 0 -42 -14 -42 -42h-24c0 50 31 96 82 96c21 0 43 -8 64 -16s42 -16 58 -16
c28 0 50 14 50 44z" />
    <glyph glyph-name="Oacute" unicode="&#xd3;" horiz-adv-x="834" 
d="M154 347c0 -169 82 -313 263 -313s263 144 263 313c0 158 -87 301 -263 301s-263 -143 -263 -301zM52 341c0 194 152 349 365 349c202 0 365 -130 365 -349c0 -209 -148 -349 -365 -349c-233 0 -365 147 -365 349zM348 742l120 111c19 18 33 34 56 34c18 0 32 -14 32 -30
c0 -13 -4 -24 -23 -35l-165 -97c-10 -6 -16 -10 -21 -8c-5 1 -9 5 -9 11c0 5 5 9 10 14z" />
    <glyph glyph-name="Ocircumflex" unicode="&#xd4;" horiz-adv-x="834" 
d="M154 347c0 -169 82 -313 263 -313s263 144 263 313c0 158 -87 301 -263 301s-263 -143 -263 -301zM52 341c0 194 152 349 365 349c202 0 365 -130 365 -349c0 -209 -148 -349 -365 -349c-233 0 -365 147 -365 349zM292 741l96 146h58l97 -146c3 -5 7 -11 7 -17
c-1 -6 -6 -7 -10 -7s-12 4 -23 14l-99 96l-101 -96c-11 -10 -19 -14 -23 -14s-9 1 -10 7c0 6 5 12 8 17z" />
    <glyph glyph-name="Odieresis" unicode="&#xd6;" horiz-adv-x="834" 
d="M154 347c0 -169 82 -313 263 -313s263 144 263 313c0 158 -87 301 -263 301s-263 -143 -263 -301zM52 341c0 194 152 349 365 349c202 0 365 -130 365 -349c0 -209 -148 -349 -365 -349c-233 0 -365 147 -365 349zM279 806c0 28 23 51 51 51s51 -23 51 -51
s-23 -51 -51 -51s-51 23 -51 51zM453 806c0 28 23 51 51 51s51 -23 51 -51s-23 -51 -51 -51s-51 23 -51 51z" />
    <glyph glyph-name="Ograve" unicode="&#xd2;" horiz-adv-x="834" 
d="M154 347c0 -169 82 -313 263 -313s263 144 263 313c0 158 -87 301 -263 301s-263 -143 -263 -301zM52 341c0 194 152 349 365 349c202 0 365 -130 365 -349c0 -209 -148 -349 -365 -349c-233 0 -365 147 -365 349zM466 725l-165 97c-19 11 -23 22 -23 35
c0 16 14 30 32 30c23 0 37 -16 56 -34l120 -111c5 -5 10 -9 10 -14c0 -6 -4 -10 -9 -11c-5 -2 -11 2 -21 8z" />
    <glyph glyph-name="Otilde" unicode="&#xd5;" horiz-adv-x="834" 
d="M154 347c0 -169 82 -313 263 -313s263 144 263 313c0 158 -87 301 -263 301s-263 -143 -263 -301zM52 341c0 194 152 349 365 349c202 0 365 -130 365 -349c0 -209 -148 -349 -365 -349c-233 0 -365 147 -365 349zM532 861h24c0 -56 -34 -98 -82 -98c-25 0 -47 8 -69 16
s-43 16 -61 16c-25 0 -42 -14 -42 -42h-24c0 50 31 96 82 96c21 0 43 -8 64 -16s42 -16 58 -16c28 0 50 14 50 44z" />
    <glyph glyph-name="Scaron" unicode="&#x160;" horiz-adv-x="611" 
d="M524 682v-174h-54v6c0 92 -106 134 -189 134c-72 0 -139 -31 -139 -106c0 -169 416 -113 416 -357c0 -132 -116 -193 -242 -193c-112 0 -164 25 -195 46v-38h-60v180h60v-43c0 -79 133 -102 190 -103c80 0 163 32 163 115c0 199 -416 122 -416 367c0 121 108 174 222 174
c75 0 143 -15 190 -58v50h54zM277 717l-96 146c-3 5 -8 11 -8 17c1 6 6 7 10 7s12 -4 23 -14l101 -96l99 96c11 10 19 14 23 14s9 -1 10 -7c0 -6 -4 -12 -7 -17l-97 -146h-58z" />
    <glyph glyph-name="Uacute" unicode="&#xda;" horiz-adv-x="778" 
d="M32 640v42h270v-42h-90v-372c0 -165 84 -228 196 -228c114 0 198 66 198 195v405h-84v42h228v-42h-84v-404c0 -146 -84 -244 -258 -244c-204 0 -286 92 -286 263v385h-90zM320 742l120 111c19 18 33 34 56 34c18 0 32 -14 32 -30c0 -13 -4 -24 -23 -35l-165 -97
c-10 -6 -16 -10 -21 -8c-5 1 -9 5 -9 11c0 5 5 9 10 14z" />
    <glyph glyph-name="Ucircumflex" unicode="&#xdb;" horiz-adv-x="778" 
d="M32 640v42h270v-42h-90v-372c0 -165 84 -228 196 -228c114 0 198 66 198 195v405h-84v42h228v-42h-84v-404c0 -146 -84 -244 -258 -244c-204 0 -286 92 -286 263v385h-90zM264 741l96 146h58l97 -146c3 -5 7 -11 7 -17c-1 -6 -6 -7 -10 -7s-12 4 -23 14l-99 96l-101 -96
c-11 -10 -19 -14 -23 -14s-9 1 -10 7c0 6 5 12 8 17z" />
    <glyph glyph-name="Udieresis" unicode="&#xdc;" horiz-adv-x="778" 
d="M32 640v42h270v-42h-90v-372c0 -165 84 -228 196 -228c114 0 198 66 198 195v405h-84v42h228v-42h-84v-404c0 -146 -84 -244 -258 -244c-204 0 -286 92 -286 263v385h-90zM251 806c0 28 23 51 51 51s51 -23 51 -51s-23 -51 -51 -51s-51 23 -51 51zM425 806
c0 28 23 51 51 51s51 -23 51 -51s-23 -51 -51 -51s-51 23 -51 51z" />
    <glyph glyph-name="Ugrave" unicode="&#xd9;" horiz-adv-x="778" 
d="M32 640v42h270v-42h-90v-372c0 -165 84 -228 196 -228c114 0 198 66 198 195v405h-84v42h228v-42h-84v-404c0 -146 -84 -244 -258 -244c-204 0 -286 92 -286 263v385h-90zM438 725l-165 97c-19 11 -23 22 -23 35c0 16 14 30 32 30c23 0 37 -16 56 -34l120 -111
c5 -5 10 -9 10 -14c0 -6 -4 -10 -9 -11c-5 -2 -11 2 -21 8z" />
    <glyph glyph-name="Yacute" unicode="&#xdd;" horiz-adv-x="722" 
d="M239 0v42h90v202l-231 396h-78v42h274v-42h-88l188 -333l183 333h-85v42h210v-42h-66l-217 -389v-209h90v-42h-270zM316 742l120 111c19 18 33 34 56 34c18 0 32 -14 32 -30c0 -13 -4 -24 -23 -35l-165 -97c-10 -6 -16 -10 -21 -8c-5 1 -9 5 -9 11c0 5 5 9 10 14z" />
    <glyph glyph-name="Ydieresis" unicode="&#x178;" horiz-adv-x="722" 
d="M239 0v42h90v202l-231 396h-78v42h274v-42h-88l188 -333l183 333h-85v42h210v-42h-66l-217 -389v-209h90v-42h-270zM223 806c0 28 23 51 51 51s51 -23 51 -51s-23 -51 -51 -51s-51 23 -51 51zM397 806c0 28 23 51 51 51s51 -23 51 -51s-23 -51 -51 -51s-51 23 -51 51z
" />
    <glyph glyph-name="Zcaron" unicode="&#x17d;" horiz-adv-x="667" 
d="M56 545v137h547v-18l-427 -604h389v90h60v-150h-555c-23 0 -28 0 -28 2v13c0 4 3 8 35 53l392 554h-353v-77h-60zM305 717l-96 146c-3 5 -8 11 -8 17c1 6 6 7 10 7s12 -4 23 -14l101 -96l99 96c11 10 19 14 23 14s9 -1 10 -7c0 -6 -4 -12 -7 -17l-97 -146h-58z" />
    <glyph glyph-name="aacute" unicode="&#xe1;" 
d="M445 42h81v-42h-163v59h-2c-28 -46 -82 -71 -146 -71c-98 0 -170 59 -170 165c0 104 76 166 182 166c60 0 104 -24 132 -70h2v102c0 58 -25 97 -102 97c-52 0 -101 -29 -130 -65l-43 42c52 41 107 59 180 59c92 0 179 -28 179 -148v-294zM361 115v72c0 46 -63 84 -112 84
c-63 0 -114 -47 -114 -112c0 -82 47 -123 111 -123c69 0 115 51 115 79zM209 567l120 111c19 18 33 34 56 34c18 0 32 -14 32 -30c0 -13 -4 -24 -23 -35l-165 -97c-10 -6 -16 -10 -21 -8c-5 1 -9 5 -9 11c0 5 5 9 10 14z" />
    <glyph glyph-name="acircumflex" unicode="&#xe2;" 
d="M445 42h81v-42h-163v59h-2c-28 -46 -82 -71 -146 -71c-98 0 -170 59 -170 165c0 104 76 166 182 166c60 0 104 -24 132 -70h2v102c0 58 -25 97 -102 97c-52 0 -101 -29 -130 -65l-43 42c52 41 107 59 180 59c92 0 179 -28 179 -148v-294zM361 115v72c0 46 -63 84 -112 84
c-63 0 -114 -47 -114 -112c0 -82 47 -123 111 -123c69 0 115 51 115 79zM153 566l96 146h58l97 -146c3 -5 7 -11 7 -17c-1 -6 -6 -7 -10 -7s-12 4 -23 14l-99 96l-101 -96c-11 -10 -19 -14 -23 -14s-9 1 -10 7c0 6 5 12 8 17z" />
    <glyph glyph-name="adieresis" unicode="&#xe4;" 
d="M445 42h81v-42h-163v59h-2c-28 -46 -82 -71 -146 -71c-98 0 -170 59 -170 165c0 104 76 166 182 166c60 0 104 -24 132 -70h2v102c0 58 -25 97 -102 97c-52 0 -101 -29 -130 -65l-43 42c52 41 107 59 180 59c92 0 179 -28 179 -148v-294zM361 115v72c0 46 -63 84 -112 84
c-63 0 -114 -47 -114 -112c0 -82 47 -123 111 -123c69 0 115 51 115 79zM140 631c0 28 23 51 51 51s51 -23 51 -51s-23 -51 -51 -51s-51 23 -51 51zM314 631c0 28 23 51 51 51s51 -23 51 -51s-23 -51 -51 -51s-51 23 -51 51z" />
    <glyph glyph-name="agrave" unicode="&#xe0;" 
d="M445 42h81v-42h-163v59h-2c-28 -46 -82 -71 -146 -71c-98 0 -170 59 -170 165c0 104 76 166 182 166c60 0 104 -24 132 -70h2v102c0 58 -25 97 -102 97c-52 0 -101 -29 -130 -65l-43 42c52 41 107 59 180 59c92 0 179 -28 179 -148v-294zM361 115v72c0 46 -63 84 -112 84
c-63 0 -114 -47 -114 -112c0 -82 47 -123 111 -123c69 0 115 51 115 79zM327 550l-165 97c-19 11 -23 22 -23 35c0 16 14 30 32 30c23 0 37 -16 56 -34l120 -111c5 -5 10 -9 10 -14c0 -6 -4 -10 -9 -11c-5 -2 -11 2 -21 8z" />
    <glyph glyph-name="aring" unicode="&#xe5;" 
d="M445 42h81v-42h-163v59h-2c-28 -46 -82 -71 -146 -71c-98 0 -170 59 -170 165c0 104 76 166 182 166c60 0 104 -24 132 -70h2v102c0 58 -25 97 -102 97c-52 0 -101 -29 -130 -65l-43 42c52 41 107 59 180 59c92 0 179 -28 179 -148v-294zM361 115v72c0 46 -63 84 -112 84
c-63 0 -114 -47 -114 -112c0 -82 47 -123 111 -123c69 0 115 51 115 79zM165 632c0 56 45 101 101 101s101 -45 101 -101s-45 -101 -101 -101s-101 45 -101 101zM201 632c0 -36 29 -65 65 -65s65 29 65 65s-29 65 -65 65s-65 -29 -65 -65z" />
    <glyph glyph-name="atilde" unicode="&#xe3;" 
d="M445 42h81v-42h-163v59h-2c-28 -46 -82 -71 -146 -71c-98 0 -170 59 -170 165c0 104 76 166 182 166c60 0 104 -24 132 -70h2v102c0 58 -25 97 -102 97c-52 0 -101 -29 -130 -65l-43 42c52 41 107 59 180 59c92 0 179 -28 179 -148v-294zM361 115v72c0 46 -63 84 -112 84
c-63 0 -114 -47 -114 -112c0 -82 47 -123 111 -123c69 0 115 51 115 79zM393 686h24c0 -56 -34 -98 -82 -98c-25 0 -47 8 -69 16s-43 16 -61 16c-25 0 -42 -14 -42 -42h-24c0 50 31 96 82 96c21 0 43 -8 64 -16s42 -16 58 -16c28 0 50 14 50 44z" />
    <glyph glyph-name="ccedilla" unicode="&#xe7;" horiz-adv-x="500" 
d="M297 -12l-22 -57c11 1 22 2 36 2c38 0 75 -24 75 -69c0 -64 -67 -84 -122 -84c-37 0 -73 12 -106 26l15 30c23 -12 52 -20 82 -20c32 0 59 13 59 42c0 32 -27 39 -54 39c-15 0 -26 -2 -38 -4l39 96c-132 10 -216 103 -216 238c0 145 94 257 222 257c51 0 99 -14 139 -58
h2v52h45l6 -154h-47v14c0 55 -62 98 -120 98c-110 0 -151 -103 -151 -209c0 -98 45 -197 158 -197c60 0 101 14 139 60l32 -30c-41 -54 -108 -70 -173 -72z" />
    <glyph glyph-name="eacute" unicode="&#xe9;" 
d="M503 224h-362c0 -136 69 -194 170 -194c67 0 122 35 159 90l41 -34c-44 -71 -138 -98 -217 -98c-163 0 -249 105 -249 248c0 149 100 248 233 248c119 0 225 -71 225 -235v-25zM141 266h272c0 94 -33 176 -135 176c-100 0 -137 -85 -137 -176zM209 567l120 111
c19 18 33 34 56 34c18 0 32 -14 32 -30c0 -13 -4 -24 -23 -35l-165 -97c-10 -6 -16 -10 -21 -8c-5 1 -9 5 -9 11c0 5 5 9 10 14z" />
    <glyph glyph-name="ecircumflex" unicode="&#xea;" 
d="M503 224h-362c0 -136 69 -194 170 -194c67 0 122 35 159 90l41 -34c-44 -71 -138 -98 -217 -98c-163 0 -249 105 -249 248c0 149 100 248 233 248c119 0 225 -71 225 -235v-25zM141 266h272c0 94 -33 176 -135 176c-100 0 -137 -85 -137 -176zM153 566l96 146h58l97 -146
c3 -5 7 -11 7 -17c-1 -6 -6 -7 -10 -7s-12 4 -23 14l-99 96l-101 -96c-11 -10 -19 -14 -23 -14s-9 1 -10 7c0 6 5 12 8 17z" />
    <glyph glyph-name="edieresis" unicode="&#xeb;" 
d="M503 224h-362c0 -136 69 -194 170 -194c67 0 122 35 159 90l41 -34c-44 -71 -138 -98 -217 -98c-163 0 -249 105 -249 248c0 149 100 248 233 248c119 0 225 -71 225 -235v-25zM141 266h272c0 94 -33 176 -135 176c-100 0 -137 -85 -137 -176zM140 631c0 28 23 51 51 51
s51 -23 51 -51s-23 -51 -51 -51s-51 23 -51 51zM314 631c0 28 23 51 51 51s51 -23 51 -51s-23 -51 -51 -51s-51 23 -51 51z" />
    <glyph glyph-name="egrave" unicode="&#xe8;" 
d="M503 224h-362c0 -136 69 -194 170 -194c67 0 122 35 159 90l41 -34c-44 -71 -138 -98 -217 -98c-163 0 -249 105 -249 248c0 149 100 248 233 248c119 0 225 -71 225 -235v-25zM141 266h272c0 94 -33 176 -135 176c-100 0 -137 -85 -137 -176zM327 550l-165 97
c-19 11 -23 22 -23 35c0 16 14 30 32 30c23 0 37 -16 56 -34l120 -111c5 -5 10 -9 10 -14c0 -6 -4 -10 -9 -11c-5 -2 -11 2 -21 8z" />
    <glyph glyph-name="iacute" unicode="&#xed;" horiz-adv-x="296" 
d="M19 0v42h87v388h-87v42h171v-430h87v-42h-258zM79 567l120 111c19 18 33 34 56 34c18 0 32 -14 32 -30c0 -13 -4 -24 -23 -35l-165 -97c-10 -6 -16 -10 -21 -8c-5 1 -9 5 -9 11c0 5 5 9 10 14z" />
    <glyph glyph-name="icircumflex" unicode="&#xee;" horiz-adv-x="296" 
d="M19 0v42h87v388h-87v42h171v-430h87v-42h-258zM23 566l96 146h58l97 -146c3 -5 7 -11 7 -17c-1 -6 -6 -7 -10 -7s-12 4 -23 14l-99 96l-101 -96c-11 -10 -19 -14 -23 -14s-9 1 -10 7c0 6 5 12 8 17z" />
    <glyph glyph-name="idieresis" unicode="&#xef;" horiz-adv-x="296" 
d="M19 0v42h87v388h-87v42h171v-430h87v-42h-258zM10 631c0 28 23 51 51 51s51 -23 51 -51s-23 -51 -51 -51s-51 23 -51 51zM184 631c0 28 23 51 51 51s51 -23 51 -51s-23 -51 -51 -51s-51 23 -51 51z" />
    <glyph glyph-name="igrave" unicode="&#xec;" horiz-adv-x="296" 
d="M19 0v42h87v388h-87v42h171v-430h87v-42h-258zM197 550l-165 97c-19 11 -23 22 -23 35c0 16 14 30 32 30c23 0 37 -16 56 -34l120 -111c5 -5 10 -9 10 -14c0 -6 -4 -10 -9 -11c-5 -2 -11 2 -21 8z" />
    <glyph glyph-name="ntilde" unicode="&#xf1;" horiz-adv-x="611" 
d="M106 42v388h-81v42h165v-74h2c33 61 86 86 158 86c78 0 155 -39 155 -137v-305h81v-42h-246v42h81v290c0 58 -37 98 -98 98c-79 0 -133 -65 -133 -140v-248h81v-42h-246v42h81zM421 686h24c0 -56 -34 -98 -82 -98c-25 0 -47 8 -69 16s-43 16 -61 16
c-25 0 -42 -14 -42 -42h-24c0 50 31 96 82 96c21 0 43 -8 64 -16s42 -16 58 -16c28 0 50 14 50 44z" />
    <glyph glyph-name="oacute" unicode="&#xf3;" 
d="M141 236c0 -111 33 -206 137 -206s137 95 137 206s-33 206 -137 206s-137 -95 -137 -206zM45 236c0 149 100 248 233 248s233 -99 233 -248s-100 -248 -233 -248s-233 99 -233 248zM209 567l120 111c19 18 33 34 56 34c18 0 32 -14 32 -30c0 -13 -4 -24 -23 -35l-165 -97
c-10 -6 -16 -10 -21 -8c-5 1 -9 5 -9 11c0 5 5 9 10 14z" />
    <glyph glyph-name="ocircumflex" unicode="&#xf4;" 
d="M141 236c0 -111 33 -206 137 -206s137 95 137 206s-33 206 -137 206s-137 -95 -137 -206zM45 236c0 149 100 248 233 248s233 -99 233 -248s-100 -248 -233 -248s-233 99 -233 248zM153 566l96 146h58l97 -146c3 -5 7 -11 7 -17c-1 -6 -6 -7 -10 -7s-12 4 -23 14l-99 96
l-101 -96c-11 -10 -19 -14 -23 -14s-9 1 -10 7c0 6 5 12 8 17z" />
    <glyph glyph-name="odieresis" unicode="&#xf6;" 
d="M141 236c0 -111 33 -206 137 -206s137 95 137 206s-33 206 -137 206s-137 -95 -137 -206zM45 236c0 149 100 248 233 248s233 -99 233 -248s-100 -248 -233 -248s-233 99 -233 248zM140 631c0 28 23 51 51 51s51 -23 51 -51s-23 -51 -51 -51s-51 23 -51 51zM314 631
c0 28 23 51 51 51s51 -23 51 -51s-23 -51 -51 -51s-51 23 -51 51z" />
    <glyph glyph-name="ograve" unicode="&#xf2;" 
d="M141 236c0 -111 33 -206 137 -206s137 95 137 206s-33 206 -137 206s-137 -95 -137 -206zM45 236c0 149 100 248 233 248s233 -99 233 -248s-100 -248 -233 -248s-233 99 -233 248zM327 550l-165 97c-19 11 -23 22 -23 35c0 16 14 30 32 30c23 0 37 -16 56 -34l120 -111
c5 -5 10 -9 10 -14c0 -6 -4 -10 -9 -11c-5 -2 -11 2 -21 8z" />
    <glyph glyph-name="otilde" unicode="&#xf5;" 
d="M141 236c0 -111 33 -206 137 -206s137 95 137 206s-33 206 -137 206s-137 -95 -137 -206zM45 236c0 149 100 248 233 248s233 -99 233 -248s-100 -248 -233 -248s-233 99 -233 248zM393 686h24c0 -56 -34 -98 -82 -98c-25 0 -47 8 -69 16s-43 16 -61 16
c-25 0 -42 -14 -42 -42h-24c0 50 31 96 82 96c21 0 43 -8 64 -16s42 -16 58 -16c28 0 50 14 50 44z" />
    <glyph glyph-name="scaron" unicode="&#x161;" horiz-adv-x="444" 
d="M49 0v132h50v-22c0 -38 63 -80 127 -80c35 0 91 22 91 77c0 127 -272 55 -272 241c0 91 71 136 159 136c43 0 97 -20 115 -52h2v40h48v-114h-50v23c0 23 -49 61 -112 61c-52 0 -90 -22 -90 -71c0 -117 278 -54 278 -236c0 -91 -77 -147 -160 -147c-53 0 -102 15 -136 60
h-2v-48h-48zM193 542l-96 146c-3 5 -8 11 -8 17c1 6 6 7 10 7s12 -4 23 -14l101 -96l99 96c11 10 19 14 23 14s9 -1 10 -7c0 -6 -4 -12 -7 -17l-97 -146h-58z" />
    <glyph glyph-name="uacute" unicode="&#xfa;" horiz-adv-x="611" 
d="M505 472v-430h81v-42h-165v68h-2c-33 -55 -86 -80 -155 -80c-96 0 -158 45 -158 147v295h-81v42h165v-324c0 -77 38 -112 100 -112c88 0 131 63 131 128v266h-81v42h165zM237 567l120 111c19 18 33 34 56 34c18 0 32 -14 32 -30c0 -13 -4 -24 -23 -35l-165 -97
c-10 -6 -16 -10 -21 -8c-5 1 -9 5 -9 11c0 5 5 9 10 14z" />
    <glyph glyph-name="ucircumflex" unicode="&#xfb;" horiz-adv-x="611" 
d="M505 472v-430h81v-42h-165v68h-2c-33 -55 -86 -80 -155 -80c-96 0 -158 45 -158 147v295h-81v42h165v-324c0 -77 38 -112 100 -112c88 0 131 63 131 128v266h-81v42h165zM181 566l96 146h58l97 -146c3 -5 7 -11 7 -17c-1 -6 -6 -7 -10 -7s-12 4 -23 14l-99 96l-101 -96
c-11 -10 -19 -14 -23 -14s-9 1 -10 7c0 6 5 12 8 17z" />
    <glyph glyph-name="udieresis" unicode="&#xfc;" horiz-adv-x="611" 
d="M505 472v-430h81v-42h-165v68h-2c-33 -55 -86 -80 -155 -80c-96 0 -158 45 -158 147v295h-81v42h165v-324c0 -77 38 -112 100 -112c88 0 131 63 131 128v266h-81v42h165zM168 631c0 28 23 51 51 51s51 -23 51 -51s-23 -51 -51 -51s-51 23 -51 51zM342 631
c0 28 23 51 51 51s51 -23 51 -51s-23 -51 -51 -51s-51 23 -51 51z" />
    <glyph glyph-name="ugrave" unicode="&#xf9;" horiz-adv-x="611" 
d="M505 472v-430h81v-42h-165v68h-2c-33 -55 -86 -80 -155 -80c-96 0 -158 45 -158 147v295h-81v42h165v-324c0 -77 38 -112 100 -112c88 0 131 63 131 128v266h-81v42h165zM355 550l-165 97c-19 11 -23 22 -23 35c0 16 14 30 32 30c23 0 37 -16 56 -34l120 -111
c5 -5 10 -9 10 -14c0 -6 -4 -10 -9 -11c-5 -2 -11 2 -21 8z" />
    <glyph glyph-name="yacute" unicode="&#xfd;" 
d="M89 -220v42h81l76 179l-180 429h-57v42h222v-42h-79l137 -334l137 334h-81v42h190v-42h-55l-256 -608h81v-42h-216zM209 567l120 111c19 18 33 34 56 34c18 0 32 -14 32 -30c0 -13 -4 -24 -23 -35l-165 -97c-10 -6 -16 -10 -21 -8c-5 1 -9 5 -9 11c0 5 5 9 10 14z" />
    <glyph glyph-name="ydieresis" unicode="&#xff;" 
d="M89 -220v42h81l76 179l-180 429h-57v42h222v-42h-79l137 -334l137 334h-81v42h190v-42h-55l-256 -608h81v-42h-216zM140 631c0 28 23 51 51 51s51 -23 51 -51s-23 -51 -51 -51s-51 23 -51 51zM314 631c0 28 23 51 51 51s51 -23 51 -51s-23 -51 -51 -51s-51 23 -51 51z
" />
    <glyph glyph-name="zcaron" unicode="&#x17e;" horiz-adv-x="500" 
d="M44 334v138h405v-18l-300 -412h243v95h54v-137h-407c-8 0 -11 0 -11 2v12c0 5 4 10 21 32l284 384h-235v-96h-54zM221 542l-96 146c-3 5 -8 11 -8 17c1 6 6 7 10 7s12 -4 23 -14l101 -96l99 96c11 10 19 14 23 14s9 -1 10 -7c0 -6 -4 -12 -7 -17l-97 -146h-58z" />
    <glyph glyph-name="Omega" unicode="&#x2126;" horiz-adv-x="728" 
d="M693 139l-25 -139h-235l-7 19c43 78 131 203 130 346c0 207 -96 280 -194 280c-105 0 -192 -76 -192 -285c0 -137 75 -251 128 -341l-8 -19h-233l-23 139l24 1c21 -63 36 -74 76 -74h105c-63 53 -167 146 -167 301c0 188 128 308 293 308c167 0 288 -113 288 -300
c0 -137 -96 -238 -170 -309h110c42 0 53 8 74 74z" />
    <glyph glyph-name="uni03BC" unicode="&#x3bc;" horiz-adv-x="611" 
d="M505 472v-430h81v-42h-165v68h-2c-33 -55 -86 -80 -155 -80c-30 0 -60 5 -86 21c0 -76 9 -126 9 -178c0 -34 -18 -51 -45 -51s-45 17 -45 51c0 52 9 102 9 174v425h-81v42h165v-335c0 -58 33 -101 100 -101c88 0 131 63 131 128v266h-81v42h165z" />
    <glyph glyph-name="pi" unicode="&#x3c0;" horiz-adv-x="560" 
d="M508 460l23 -9c-7 -37 -22 -70 -35 -87c-16 -4 -40 -5 -68 -5c-5 -59 -4 -158 -4 -227c0 -57 13 -88 44 -88c20 0 32 11 49 30l12 -20c-25 -45 -65 -66 -101 -66c-51 0 -88 26 -88 124c0 89 6 174 11 250c-59 1 -117 2 -157 2v-18c0 -221 -50 -324 -65 -341
c-17 -7 -42 -15 -58 -17l-6 17c73 89 92 261 92 360c-66 0 -91 -18 -127 -45l-14 22c30 35 66 89 167 88c72 0 170 -3 266 -3c29 0 42 5 59 33z" />
    <glyph glyph-name="Euro" unicode="&#x20ac;" 
d="M520 683v-170h-60v8c0 83 -40 122 -103 122c-110 0 -162 -102 -176 -247h273l-15 -36h-259c-1 -9 -1 -14 -1 -23v-26h236l-15 -36h-219c11 -153 82 -240 178 -240c53 0 81 11 116 54l30 -38c-26 -32 -73 -58 -166 -58c-144 0 -235 112 -251 282h-68l15 36h49
c-1 9 -1 19 -1 28c0 7 0 13 1 21h-64l15 36h52c19 164 94 286 252 286c61 0 97 -12 121 -34v35h60z" />
    <glyph glyph-name="afii61289" unicode="&#x2113;" horiz-adv-x="405" 
d="M368 120l19 -17c-38 -71 -92 -109 -164 -109c-46 0 -78 13 -99 38c-22 27 -34 60 -34 141v77l-60 -43l-12 23l72 56v124c0 158 9 211 51 259c26 32 55 46 86 46c60 0 89 -60 89 -128c0 -114 -62 -202 -146 -286v-88c0 -129 33 -165 89 -165c47 0 82 32 109 72zM170 468
v-123c55 64 95 152 95 240c0 56 -15 100 -46 100c-37 0 -49 -58 -49 -217z" />
    <glyph glyph-name="estimated" unicode="&#x212e;" horiz-adv-x="831" 
d="M798 327h-620c-3 0 -5 -1 -5 -4v-188c0 -8 3 -15 8 -21c60 -62 143 -102 234 -102c99 0 187 45 247 114h55c-68 -80 -179 -133 -303 -133c-211 0 -382 153 -382 343c0 191 171 344 382 344c212 0 384 -153 384 -344v-9zM657 351v189c0 8 -3 16 -9 22
c-60 59 -142 98 -233 98c-90 0 -173 -40 -233 -101c-6 -6 -9 -14 -9 -23v-185c0 -2 2 -6 5 -6h475c3 0 4 4 4 6z" />
    <glyph glyph-name="partialdiff" unicode="&#x2202;" horiz-adv-x="525" 
d="M259 423h1c46 0 103 -22 135 -70c4 32 7 66 8 103c2 49 -5 103 -26 153c-20 45 -69 94 -130 94c-52 0 -101 -28 -137 -57c-15 -2 -39 38 -29 61c33 21 80 40 140 40c94 0 158 -51 204 -137c40 -74 49 -166 49 -224c0 -73 -12 -170 -48 -244c-41 -88 -106 -148 -202 -148
c-109 0 -181 74 -181 196c0 67 26 124 58 160c36 42 96 73 158 73zM281 384h-1c-40 0 -77 -14 -108 -57c-31 -45 -44 -111 -44 -177c-1 -70 35 -126 96 -126c54 0 92 52 115 101c28 59 38 109 49 187c-12 27 -54 72 -107 72z" />
    <glyph glyph-name="product" unicode="&#x220f;" horiz-adv-x="678" 
d="M650 668v-25c-85 -7 -90 -13 -90 -68v-556c0 -63 7 -70 88 -77v-25h-255v25c78 6 83 10 83 77v585c0 28 -6 31 -35 31h-207c-28 0 -33 -3 -33 -28v-588c0 -62 0 -70 76 -77v-25h-247v25c79 7 87 13 87 77v556c0 56 -6 61 -91 68v25h624z" />
    <glyph glyph-name="summation" unicode="&#x2211;" horiz-adv-x="548" 
d="M524 97l-42 -183h-454v23l221 334l-216 373v24h448c1 -18 8 -95 13 -158l-27 -6c-8 48 -20 81 -33 101c-13 23 -28 31 -102 31h-193l184 -311l-221 -338h258c86 0 97 5 138 117z" />
    <glyph glyph-name="uni2219" unicode="&#x2219;" horiz-adv-x="278" 
d="M76 299c0 35 28 63 63 63s63 -28 63 -63s-28 -63 -63 -63s-63 28 -63 63z" />
    <glyph glyph-name="radical" unicode="&#x221a;" horiz-adv-x="542" 
d="M525 854l-163 -995l-21 -11l-214 531l-86 -42l-11 32l153 72l167 -427h2l135 850z" />
    <glyph glyph-name="infinity" unicode="&#x221e;" horiz-adv-x="739" 
d="M691 276v-1c0 -96 -72 -156 -148 -156c-58 0 -107 33 -173 112c-50 -59 -101 -112 -178 -112c-78 0 -145 64 -145 152c0 90 65 155 152 155c71 0 125 -50 175 -111c45 51 94 111 175 111c83 0 142 -61 142 -150zM198 171h2c58 0 103 56 141 98c-41 52 -81 106 -147 106
c-58 0 -93 -47 -93 -105c0 -54 40 -99 97 -99zM544 375h-1c-62 0 -110 -67 -142 -101c61 -71 95 -103 145 -103c58 0 90 53 90 100c0 64 -38 104 -92 104z" />
    <glyph glyph-name="integral" unicode="&#x222b;" horiz-adv-x="366" 
d="M158 14l-19 396c-16 331 65 404 148 404c25 0 58 -14 59 -44c0 -28 -21 -43 -42 -43c-32 0 -29 46 -52 46c-20 0 -46 -30 -40 -163l17 -371c17 -349 -63 -431 -149 -431c-35 0 -59 22 -59 46c-1 26 23 45 49 45c27 0 27 -48 48 -48c30 0 45 65 40 163z" />
    <glyph glyph-name="approxequal" unicode="&#x2248;" horiz-adv-x="534" 
d="M457 417l35 -32c-28 -52 -69 -92 -126 -92c-39 0 -66 14 -110 39c-28 17 -55 32 -87 32c-43 0 -69 -33 -93 -70l-36 31c28 55 79 92 135 92c46 0 79 -23 105 -37c34 -19 55 -33 87 -33c38 0 63 25 90 70zM457 250l35 -31c-28 -52 -68 -93 -126 -93c-39 0 -67 15 -110 39
c-29 17 -56 32 -86 32c-45 0 -71 -34 -94 -70l-36 31c28 55 79 92 135 92c47 0 79 -22 105 -36c30 -17 53 -34 87 -34c39 0 62 25 90 70z" />
    <glyph glyph-name="notequal" unicode="&#x2260;" horiz-adv-x="534" 
d="M384 481l-41 -89h143v-55h-165l-61 -135h226v-54h-249l-50 -111l-43 19l41 92h-138v54h161l61 135h-222v55h244l49 109z" />
    <glyph glyph-name="lessequal" unicode="&#x2264;" horiz-adv-x="534" 
d="M484 95l-431 213v58l431 213v-64l-374 -176v-2l374 -178v-64zM487 2h-439v56h439v-56z" />
    <glyph glyph-name="greaterequal" unicode="&#x2265;" horiz-adv-x="534" 
d="M54 579l431 -213v-58l-431 -213v64l372 177v2l-372 177v64zM485 2h-436v56h436v-56z" />
    <glyph glyph-name="lozenge" unicode="&#x25ca;" horiz-adv-x="549" 
d="M502 321l-195 -389h-64l-196 389l197 392h63zM440 321l-163 332h-3l-164 -331l164 -333h3z" />
    <glyph glyph-name="uni00A0" unicode="&#xa0;" horiz-adv-x="278" 
 />
    <glyph glyph-name="uni00AD" unicode="&#xad;" horiz-adv-x="389" 
d="M68 195v84h253v-84h-253z" />
    <glyph glyph-name="uni02C9" unicode="&#x2c9;" horiz-adv-x="278" 
d="M0 612v48h278v-48h-278z" />
    <glyph glyph-name="uni03A9" unicode="&#x3a9;" horiz-adv-x="728" 
d="M693 139l-25 -139h-235l-7 19c43 78 131 203 130 346c0 207 -96 280 -194 280c-105 0 -192 -76 -192 -285c0 -137 75 -251 128 -341l-8 -19h-233l-23 139l24 1c21 -63 36 -74 76 -74h105c-63 53 -167 146 -167 301c0 188 128 308 293 308c167 0 288 -113 288 -300
c0 -137 -96 -238 -170 -309h110c42 0 53 8 74 74z" />
    <glyph glyph-name="uni2215" unicode="&#x2215;" horiz-adv-x="167" 
d="M285 702h48l-451 -730h-48z" />
    <glyph glyph-name="a.superior" horiz-adv-x="361" 
d="M233 545v45c0 39 -16 62 -66 62c-36 0 -66 -9 -85 -30l-28 25c34 25 70 35 123 35c60 0 122 -16 122 -99v-162h41v-30h-106v32h-2c-17 -23 -52 -38 -97 -38c-71 0 -117 35 -117 99c0 62 49 99 121 99c46 0 74 -14 93 -38l-1 -2l2 -2v4zM233 461v43c0 26 -41 49 -70 49
c-45 0 -73 -27 -73 -66c0 -49 30 -72 71 -72c42 0 72 29 72 46z" />
    <glyph glyph-name="o.superior" horiz-adv-x="361" 
d="M92 534c0 -67 21 -119 89 -119c67 0 88 52 88 119c0 66 -21 118 -88 118c-68 0 -89 -52 -89 -118zM20 534c0 89 65 148 161 148c95 0 160 -59 160 -148c0 -90 -65 -149 -160 -149c-96 0 -161 59 -161 149z" />
    <glyph glyph-name="one.superior" horiz-adv-x="361" 
d="M91 276v30h70v313l-72 -50l-21 24l117 89h36v-376h72v-30h-202z" />
    <glyph glyph-name="two.superior" horiz-adv-x="361" 
d="M287 330v34h42v-88h-288c-5 0 -8 5 -8 10s3 9 8 14l129 126c56 58 77 92 77 151c0 48 -25 75 -74 75c-58 0 -81 -41 -81 -88h-60c0 79 52 118 147 118c88 0 140 -33 140 -108c0 -58 -41 -96 -81 -134l-115 -110h164z" />
    <glyph glyph-name="three.superior" horiz-adv-x="361" 
d="M151 468v36h20c50 0 82 24 82 76c0 43 -22 72 -70 72c-53 0 -73 -23 -73 -69h-60c0 66 61 99 139 99c67 0 130 -26 130 -97c0 -51 -37 -85 -90 -96v-2c61 -5 103 -53 103 -107c0 -80 -81 -112 -158 -112c-74 0 -139 28 -145 101h66c0 -48 26 -71 82 -71c60 0 83 36 83 84
c0 63 -36 86 -94 86h-15z" />
    <glyph glyph-name="uni2206" unicode="&#x2206;" horiz-adv-x="629" 
d="M593 0h-559v24l257 639l38 11l264 -650v-24zM487 45l-202 509l-197 -509h399z" />
    <glyph glyph-name="uni2010" unicode="&#x2010;" horiz-adv-x="389" 
d="M68 195v84h253v-84h-253z" />
    </font>
</defs>
</svg>
