<?xml version="1.0" standalone="no"?>
<!DOCTYPE svg PUBLIC "-//W3C//DTD SVG 1.1//EN" "http://www.w3.org/Graphics/SVG/1.1/DTD/svg11.dtd" >
<svg xmlns="http://www.w3.org/2000/svg" xmlns:xlink="http://www.w3.org/1999/xlink" version="1.1">
<metadata>
Created by FontForge 20141024 at Sat Nov  8 03:34:14 2014
 By Jimmy Warting
 Copyright (c) 1989, 2002 Fundicion Tipografica Neufville S. A.
 This record material and the data recorded thereon is the property of
 Fundicion Tipografica Neufville S. A. and Adobe Systems Incorporated,
 or its licensors, and may not be reproduced, used, displayed, modified,
 disclosed or transferred in any manner without the express written
 approval of Fundicion Tipografica Neufville S. A. and Adobe Systems
 Incorporated. 
</metadata>
<defs>
<font id="CandidaStd-Bold" horiz-adv-x="556" >
  <font-face 
    font-family="Candida Std"
    font-weight="700"
    font-stretch="normal"
    units-per-em="1000"
    panose-1="2 6 8 3 6 5 5 2 2 4"
    ascent="690"
    descent="-310"
    x-height="486"
    cap-height="682"
    bbox="-168 -226 1000 911"
    underline-thickness="50"
    underline-position="-50"
    stemh="30"
    stemv="140"
    unicode-range="U+0020-FB02"
  />
<missing-glyph horiz-adv-x="500" 
d="M0 0v700h500v-700h-500zM250 395l170 255h-340zM280 350l170 -255v510zM80 50h340l-170 255zM50 605v-510l170 255z" />
    <glyph glyph-name="f_i" unicode="fi" horiz-adv-x="611" 
d="M31 0v54h66v378h-66v54h66c-3 20 -4 41 -4 61c0 92 59 143 131 143c43 0 90 -25 101 -36l-48 -86h-6c-12 11 -39 26 -64 26c-28 0 -54 -20 -54 -47c0 -38 34 -61 98 -61h263v-432h66v-54h-254v54h48v378h-137v-378h48v-54h-254zM438 540c-41 0 -77 34 -77 75s36 75 77 75
c42 0 76 -34 76 -75s-34 -75 -76 -75z" />
    <glyph glyph-name="f_l" unicode="fl" horiz-adv-x="611" 
d="M31 0v54h66v378h-66v54h66c-3 20 -4 41 -4 61c0 92 59 143 131 143c35 0 73 -17 90 -28v20h200v-628h66v-54h-254v54h48v574h-60v6h-2l-35 -66h-6c-12 11 -39 26 -64 26c-28 0 -54 -20 -54 -47c0 -38 34 -61 98 -61h68v-54h-82v-378h48v-54h-254z" />
    <glyph glyph-name=".notdef" horiz-adv-x="500" 
d="M0 0v700h500v-700h-500zM250 395l170 255h-340zM280 350l170 -255v510zM80 50h340l-170 255zM50 605v-510l170 255z" />
    <glyph glyph-name="space" unicode=" " horiz-adv-x="278" 
 />
    <glyph glyph-name="exclam" unicode="!" horiz-adv-x="334" 
d="M212 190h-88c-1 91 -27 406 -44 500l174 -8c-22 -114 -42 -327 -42 -492zM86 73c0 45 36 81 81 81s81 -36 81 -81s-36 -81 -81 -81s-81 36 -81 81z" />
    <glyph glyph-name="quotedbl" unicode="&#x22;" 
d="M134 430v252h102v-252h-102zM320 430v252h102v-252h-102z" />
    <glyph glyph-name="numbersign" unicode="#" 
d="M28 189v90h101l17 116h-90v90h102l27 189h90l-27 -189h101l27 189h90l-28 -189h90v-90h-101l-17 -116h90v-90h-102l-27 -189h-90l27 189h-101l-27 -189h-90l27 189h-89zM320 279l17 116h-101l-17 -116h101z" />
    <glyph glyph-name="dollar" unicode="$" 
d="M234 445v189c-48 -4 -99 -32 -99 -86c0 -50 42 -79 99 -103zM294 252v-212c56 3 115 37 115 98c0 60 -50 88 -115 114zM31 0v180h66c0 -76 60 -127 137 -140v235c-103 37 -213 85 -213 226c0 120 104 175 213 181v44h60v-44c41 -5 84 -21 117 -50l23 42h59v-180h-66
c0 84 -60 131 -133 140v-213c111 -42 241 -87 241 -222c0 -133 -92 -207 -241 -207v-68h-60v68c-57 8 -96 23 -123 48l-20 -40h-60z" />
    <glyph glyph-name="percent" unicode="%" horiz-adv-x="1000" 
d="M202 517c0 -102 29 -129 69 -129c41 0 69 44 69 129c0 102 -28 129 -69 129c-40 0 -69 -44 -69 -129zM100 517c0 96 77 165 171 165c111 0 171 -69 171 -165s-76 -165 -171 -165c-110 0 -171 69 -171 165zM558 157c0 96 77 165 171 165c111 0 171 -69 171 -165
s-76 -165 -171 -165c-110 0 -171 69 -171 165zM660 157c0 -102 29 -129 69 -129c41 0 69 44 69 129c0 102 -28 129 -69 129c-40 0 -69 -44 -69 -129zM304 -25h-62l431 724h62z" />
    <glyph glyph-name="ampersand" unicode="&#x26;" horiz-adv-x="722" 
d="M442 0l-22 35c-49 -32 -100 -43 -166 -43c-120 0 -185 100 -185 169c0 82 54 152 168 207c-26 44 -50 100 -50 140c0 84 70 141 153 141c79 0 139 -48 139 -134c0 -75 -63 -120 -92 -141l112 -199c37 35 49 138 49 156l96 21c0 -73 -62 -178 -117 -228l39 -70h78v-54
h-202zM395 79l-131 235c-43 -28 -69 -57 -69 -104c0 -68 51 -146 126 -146c23 0 52 4 74 15zM307 544c0 -31 34 -87 49 -117c30 18 63 49 63 90c0 45 -31 72 -65 72c-26 0 -47 -16 -47 -45z" />
    <glyph glyph-name="quoteright" unicode="&#x2019;" horiz-adv-x="278" 
d="M88 430v252h156l-84 -252h-72z" />
    <glyph glyph-name="parenleft" unicode="(" horiz-adv-x="334" 
d="M282 682v-54c-71 -17 -71 -99 -71 -191v-404c0 -92 0 -174 71 -191v-54c-182 32 -224 296 -224 447s42 415 224 447z" />
    <glyph glyph-name="parenright" unicode=")" horiz-adv-x="334" 
d="M52 -212v54c71 17 71 99 71 191v404c0 92 0 174 -71 191v54c182 -32 224 -296 224 -447s-42 -415 -224 -447z" />
    <glyph glyph-name="asterisk" unicode="*" horiz-adv-x="444" 
d="M215 346l-40 88l-97 -8l-6 10l58 78l-58 77l6 11l97 -8l40 88h13l41 -88l97 8l6 -11l-58 -77l58 -78l-6 -10l-97 8l-41 -88h-13z" />
    <glyph glyph-name="plus" unicode="+" horiz-adv-x="600" 
d="M249 0v202h-202v102h202v202h102v-202h202v-102h-202v-202h-102z" />
    <glyph glyph-name="comma" unicode="," horiz-adv-x="278" 
d="M76 -126v270h162l-90 -270h-72z" />
    <glyph glyph-name="hyphen" unicode="-" horiz-adv-x="389" 
d="M56 183v108h277v-108h-277z" />
    <glyph glyph-name="period" unicode="." horiz-adv-x="278" 
d="M55 76c0 46 38 84 84 84s84 -38 84 -84s-38 -84 -84 -84s-84 38 -84 84z" />
    <glyph glyph-name="slash" unicode="/" horiz-adv-x="389" 
d="M16 -8l254 698h103l-254 -698h-103z" />
    <glyph glyph-name="zero" unicode="0" 
d="M200 433v-192c0 -154 23 -201 78 -201s78 47 78 201v192c0 154 -23 201 -78 201s-78 -47 -78 -201zM509 337c0 -184 -77 -345 -231 -345s-231 161 -231 345s77 345 231 345s231 -161 231 -345z" />
    <glyph glyph-name="one" unicode="1" 
d="M120 0v60h94v496c-28 -26 -57 -49 -87 -70l-37 44c52 35 142 111 181 152h89v-622h94v-60h-334z" />
    <glyph glyph-name="two" unicode="2" 
d="M416 108v66h60v-174h-448c-6 0 -8 3 -8 7s2 7 5 10l68 81c140 171 231 278 231 411c0 62 -23 125 -84 125c-67 0 -81 -78 -81 -132h-132c0 122 95 180 226 180c116 0 224 -53 224 -190c0 -116 -120 -216 -198 -293l-97 -91h234z" />
    <glyph glyph-name="three" unicode="3" 
d="M192 338v56c14 -1 30 -2 49 -2c80 0 92 55 92 125c0 62 -14 117 -79 117c-70 0 -77 -91 -77 -145h-120c0 138 89 193 216 193c104 0 200 -52 200 -167c0 -73 -40 -126 -110 -146v-2c82 -17 125 -88 125 -169c0 -139 -110 -206 -241 -206c-146 0 -224 71 -224 210h126
c0 -55 7 -162 96 -162c86 0 90 97 90 160c0 82 -14 138 -123 138h-20z" />
    <glyph glyph-name="four" unicode="4" 
d="M279 247v279h-2l-156 -279h158zM207 0v60h72v109h-258v12l283 501h115v-435h72v-78h-72v-109h72v-60h-284z" />
    <glyph glyph-name="five" unicode="5" 
d="M22 193h134c-1 -6 -2 -17 -2 -32c0 -46 23 -121 85 -121c80 0 94 99 94 163c0 81 -18 163 -117 163c-47 0 -84 -16 -122 -42l-13 12l88 338h304l-34 -120h-225c-17 0 -22 -8 -25 -18l-36 -130h2c33 18 65 26 119 26c132 0 212 -82 212 -217c0 -146 -106 -223 -245 -223
c-118 0 -219 72 -219 201z" />
    <glyph glyph-name="six" unicode="6" 
d="M475 531h-120c0 48 -14 103 -71 103c-81 0 -86 -144 -89 -234h2c11 21 46 61 124 61c116 0 193 -94 193 -217c0 -163 -100 -252 -232 -252c-188 0 -240 184 -240 323c0 141 46 367 249 367c107 0 184 -52 184 -151zM361 217c0 115 -23 178 -83 178s-83 -63 -83 -178
c0 -114 23 -177 83 -177s83 63 83 177z" />
    <glyph glyph-name="seven" unicode="7" 
d="M118 481h-66v193h455l6 -12l-119 -306h70l-20 -60h-74l-107 -296h-148l-6 12l134 284h-97l25 60h102l93 204h-248v-79z" />
    <glyph glyph-name="eight" unicode="8" 
d="M278 682c117 0 222 -58 222 -182c0 -74 -48 -126 -109 -143v-2c80 -15 120 -91 120 -169c0 -108 -85 -194 -233 -194s-233 86 -233 194c0 78 40 154 120 169v2c-61 17 -109 69 -109 143c0 124 105 182 222 182zM278 335c-69 0 -80 -76 -80 -147c0 -80 14 -148 80 -148
s80 68 80 148c0 71 -11 147 -80 147zM278 634c-66 0 -76 -75 -76 -125c0 -74 25 -126 76 -126s76 52 76 126c0 50 -10 125 -76 125z" />
    <glyph glyph-name="nine" unicode="9" 
d="M81 143h120c0 -48 14 -103 71 -103c81 0 86 144 89 234h-2c-5 -10 -17 -26 -37 -38c-20 -13 -48 -23 -87 -23c-116 0 -193 94 -193 217c0 163 100 252 232 252c188 0 240 -184 240 -323c0 -141 -46 -367 -249 -367c-107 0 -184 52 -184 151zM195 453
c0 -117 14 -180 83 -180c57 0 83 63 83 180c0 118 -23 181 -83 181s-83 -63 -83 -181z" />
    <glyph glyph-name="colon" unicode=":" horiz-adv-x="278" 
d="M55 402c0 46 38 84 84 84s84 -38 84 -84s-38 -84 -84 -84s-84 38 -84 84zM55 76c0 46 38 84 84 84s84 -38 84 -84s-38 -84 -84 -84s-84 38 -84 84z" />
    <glyph glyph-name="semicolon" unicode=";" horiz-adv-x="278" 
d="M76 -126v270h162l-90 -270h-72zM55 402c0 46 38 84 84 84s84 -38 84 -84s-38 -84 -84 -84s-84 38 -84 84z" />
    <glyph glyph-name="less" unicode="&#x3c;" horiz-adv-x="600" 
d="M553 514v-102l-374 -159l374 -159v-102l-506 216v90z" />
    <glyph glyph-name="equal" unicode="=" horiz-adv-x="600" 
d="M47 309v102h506v-102h-506zM47 95v102h506v-102h-506z" />
    <glyph glyph-name="greater" unicode="&#x3e;" horiz-adv-x="600" 
d="M47 412v102l506 -216v-90l-506 -216v102l374 159z" />
    <glyph glyph-name="question" unicode="?" horiz-adv-x="444" 
d="M283 293l73 -46c-15 -45 -64 -72 -112 -72c-70 0 -131 47 -131 120c0 139 163 188 163 291c0 33 -20 56 -56 56c-55 0 -67 -61 -52 -106h-108c0 92 58 154 153 154c91 0 171 -38 171 -140c0 -129 -175 -214 -175 -288c0 -25 12 -39 32 -39c25 0 39 17 42 70zM148 65
c0 41 32 73 73 73s73 -32 73 -73s-32 -73 -73 -73s-73 32 -73 73z" />
    <glyph glyph-name="at" unicode="@" horiz-adv-x="800" 
d="M492 401c0 42 -9 64 -40 64c-58 0 -120 -72 -120 -189c0 -44 16 -64 47 -64c49 0 113 116 113 189zM607 509l-55 -213c-5 -20 -12 -45 -12 -63c0 -20 9 -33 30 -33c53 0 106 88 106 191c0 131 -102 233 -268 233c-113 0 -260 -85 -260 -309c0 -145 134 -257 270 -257
c93 0 148 24 208 53l10 -56c-64 -35 -135 -63 -217 -63c-273 0 -367 198 -367 333c0 218 150 365 356 365c194 0 340 -115 340 -298c0 -111 -65 -240 -190 -240c-70 0 -95 57 -95 72h-2c-7 -16 -57 -72 -120 -72c-47 0 -99 27 -99 123c0 99 68 250 205 250
c49 0 57 -25 71 -46l10 30h79z" />
    <glyph glyph-name="A" unicode="A" horiz-adv-x="778" 
d="M13 0v60h55l256 622h102l273 -622h66v-60h-309v60h78l-54 122h-295l-51 -122h77v-60h-198zM455 242l-126 296l-120 -296h246z" />
    <glyph glyph-name="B" unicode="B" horiz-adv-x="667" 
d="M264 622v-233h56c73 0 116 51 116 119c0 74 -51 114 -119 114h-53zM30 0v60h81v562h-81v60h340c122 0 219 -60 219 -166c0 -78 -57 -141 -145 -147v-2c60 -5 168 -63 168 -169c0 -132 -119 -198 -236 -198h-346zM264 335v-275h32c94 0 154 21 154 138
c0 92 -58 137 -136 137h-50z" />
    <glyph glyph-name="C" unicode="C" horiz-adv-x="778" 
d="M709 682v-198h-65c-21 88 -96 146 -205 146c-168 0 -217 -158 -217 -297c0 -161 99 -287 250 -287c84 0 156 43 212 113h9l41 -39v-8c-116 -109 -214 -120 -294 -120c-262 0 -392 167 -392 349s142 349 369 349c77 0 138 -15 197 -68l35 60h60z" />
    <glyph glyph-name="D" unicode="D" horiz-adv-x="778" 
d="M264 622v-562h38c196 0 244 152 244 278c0 178 -76 284 -251 284h-31zM30 0v60h81v562h-81v60h328c227 0 362 -134 362 -341c0 -197 -136 -341 -362 -341h-328z" />
    <glyph glyph-name="E" unicode="E" horiz-adv-x="667" 
d="M35 0v60h81v562h-81v60h552v-145h-66v73h-252v-220h220v71h66v-202h-66v77h-220v-264h268v75h66v-147h-568z" />
    <glyph glyph-name="F" unicode="F" horiz-adv-x="611" 
d="M35 0v60h81v562h-81v60h549v-145h-66v73h-249v-220h225v71h66v-202h-66v77h-225v-276h97v-60h-331z" />
    <glyph glyph-name="G" unicode="G" horiz-adv-x="833" 
d="M727 682v-198h-66c-25 95 -110 152 -215 152c-144 0 -224 -119 -224 -293c0 -141 67 -303 230 -303c74 0 162 44 162 115v93h-97v60h243v-308h-50l-56 53c-58 -39 -118 -61 -218 -61c-256 0 -388 167 -388 349s135 349 384 349c94 0 155 -25 208 -62l27 54h60z" />
    <glyph glyph-name="H" unicode="H" horiz-adv-x="833" 
d="M30 0v60h81v562h-81v60h315v-60h-81v-232h305v232h-81v60h315v-60h-81v-562h81v-60h-315v60h81v276h-305v-276h81v-60h-315z" />
    <glyph glyph-name="I" unicode="I" horiz-adv-x="389" 
d="M37 0v60h81v562h-81v60h315v-60h-81v-562h81v-60h-315z" />
    <glyph glyph-name="J" unicode="J" horiz-adv-x="500" 
d="M163 622v60h315v-60h-81v-436c0 -144 -84 -194 -202 -194c-125 0 -187 66 -187 189h132v-22c0 -72 11 -107 53 -107c39 0 51 34 51 73v497h-81z" />
    <glyph glyph-name="K" unicode="K" horiz-adv-x="722" 
d="M30 0v60h81v562h-81v60h313v-60h-79v-253l279 253h-71v60h234v-60h-76l-200 -182l227 -380h60v-60h-301v60h66l-164 277l-54 -48v-229h79v-60h-313z" />
    <glyph glyph-name="L" unicode="L" horiz-adv-x="611" 
d="M40 0v60h81v562h-81v60h326v-60h-92v-550h237v83h72v-155h-543z" />
    <glyph glyph-name="M" unicode="M" horiz-adv-x="1000" 
d="M32 0v60h78v562h-78v60h226l248 -509l235 509h227v-60h-78v-562h78v-60h-311v60h80v476h-2l-237 -524h-70l-247 508h-5v-460h81v-60h-225z" />
    <glyph glyph-name="N" unicode="N" horiz-adv-x="834" 
d="M25 0v60h81v562h-81v60h217l426 -497v437h-81v60h222v-60h-81v-630h-91l-471 551v-483h81v-60h-222z" />
    <glyph glyph-name="O" unicode="O" horiz-adv-x="834" 
d="M612 341c0 267 -131 301 -195 301s-195 -34 -195 -301s131 -301 195 -301s195 34 195 301zM48 341c0 182 142 349 369 349s369 -167 369 -349s-142 -349 -369 -349s-369 167 -369 349z" />
    <glyph glyph-name="P" unicode="P" horiz-adv-x="611" 
d="M30 0v60h81v562h-81v60h290c155 0 269 -78 269 -215c0 -139 -117 -216 -269 -216h-56v-191h96v-60h-330zM264 622v-311h36c95 0 136 71 136 151c0 93 -49 160 -142 160h-30z" />
    <glyph glyph-name="Q" unicode="Q" horiz-adv-x="834" 
d="M404 123l80 75l81 -74c27 43 47 112 47 217c0 267 -131 301 -195 301s-195 -34 -195 -301s131 -301 195 -301c18 0 41 3 64 12zM727 -24l-80 -75l-116 106c-33 -9 -72 -15 -114 -15c-227 0 -369 167 -369 349s142 349 369 349s369 -167 369 -349
c0 -112 -54 -219 -149 -283z" />
    <glyph glyph-name="R" unicode="R" horiz-adv-x="667" 
d="M264 622v-300h31c106 0 149 64 149 148c0 87 -45 152 -149 152h-31zM30 0v60h81v562h-81v60h306c145 0 261 -78 261 -215c0 -109 -84 -159 -153 -181l112 -173c24 -38 35 -55 69 -55c8 0 16 1 24 2v-60c-19 -3 -70 -8 -105 -8c-79 0 -92 7 -143 93l-64 109
c-30 50 -42 74 -63 74h-10v-208h81v-60h-315z" />
    <glyph glyph-name="S" unicode="S" horiz-adv-x="611" 
d="M56 0v185h66c0 -69 75 -145 181 -145c60 0 128 31 128 100c0 167 -383 106 -383 355c0 140 112 195 220 195c64 0 129 -17 165 -48l22 40h59v-180h-66c0 85 -89 139 -169 140c-75 0 -123 -42 -123 -86c0 -146 401 -115 401 -346c0 -134 -84 -218 -246 -218
c-58 0 -114 9 -175 48l-20 -40h-60z" />
    <glyph glyph-name="T" unicode="T" horiz-adv-x="667" 
d="M176 0v60h81v550h-171v-78h-66v150h627v-150h-66v78h-171v-550h81v-60h-315z" />
    <glyph glyph-name="U" unicode="U" horiz-adv-x="778" 
d="M25 622v60h315v-60h-81v-409c0 -118 74 -161 167 -161c97 0 186 38 186 210v360h-81v60h222v-60h-81v-374c0 -153 -69 -256 -266 -256c-211 0 -300 62 -300 241v389h-81z" />
    <glyph glyph-name="V" unicode="V" horiz-adv-x="778" 
d="M13 622v60h315v-60h-78l198 -468l193 468h-80v60h204v-60h-56l-268 -630h-87l-269 630h-72z" />
    <glyph glyph-name="W" unicode="W" horiz-adv-x="1000" 
d="M13 622v60h303v-60h-84l127 -425h2l148 485h88l148 -477h2l122 417h-80v60h198v-60h-60l-189 -630h-85l-148 486h-2l-150 -486h-84l-196 630h-60z" />
    <glyph glyph-name="X" unicode="X" horiz-adv-x="778" 
d="M24 0v60h74l211 272l-216 290h-69v60h328v-60h-75l132 -181l134 181h-73v60h234v-60h-89l-172 -227l250 -335h72v-60h-330v60h76l-165 222l-178 -222h78v-60h-222z" />
    <glyph glyph-name="Y" unicode="Y" horiz-adv-x="722" 
d="M217 0v60h81v195l-202 367h-72v60h329v-60h-86l159 -294l158 294h-84v60h209v-60h-60l-198 -365v-197h81v-60h-315z" />
    <glyph glyph-name="Z" unicode="Z" horiz-adv-x="667" 
d="M628 155v-155h-589v15c0 4 1 5 13 24l371 571h-293v-74h-66v146h565v-12l-387 -598h320v83h66z" />
    <glyph glyph-name="bracketleft" unicode="[" horiz-adv-x="334" 
d="M72 -212v894h219v-54h-79v-786h79v-54h-219z" />
    <glyph glyph-name="backslash" unicode="\" horiz-adv-x="389" 
d="M119 690l254 -698h-103l-254 698h103z" />
    <glyph glyph-name="bracketright" unicode="]" horiz-adv-x="334" 
d="M262 682v-894h-219v54h79v786h-79v54h219z" />
    <glyph glyph-name="asciicircum" unicode="^" horiz-adv-x="600" 
d="M173 309h-98l175 365h100l175 -365h-98l-127 263z" />
    <glyph glyph-name="underscore" unicode="_" horiz-adv-x="500" 
d="M500 -125h-500v50h500v-50z" />
    <glyph glyph-name="quoteleft" unicode="&#x2018;" horiz-adv-x="278" 
d="M190 682v-252h-156l84 252h72z" />
    <glyph glyph-name="a" unicode="a" 
d="M332 0v47h-2c-23 -36 -63 -55 -131 -55c-96 0 -160 62 -160 150c0 102 65 169 172 169c58 0 96 -18 114 -40h2v113c0 46 -50 56 -76 56c-72 0 -106 -33 -123 -68h-6l-55 69c34 24 97 53 194 53c102 0 212 -17 212 -145v-295h58v-54h-199zM185 151c0 -50 21 -93 73 -93
c31 0 69 16 69 42v111c0 22 -28 40 -64 40c-56 0 -78 -45 -78 -100z" />
    <glyph glyph-name="b" unicode="b" horiz-adv-x="611" 
d="M229 234c0 -138 26 -194 90 -194c58 0 90 50 90 194c0 158 -27 194 -90 194c-45 0 -90 -40 -90 -194zM23 628v54h206v-260h2c11 27 54 72 130 72c101 0 201 -72 201 -248c0 -139 -83 -254 -228 -254c-81 0 -130 40 -156 84l-53 -78h-42c3 30 6 55 6 150v480h-66z" />
    <glyph glyph-name="c" unicode="c" horiz-adv-x="500" 
d="M448 488l10 -174h-60l-2 20c-7 68 -41 100 -98 100c-49 0 -108 -36 -108 -204c0 -148 58 -184 113 -184c57 0 92 28 117 67h6l37 -52c-47 -45 -109 -69 -177 -69c-157 0 -249 98 -249 248c0 133 85 254 231 254c54 0 102 -27 119 -48h2l-4 42h63z" />
    <glyph glyph-name="d" unicode="d" horiz-adv-x="611" 
d="M382 0v52h-2c-25 -30 -58 -60 -143 -60c-88 0 -188 65 -188 248c0 152 83 254 197 254c67 0 114 -27 134 -66h2v200h-66v54h206v-628h66v-54h-206zM202 218c0 -119 49 -166 96 -166c74 0 90 68 90 174v68c0 106 -43 134 -91 134c-67 0 -95 -81 -95 -210z" />
    <glyph glyph-name="e" unicode="e" 
d="M507 224h-317c0 -111 45 -178 138 -178c60 0 106 39 135 95h6l45 -41c-34 -47 -99 -108 -213 -108c-181 0 -264 105 -264 254c0 160 103 248 244 248c123 0 228 -89 228 -226c0 -18 -1 -32 -2 -44zM190 284h179c0 61 -4 156 -86 156c-84 0 -93 -95 -93 -156z" />
    <glyph glyph-name="f" unicode="f" horiz-adv-x="334" 
d="M31 0v54h66v378h-66v54h66c-3 20 -4 41 -4 61c0 92 59 143 131 143c43 0 90 -25 101 -36l-48 -86h-6c-12 11 -39 26 -64 26c-28 0 -54 -20 -54 -47c0 -38 34 -61 98 -61h68v-54h-82v-378h71v-54h-277z" />
    <glyph glyph-name="g" unicode="g" horiz-adv-x="611" 
d="M382 -1v53h-2c-18 -28 -54 -60 -134 -60c-130 0 -197 114 -197 251s67 251 197 251c74 0 122 -34 134 -68h2v60h206v-54h-66v-424c0 -177 -96 -234 -247 -234c-117 0 -181 39 -212 89l91 71h7c20 -42 59 -100 122 -100c70 0 99 39 99 165zM388 226v24
c0 112 -21 178 -93 178c-56 0 -93 -43 -93 -188c0 -134 41 -188 92 -188c76 0 94 66 94 174z" />
    <glyph glyph-name="h" unicode="h" horiz-adv-x="611" 
d="M23 0v54h66v574h-66v54h206v-270h2c29 55 66 82 135 82c98 0 156 -49 156 -140v-300h66v-54h-254v54h48v274c0 44 -7 88 -65 88c-68 0 -88 -71 -88 -131v-231h48v-54h-254z" />
    <glyph glyph-name="i" unicode="i" horiz-adv-x="334" 
d="M31 0v54h66v378h-66v54h206v-432h66v-54h-272zM161 540c-41 0 -77 34 -77 75s36 75 77 75c42 0 76 -34 76 -75s-34 -75 -76 -75z" />
    <glyph glyph-name="j" unicode="j" horiz-adv-x="334" 
d="M46 432v54h206v-560c0 -123 -105 -138 -151 -138c-53 0 -84 26 -96 54v6l43 41l12 -3c0 -31 9 -50 27 -50c17 0 25 19 25 36v560h-66zM176 540c-41 0 -77 34 -77 75s36 75 77 75c42 0 76 -34 76 -75s-34 -75 -76 -75z" />
    <glyph glyph-name="k" unicode="k" horiz-adv-x="611" 
d="M89 54v574h-66v54h206v-432l181 182h-68v54h210v-54h-64l-114 -114l175 -264h36v-54h-252v54h60l-115 175l-49 -50v-125h48v-54h-254v54h66z" />
    <glyph glyph-name="l" unicode="l" horiz-adv-x="334" 
d="M31 0v54h66v574h-66v54h206v-628h66v-54h-272z" />
    <glyph glyph-name="m" unicode="m" horiz-adv-x="888" 
d="M28 0v54h66v378h-66v54h206v-71h2c16 36 55 79 138 79c75 0 116 -37 132 -82h2c11 38 63 82 141 82c108 0 145 -63 145 -134v-306h66v-54h-254v54h48v269c0 76 -23 93 -65 93c-46 -2 -75 -39 -75 -102v-260h48v-54h-236v54h48v265c0 61 -11 97 -61 97
c-53 0 -79 -49 -79 -123v-239h48v-54h-254z" />
    <glyph glyph-name="n" unicode="n" horiz-adv-x="611" 
d="M23 0v54h66v378h-66v54h206v-74h2c29 55 66 82 135 82c98 0 156 -49 156 -140v-300h66v-54h-254v54h48v274c0 44 -7 88 -65 88c-68 0 -88 -71 -88 -131v-231h48v-54h-254z" />
    <glyph glyph-name="o" unicode="o" horiz-adv-x="611" 
d="M49 243c0 119 77 251 257 251c179 0 256 -132 256 -251s-84 -251 -256 -251c-188 0 -257 132 -257 251zM202 243c0 -129 32 -197 104 -197c71 0 103 68 103 197s-32 197 -103 197c-72 0 -104 -68 -104 -197z" />
    <glyph glyph-name="p" unicode="p" horiz-adv-x="611" 
d="M23 -212v54h66v590h-66v54h206v-66h2c12 40 60 74 134 74c130 0 197 -114 197 -251s-67 -251 -197 -251c-80 0 -116 32 -134 60h-2v-210h66v-54h-272zM409 250c0 140 -57 178 -94 178c-56 0 -92 -53 -92 -160v-64c0 -104 27 -152 89 -152c59 0 97 64 97 198z" />
    <glyph glyph-name="q" unicode="q" horiz-adv-x="611" 
d="M382 221v63c0 114 -33 150 -86 150c-57 0 -94 -65 -94 -194c0 -132 28 -182 90 -182c60 0 91 58 90 163zM316 -212v54h66v216h-2c-34 -42 -81 -66 -130 -66c-101 0 -201 65 -201 248c0 152 83 254 210 254c74 0 118 -44 140 -80l36 72h153v-54h-66v-590h66v-54h-272z" />
    <glyph glyph-name="r" unicode="r" horiz-adv-x="444" 
d="M31 0v54h66v378h-66v54h198v-88h2c14 29 50 96 114 96c60 0 86 -39 86 -84l-82 -63l-12 2c0 42 -9 61 -33 61c-42 0 -67 -57 -67 -111v-245h76v-54h-282z" />
    <glyph glyph-name="s" unicode="s" horiz-adv-x="444" 
d="M44 0v144h66c0 -32 14 -56 35 -73s49 -25 75 -25c47 0 79 21 79 62c0 85 -258 76 -258 235c0 87 65 151 148 151c56 0 92 -14 126 -48v42h60v-126h-60c0 22 -16 43 -38 59c-21 15 -48 25 -70 25c-35 0 -64 -21 -64 -55c0 -79 264 -70 264 -239c0 -91 -65 -160 -168 -160
c-58 0 -102 25 -129 54v-46h-66z" />
    <glyph glyph-name="t" unicode="t" horiz-adv-x="334" 
d="M23 432v54h66v139l134 45l6 -6v-178h84v-54h-84v-355c0 -27 6 -31 17 -31c24 0 32 34 33 58l12 4l40 -33c-10 -59 -62 -83 -118 -83c-82 0 -124 30 -124 107v333h-66z" />
    <glyph glyph-name="u" unicode="u" horiz-adv-x="611" 
d="M23 432v54h206v-328c0 -55 12 -100 65 -100c64 0 88 52 88 121v253h-66v54h206v-432h66v-54h-206v58h-2c-29 -39 -64 -66 -145 -66c-88 0 -146 49 -146 186v254h-66z" />
    <glyph glyph-name="v" unicode="v" 
d="M9 432v54h255v-54h-54l114 -287l111 287h-56v54h168v-54h-53l-176 -440h-73l-188 440h-48z" />
    <glyph glyph-name="w" unicode="w" horiz-adv-x="834" 
d="M10 432v54h266v-54h-66l103 -266l125 326h53l118 -326l104 266h-63v54h174v-54h-52l-174 -440h-62l-116 308l-123 -308h-63l-170 440h-54z" />
    <glyph glyph-name="x" unicode="x" 
d="M20 0v54h61l135 158l-156 220h-48v54h273v-54h-60l82 -117l95 117h-57v54h180v-54h-52l-134 -160l155 -218h50v-54h-273v54h60l-83 113l-97 -113h55v-54h-186z" />
    <glyph glyph-name="y" unicode="y" 
d="M119 -212v54h67l62 153l-187 437h-48v54h257v-54h-60l113 -274l114 274h-62v54h168v-54h-47l-247 -590h68v-54h-198z" />
    <glyph glyph-name="z" unicode="z" horiz-adv-x="500" 
d="M35 338v148h419v-24l-260 -408h198v94h66v-148h-434c0 23 1 26 7 35l253 397h-183v-94h-66z" />
    <glyph glyph-name="braceleft" unicode="{" horiz-adv-x="334" 
d="M310 682v-12c-56 -17 -73 -59 -73 -134v-161c0 -77 -12 -120 -82 -139v-2c70 -19 82 -62 82 -139v-161c0 -75 17 -117 73 -134v-12c-155 0 -213 22 -213 152v171c0 70 -11 104 -73 124c62 20 73 54 73 124v171c0 130 58 152 213 152z" />
    <glyph glyph-name="bar" unicode="|" horiz-adv-x="222" 
d="M60 -8v698h102v-698h-102z" />
    <glyph glyph-name="braceright" unicode="}" horiz-adv-x="334" 
d="M24 -212v12c56 17 73 59 73 134v161c0 77 12 120 82 139v2c-70 19 -82 62 -82 139v161c0 75 -17 117 -73 134v12c155 0 213 -22 213 -152v-171c0 -70 11 -104 73 -124c-62 -20 -73 -54 -73 -124v-171c0 -130 -58 -152 -213 -152z" />
    <glyph glyph-name="asciitilde" unicode="~" horiz-adv-x="600" 
d="M495 337l36 -78c-30 -42 -63 -87 -125 -87c-37 0 -70 14 -102 33s-69 33 -115 33c-44 0 -68 -34 -84 -69l-36 78c22 42 58 87 125 87c34 0 78 -16 113 -33s69 -33 102 -33c38 0 63 34 86 69z" />
    <glyph glyph-name="exclamdown" unicode="&#xa1;" horiz-adv-x="334" 
d="M122 288h88c1 -91 27 -406 44 -500l-174 8c22 114 42 327 42 492zM248 405c0 -45 -36 -81 -81 -81s-81 36 -81 81s36 81 81 81s81 -36 81 -81z" />
    <glyph glyph-name="cent" unicode="&#xa2;" 
d="M361 480l51 131h46l-56 -141c46 -15 88 -44 88 -91c0 -36 -22 -61 -59 -61c-41 0 -56 28 -61 62h-2l-107 -286c22 -17 50 -30 88 -30c50 0 89 27 123 54l17 -18c-47 -59 -125 -108 -203 -108c-21 0 -41 2 -61 6l-57 -147h-45l64 161c-80 43 -121 124 -121 212
c0 139 99 262 232 262c29 0 44 -2 63 -6zM229 126l117 312c-8 11 -29 18 -44 18c-90 0 -116 -124 -116 -191c0 -49 10 -99 43 -139z" />
    <glyph glyph-name="sterling" unicode="&#xa3;" 
d="M50 0v54c63 12 124 62 124 131c0 43 -25 79 -44 115h-100v60h60c-11 16 -42 68 -42 119c0 133 88 203 213 203c83 0 124 -27 155 -43l20 35h54v-186h-63c-12 87 -65 146 -143 146c-63 0 -104 -43 -104 -95c0 -61 59 -118 95 -179h140v-60h-120c2 -13 5 -25 5 -37
c0 -53 -37 -107 -89 -147v-2h249v83h66v-197h-476z" />
    <glyph glyph-name="fraction" unicode="&#x2044;" horiz-adv-x="167" 
d="M-168 -36l441 746h62l-441 -746h-62z" />
    <glyph glyph-name="yen" unicode="&#xa5;" 
d="M133 0v60h82v92h-128v60h128v60h-128v60h97l-120 282h-72v60h293v-60h-84l115 -282l122 282h-78v60h204v-60h-61l-127 -282h93v-60h-128v-60h128v-60h-128v-92h82v-60h-290z" />
    <glyph glyph-name="florin" unicode="&#x192;" 
d="M63 361l12 60h142l33 119c34 124 142 150 222 150c48 0 93 -12 119 -33l-55 -82h-22c-7 44 -26 67 -53 67s-44 -24 -55 -62l-44 -159h160l-11 -60h-166l-111 -399c-37 -132 -139 -182 -221 -182c-58 0 -88 9 -126 43l69 77h26c-1 -11 -4 -19 -4 -28c0 -18 11 -38 34 -38
c35 0 49 30 62 78l126 449h-137z" />
    <glyph glyph-name="section" unicode="&#xa7;" 
d="M427 566h-96c1 37 -4 76 -50 76c-24 0 -45 -15 -45 -40c0 -74 241 -216 241 -346c0 -84 -63 -148 -124 -188c41 -46 68 -69 68 -135c0 -84 -75 -127 -157 -127c-87 0 -145 42 -145 125h96c-4 -33 9 -77 50 -77c34 0 54 17 54 49c0 70 -240 195 -240 342
c0 89 46 148 122 188c-28 37 -67 77 -67 127c0 88 59 130 149 130c83 0 144 -39 144 -124zM181 302c0 -80 92 -147 138 -203c28 24 56 52 56 92c0 72 -98 158 -142 209c-31 -26 -52 -56 -52 -98z" />
    <glyph glyph-name="currency" unicode="&#xa4;" 
d="M20 138l55 58c-30 34 -47 85 -47 141s17 107 47 141l-55 58l56 59l56 -57c34 32 88 49 146 49s112 -17 146 -49l56 57l56 -59l-55 -58c30 -34 47 -85 47 -141s-17 -107 -47 -141l55 -58l-56 -59l-56 57c-34 -32 -88 -49 -146 -49s-112 17 -146 49l-56 -57zM130 337
c0 -82 66 -148 148 -148s148 66 148 148s-66 148 -148 148s-148 -66 -148 -148z" />
    <glyph glyph-name="quotesingle" unicode="'" horiz-adv-x="278" 
d="M88 430v252h102v-252h-102z" />
    <glyph glyph-name="quotedblleft" unicode="&#x201c;" 
d="M241 682v-252h-156l84 252h72zM433 682v-252h-156l84 252h72z" />
    <glyph glyph-name="guillemotleft" unicode="&#xab;" 
d="M473 426l-118 -187l118 -191h-80l-118 191l118 187h80zM281 426l-118 -187l118 -191h-80l-118 191l118 187h80z" />
    <glyph glyph-name="guilsinglleft" unicode="&#x2039;" horiz-adv-x="278" 
d="M238 426l-118 -187l118 -191h-80l-118 191l118 187h80z" />
    <glyph glyph-name="guilsinglright" unicode="&#x203a;" horiz-adv-x="278" 
d="M40 48l118 186l-118 192h80l118 -192l-118 -186h-80z" />
    <glyph glyph-name="fi" unicode="&#xfb01;" horiz-adv-x="611" 
d="M31 0v54h66v378h-66v54h66c-3 20 -4 41 -4 61c0 92 59 143 131 143c43 0 90 -25 101 -36l-48 -86h-6c-12 11 -39 26 -64 26c-28 0 -54 -20 -54 -47c0 -38 34 -61 98 -61h263v-432h66v-54h-254v54h48v378h-137v-378h48v-54h-254zM438 540c-41 0 -77 34 -77 75s36 75 77 75
c42 0 76 -34 76 -75s-34 -75 -76 -75z" />
    <glyph glyph-name="fl" unicode="&#xfb02;" horiz-adv-x="611" 
d="M31 0v54h66v378h-66v54h66c-3 20 -4 41 -4 61c0 92 59 143 131 143c35 0 73 -17 90 -28v20h200v-628h66v-54h-254v54h48v574h-60v6h-2l-35 -66h-6c-12 11 -39 26 -64 26c-28 0 -54 -20 -54 -47c0 -38 34 -61 98 -61h68v-54h-82v-378h48v-54h-254z" />
    <glyph glyph-name="endash" unicode="&#x2013;" horiz-adv-x="500" 
d="M0 195v84h500v-84h-500z" />
    <glyph glyph-name="dagger" unicode="&#x2020;" 
d="M145 0v54h67v302h-97v-60h-54v204h54v-60h97v144h-67v54h266v-54h-67v-144h97v60h54v-204h-54v60h-97v-302h67v-54h-266z" />
    <glyph glyph-name="daggerdbl" unicode="&#x2021;" 
d="M160 0v54h55v98h-100v-36h-54v150h54v-36h100v178h-100v-36h-54v150h54v-36h100v98h-55v54h236v-54h-55v-98h100v36h54v-150h-54v36h-100v-178h100v36h54v-150h-54v36h-100v-98h55v-54h-236z" />
    <glyph glyph-name="periodcentered" unicode="&#xb7;" horiz-adv-x="278" 
d="M55 279c0 46 38 84 84 84s84 -38 84 -84s-38 -84 -84 -84s-84 38 -84 84z" />
    <glyph glyph-name="paragraph" unicode="&#xb6;" horiz-adv-x="620" 
d="M412 -186v814h-78v-814h-187v54h73v402c-124 2 -199 88 -199 214c0 127 89 198 243 198h335v-54h-73v-760h73v-54h-187zM220 348v256c-59 -7 -91 -52 -91 -128c0 -65 33 -122 91 -128z" />
    <glyph glyph-name="bullet" unicode="&#x2022;" horiz-adv-x="500" 
d="M80 341c0 94 76 170 170 170s171 -76 171 -170s-77 -171 -171 -171s-170 77 -170 171z" />
    <glyph glyph-name="quotesinglbase" unicode="&#x201a;" horiz-adv-x="278" 
d="M80 -118v252h156l-84 -252h-72z" />
    <glyph glyph-name="quotedblbase" unicode="&#x201e;" 
d="M315 -118v252h156l-84 -252h-72zM123 -118v252h156l-84 -252h-72z" />
    <glyph glyph-name="quotedblright" unicode="&#x201d;" 
d="M315 430v252h156l-84 -252h-72zM123 430v252h156l-84 -252h-72z" />
    <glyph glyph-name="guillemotright" unicode="&#xbb;" 
d="M83 48l118 186l-118 192h80l118 -192l-118 -186h-80zM275 48l118 186l-118 192h80l118 -192l-118 -186h-80z" />
    <glyph glyph-name="ellipsis" unicode="&#x2026;" horiz-adv-x="1000" 
d="M83 76c0 46 38 84 84 84s84 -38 84 -84s-38 -84 -84 -84s-84 38 -84 84zM416 76c0 46 38 84 84 84s84 -38 84 -84s-38 -84 -84 -84s-84 38 -84 84zM749 76c0 46 38 84 84 84s84 -38 84 -84s-38 -84 -84 -84s-84 38 -84 84z" />
    <glyph glyph-name="perthousand" unicode="&#x2030;" horiz-adv-x="1000" 
d="M699 153c0 97 71 161 146 161c89 0 146 -57 146 -161c0 -97 -71 -161 -146 -161c-89 0 -146 57 -146 161zM789 153c0 -98 18 -131 56 -131c33 0 56 40 56 131c0 98 -18 131 -56 131c-33 0 -56 -40 -56 -131zM9 521c0 97 71 161 146 161c89 0 146 -57 146 -161
c0 -97 -71 -161 -146 -161c-89 0 -146 57 -146 161zM99 521c0 -98 18 -131 56 -131c33 0 56 40 56 131c0 98 -18 131 -56 131c-33 0 -56 -40 -56 -131zM366 153c0 97 71 161 146 161c89 0 146 -57 146 -161c0 -97 -71 -161 -146 -161c-89 0 -146 57 -146 161zM456 153
c0 -98 18 -131 56 -131c33 0 56 40 56 131c0 98 -18 131 -56 131c-33 0 -56 -40 -56 -131zM582 699l-428 -724h-62l428 724h62z" />
    <glyph glyph-name="questiondown" unicode="&#xbf;" horiz-adv-x="444" 
d="M161 185l-73 46c15 45 64 72 112 72c70 0 131 -47 131 -120c0 -139 -163 -188 -163 -291c0 -33 20 -56 56 -56c55 0 67 61 52 106h108c0 -92 -58 -154 -153 -154c-91 0 -171 38 -171 140c0 129 175 214 175 288c0 25 -12 39 -32 39c-25 0 -39 -17 -42 -70zM296 413
c0 -41 -32 -73 -73 -73s-73 32 -73 73s32 73 73 73s73 -32 73 -73z" />
    <glyph glyph-name="grave" unicode="`" horiz-adv-x="278" 
d="M192 544l-159 89c-16 10 -33 22 -33 43c0 24 19 36 44 36c20 0 38 -14 51 -27l139 -135v-6h-42z" />
    <glyph glyph-name="acute" unicode="&#xb4;" horiz-adv-x="278" 
d="M44 550l139 135c13 13 31 27 51 27c25 0 44 -12 44 -36c0 -21 -17 -33 -33 -43l-160 -89h-41v6z" />
    <glyph glyph-name="circumflex" unicode="&#x2c6;" horiz-adv-x="278" 
d="M1 550l107 162h62l107 -162v-6h-34l-104 102l-104 -102h-34v6z" />
    <glyph glyph-name="tilde" unicode="&#x2dc;" horiz-adv-x="278" 
d="M31 571h-30c0 56 30 111 81 111c41 0 87 -29 119 -29c27 0 46 16 46 44h30c0 -56 -24 -110 -78 -110c-39 0 -100 29 -124 29c-28 0 -44 -17 -44 -45z" />
    <glyph glyph-name="macron" unicode="&#xaf;" horiz-adv-x="278" 
d="M1 598v60h276v-60h-276z" />
    <glyph glyph-name="breve" unicode="&#x2d8;" horiz-adv-x="334" 
d="M17 714h30c16 -53 57 -96 120 -96s104 43 120 96h30c-2 -93 -50 -162 -150 -162s-150 69 -150 162z" />
    <glyph glyph-name="dotaccent" unicode="&#x2d9;" horiz-adv-x="278" 
d="M76 627c0 35 28 63 63 63s63 -28 63 -63s-28 -63 -63 -63s-63 28 -63 63z" />
    <glyph glyph-name="dieresis" unicode="&#xa8;" horiz-adv-x="278" 
d="M164 627c0 35 28 63 63 63s63 -28 63 -63s-28 -63 -63 -63s-63 28 -63 63zM-12 627c0 35 28 63 63 63s63 -28 63 -63s-28 -63 -63 -63s-63 28 -63 63z" />
    <glyph glyph-name="ring" unicode="&#x2da;" horiz-adv-x="278" 
d="M37 628c0 56 46 102 102 102s102 -46 102 -102s-46 -102 -102 -102s-102 46 -102 102zM79 628c0 -33 27 -60 60 -60s60 27 60 60s-27 60 -60 60s-60 -27 -60 -60z" />
    <glyph glyph-name="cedilla" unicode="&#xb8;" horiz-adv-x="278" 
d="M30 -190l16 34c24 -16 56 -29 84 -29c26 0 62 13 62 45c0 25 -17 39 -48 39c-13 0 -23 -2 -32 -4l-11 6l47 99h39l-33 -70c11 3 25 5 50 5c39 0 84 -23 84 -74c0 -60 -76 -82 -139 -82c-41 0 -83 11 -119 31z" />
    <glyph glyph-name="hungarumlaut" unicode="&#x2dd;" horiz-adv-x="278" 
d="M-51 550l139 135c13 13 31 27 51 27c25 0 44 -12 44 -36c0 -21 -17 -33 -33 -43l-160 -89h-41v6zM141 550l139 135c13 13 31 27 51 27c25 0 44 -12 44 -36c0 -21 -17 -33 -33 -43l-160 -89h-41v6z" />
    <glyph glyph-name="ogonek" unicode="&#x2db;" horiz-adv-x="278" 
d="M207 -168v-36c-18 -11 -45 -17 -78 -17c-52 0 -124 22 -124 82c0 66 71 107 133 139h36c-39 -34 -73 -84 -73 -131c0 -37 21 -54 51 -54c23 0 45 9 55 17z" />
    <glyph glyph-name="caron" unicode="&#x2c7;" horiz-adv-x="278" 
d="M277 706l-107 -162h-62l-107 162v6h34l104 -102l104 102h34v-6z" />
    <glyph glyph-name="emdash" unicode="&#x2014;" horiz-adv-x="1000" 
d="M0 195v84h1000v-84h-1000z" />
    <glyph glyph-name="AE" unicode="&#xc6;" horiz-adv-x="1000" 
d="M6 0v60h59l223 562h-90v60h572v-145h-66v73h-242l82 -220h219v71h66v-202h-66v77h-200l103 -264h240v75h66v-147h-548v60h84l-45 122h-285l-48 -122h74v-60h-198zM441 242l-120 314l-122 -314h242z" />
    <glyph glyph-name="ordfeminine" unicode="&#xaa;" horiz-adv-x="361" 
d="M309 423h36v-36h-138v28h-2c-19 -22 -52 -34 -91 -34c-53 0 -98 33 -98 90c0 61 42 104 112 104c32 0 62 -10 78 -28l1 2v53c0 32 -17 44 -49 44c-34 0 -64 -9 -80 -38h-4l-34 41c36 23 75 33 119 33c81 0 150 -10 150 -87v-172zM207 444v61c0 20 -17 34 -40 34
c-34 0 -49 -27 -49 -62c0 -30 14 -54 46 -54c22 0 35 9 43 21z" />
    <glyph glyph-name="Lslash" unicode="&#x141;" horiz-adv-x="611" 
d="M40 0v60h81v205l-81 -41v76l81 42v280h-81v60h326v-60h-92v-202l159 82v-78l-159 -81v-271h237v83h72v-155h-543z" />
    <glyph glyph-name="Oslash" unicode="&#xd8;" horiz-adv-x="834" 
d="M235 213l344 315c-43 98 -118 114 -162 114c-64 0 -195 -34 -195 -301c0 -50 5 -93 13 -128zM599 469l-345 -316c43 -97 119 -113 163 -113c64 0 195 34 195 301c0 51 -5 94 -13 128zM33 27l98 90c-54 63 -83 142 -83 224c0 182 142 349 369 349c100 0 183 -32 246 -85
l98 89l40 -40l-97 -89c53 -62 82 -142 82 -224c0 -182 -142 -349 -369 -349c-100 0 -184 33 -246 85l-98 -90z" />
    <glyph glyph-name="OE" unicode="&#x152;" horiz-adv-x="1000" 
d="M906 72v75h66v-147h-438v58h-2c-31 -36 -83 -66 -166 -66c-193 0 -318 146 -318 334c0 276 198 364 326 364c88 0 133 -29 158 -50h2v42h422v-145h-66v73h-203v-220h171v71h66v-202h-66v77h-171v-264h219zM534 266v181c0 102 -45 195 -141 195c-104 0 -177 -88 -177 -316
s86 -286 160 -286c124 0 158 119 158 226z" />
    <glyph glyph-name="ordmasculine" unicode="&#xba;" horiz-adv-x="397" 
d="M23 532c0 82 67 150 175 150c109 0 176 -68 176 -150s-67 -151 -176 -151c-108 0 -175 69 -175 151zM131 532c0 -49 9 -115 67 -115c59 0 68 66 68 115s-9 114 -68 114c-58 0 -67 -65 -67 -114z" />
    <glyph glyph-name="ae" unicode="&#xe6;" horiz-adv-x="834" 
d="M329 96v132c-16 11 -33 23 -71 23c-53 0 -81 -34 -81 -92c0 -60 30 -95 78 -95c42 0 57 17 74 32zM329 276v101c0 45 -37 63 -85 63c-63 0 -95 -32 -117 -65h-7l-53 63c42 33 107 56 185 56c47 0 134 -9 186 -50c22 22 66 50 137 50c137 0 222 -103 222 -241v-29h-328
c0 -111 60 -178 146 -178c55 0 106 37 134 95h4l50 -40c-50 -70 -114 -109 -219 -109c-98 0 -162 28 -209 79c-33 -47 -91 -79 -160 -79c-116 0 -184 70 -184 160c0 92 66 159 182 159c62 0 100 -21 114 -35h2zM469 284h188c0 70 -14 162 -88 162c-78 0 -100 -92 -100 -162z
" />
    <glyph glyph-name="dotlessi" unicode="&#x131;" horiz-adv-x="334" 
d="M31 0v54h66v378h-66v54h206v-432h66v-54h-272z" />
    <glyph glyph-name="lslash" unicode="&#x142;" horiz-adv-x="334" 
d="M31 0v54h66v239l-66 -33v72l66 33v263h-66v54h206v-247l66 33v-72l-66 -33v-309h66v-54h-272z" />
    <glyph glyph-name="oslash" unicode="&#xf8;" horiz-adv-x="611" 
d="M205 181l188 186c-16 49 -45 73 -87 73c-72 0 -104 -68 -104 -197c0 -23 1 -43 3 -62zM406 305l-188 -186c15 -48 44 -73 88 -73c71 0 103 68 103 197c0 23 -1 44 -3 62zM46 24l56 55c-37 47 -53 107 -53 164c0 119 77 251 257 251c69 0 124 -20 164 -51l57 56l38 -37
l-58 -57c38 -46 55 -105 55 -162c0 -119 -84 -251 -256 -251c-72 0 -126 19 -166 50l-56 -55z" />
    <glyph glyph-name="oe" unicode="&#x153;" horiz-adv-x="944" 
d="M200 243c0 -135 32 -203 104 -203c81 0 118 72 118 203c0 136 -39 203 -113 203c-68 0 -109 -66 -109 -203zM47 243c0 119 82 251 257 251c80 0 132 -19 188 -63c26 31 77 63 162 63c148 0 242 -93 242 -270h-334c0 -113 51 -178 137 -178c77 0 121 46 148 81h6l44 -37
c-44 -59 -121 -98 -218 -98s-149 21 -188 57c-29 -26 -76 -57 -187 -57c-188 0 -257 132 -257 251zM562 284h194c0 63 -19 162 -97 162c-84 0 -97 -87 -97 -162z" />
    <glyph glyph-name="germandbls" unicode="&#xdf;" 
d="M14 0v54h60v468c0 107 61 168 191 168c97 0 208 -38 208 -146c0 -62 -49 -104 -112 -113v-2c55 -8 146 -46 146 -221c0 -164 -57 -216 -139 -216c-64 0 -103 20 -103 88v16h42v-15c0 -22 5 -35 19 -35c20 0 28 7 28 100v150c0 78 -33 107 -96 107h-13v48h14
c59 0 74 22 74 88c0 54 -4 103 -63 103c-39 0 -56 -21 -56 -80v-508h28v-54h-228z" />
    <glyph glyph-name="onesuperior" unicode="&#xb9;" horiz-adv-x="361" 
d="M78 276v36h61v292c-16 -16 -35 -30 -54 -42l-26 30c33 21 92 67 117 90h65v-370h61v-36h-224z" />
    <glyph glyph-name="logicalnot" unicode="&#xac;" horiz-adv-x="600" 
d="M451 109v200h-404v102h506v-302h-102z" />
    <glyph glyph-name="mu" unicode="&#xb5;" horiz-adv-x="611" 
d="M23 432v54h206v-328c0 -55 12 -100 65 -100c64 0 88 52 88 121v253h-66v54h206v-432h66v-54h-206v58h-2c-29 -39 -73 -66 -122 -66c-11 0 -28 3 -40 9c2 -47 12 -99 12 -133c0 -64 -33 -94 -76 -94s-76 30 -76 94c0 53 11 163 11 241v323h-66z" />
    <glyph glyph-name="trademark" unicode="&#x2122;" horiz-adv-x="1000" 
d="M89 274v30h20c19 0 32 10 32 33v315h-44c-32 0 -55 -16 -59 -44v-14h-30v88h379v-88h-30v14c-4 28 -26 44 -59 44h-43v-315c0 -23 13 -33 33 -33h18v-30h-217zM773 274v30h20c23 0 34 10 34 33v215h-2l-145 -278h-16l-131 278h-2v-215c0 -23 13 -33 34 -33h18v-30h-135
v30h18c21 0 35 10 35 33v266c0 29 -31 49 -58 49h-16v30h157l131 -268l141 268h136v-30h-18c-19 0 -33 -12 -33 -34v-281c0 -23 12 -33 32 -33h19v-30h-219z" />
    <glyph glyph-name="Eth" unicode="&#xd0;" horiz-adv-x="778" 
d="M30 0v60h81v270h-76v66h76v226h-81v60h328c227 0 362 -134 362 -341c0 -197 -136 -341 -362 -341h-328zM264 622v-226h157v-66h-157v-270h52c148 0 230 126 230 266c0 241 -130 296 -230 296h-52z" />
    <glyph glyph-name="onehalf" unicode="&#xbd;" horiz-adv-x="834" 
d="M146 -36l441 746h62l-441 -746h-62zM39 276v36h61v292c-16 -16 -35 -30 -54 -42l-26 30c33 21 92 67 117 90h65v-370h61v-36h-224zM756 66v37h48v-103h-295c-4 0 -6 2 -6 6c0 3 5 9 16 20l33 33c61 61 143 151 143 244c0 34 -5 67 -47 67c-44 0 -55 -38 -55 -78h-90
c0 79 68 114 153 114c78 0 148 -32 148 -113c0 -69 -78 -130 -131 -175l-63 -50v-2h146z" />
    <glyph glyph-name="plusminus" unicode="&#xb1;" horiz-adv-x="600" 
d="M249 146v129h-202v102h202v129h102v-129h202v-102h-202v-129h-102zM47 0v102h506v-102h-506z" />
    <glyph glyph-name="Thorn" unicode="&#xde;" horiz-adv-x="611" 
d="M30 0v60h81v562h-81v60h330v-60h-96v-58c20 1 40 2 63 2c150 0 262 -59 262 -209c0 -156 -144 -202 -263 -202c-18 0 -36 1 -62 2v-97h96v-60h-330zM264 512v-303h36c93 0 136 72 136 154c0 90 -45 149 -135 149h-37z" />
    <glyph glyph-name="onequarter" unicode="&#xbc;" horiz-adv-x="834" 
d="M652 148v164h-2l-98 -164h100zM604 0v36h48v64h-171v12l183 294h90v-258h45v-48h-45v-64h47v-36h-197zM176 -36l441 746h62l-441 -746h-62zM39 276v36h61v292c-16 -16 -35 -30 -54 -42l-26 30c33 21 92 67 117 90h65v-370h61v-36h-224z" />
    <glyph glyph-name="divide" unicode="&#xf7;" horiz-adv-x="600" 
d="M47 202v102h506v-102h-506zM216 465c0 46 38 84 84 84s84 -38 84 -84s-38 -84 -84 -84s-84 38 -84 84zM216 41c0 46 38 84 84 84s84 -38 84 -84s-38 -84 -84 -84s-84 38 -84 84z" />
    <glyph glyph-name="brokenbar" unicode="&#xa6;" horiz-adv-x="222" 
d="M60 -8v261h102v-261h-102zM60 429v261h102v-261h-102z" />
    <glyph glyph-name="degree" unicode="&#xb0;" horiz-adv-x="400" 
d="M57 539c0 79 64 143 143 143s143 -64 143 -143s-64 -143 -143 -143s-143 64 -143 143zM111 539c0 -49 40 -89 89 -89s89 40 89 89s-40 89 -89 89s-89 -40 -89 -89z" />
    <glyph glyph-name="thorn" unicode="&#xfe;" horiz-adv-x="611" 
d="M23 -212v54h66v786h-66v54h206v-262h2c12 40 60 74 134 74c130 0 197 -114 197 -251s-67 -251 -197 -251c-80 0 -116 32 -134 60h-2v-210h65v-54h-271zM223 250v-24c0 -112 14 -174 89 -174c59 0 97 54 97 188c0 141 -34 188 -95 188c-74 0 -91 -62 -91 -178z" />
    <glyph glyph-name="threequarters" unicode="&#xbe;" horiz-adv-x="834" 
d="M652 148v164h-2l-98 -164h100zM652 36v64h-171v12l183 294h90v-258h45v-48h-45v-64h47v-36h-197v36h48zM186 -36l441 746h62l-441 -746h-62zM134 474v39c11 -1 21 -3 32 -3c50 0 58 31 58 73c0 30 -10 63 -50 63c-45 0 -47 -47 -47 -80h-84c0 83 58 116 143 116
c74 0 136 -31 136 -100c0 -44 -26 -76 -77 -88v-2c59 -9 87 -52 87 -100c0 -84 -75 -124 -164 -124c-91 0 -149 43 -149 126h90c2 -41 4 -90 59 -90c54 0 56 51 56 89c0 40 -10 81 -59 81h-31z" />
    <glyph glyph-name="twosuperior" unicode="&#xb2;" horiz-adv-x="361" 
d="M283 342v37h48v-103h-295c-4 0 -6 2 -6 6c0 3 5 9 16 20l33 33c61 61 143 151 143 244c0 34 -5 67 -47 67c-44 0 -55 -38 -55 -78h-90c0 79 68 114 153 114c78 0 148 -32 148 -113c0 -69 -78 -130 -131 -175l-63 -50v-2h146z" />
    <glyph glyph-name="registered" unicode="&#xae;" horiz-adv-x="800" 
d="M229 163v24c23 0 42 2 42 32v262c0 27 -19 31 -42 31v24h193c89 0 133 -31 133 -99c0 -41 -27 -87 -77 -99l48 -88c18 -33 40 -63 65 -63v-24h-96c-30 0 -63 99 -103 162h-25v-106c0 -30 15 -32 44 -32v-24h-182zM367 512v-163h23c48 0 57 48 57 90c0 51 -17 73 -53 73
h-27zM46 340c0 197 149 350 354 350s354 -153 354 -350c0 -198 -149 -348 -354 -348s-354 150 -354 348zM124 340c0 -160 113 -288 276 -288s276 128 276 288c0 161 -113 290 -276 290s-276 -130 -276 -290z" />
    <glyph glyph-name="minus" unicode="&#x2212;" horiz-adv-x="600" 
d="M47 202v102h506v-102h-506z" />
    <glyph glyph-name="eth" unicode="&#xf0;" horiz-adv-x="611" 
d="M202 243c0 -129 32 -197 104 -197c71 0 103 68 103 197s-32 197 -103 197c-72 0 -104 -68 -104 -197zM124 598l109 54c-40 21 -82 37 -127 50l38 42c46 -11 116 -32 161 -56l112 55l42 -42l-95 -47c124 -76 198 -184 198 -382c0 -168 -91 -280 -256 -280
c-188 0 -257 132 -257 251s82 251 252 251c55 0 89 -20 106 -42h2c-19 58 -47 106 -123 164l-120 -60z" />
    <glyph glyph-name="multiply" unicode="&#xd7;" horiz-adv-x="600" 
d="M231 253l-162 162l69 69l162 -162l162 162l69 -69l-163 -162l163 -162l-69 -69l-162 162l-162 -162l-69 69z" />
    <glyph glyph-name="threesuperior" unicode="&#xb3;" horiz-adv-x="361" 
d="M139 474v39c11 -1 21 -3 32 -3c50 0 58 31 58 73c0 30 -10 63 -50 63c-45 0 -47 -47 -47 -80h-84c0 83 58 116 143 116c74 0 136 -31 136 -100c0 -44 -26 -76 -77 -88v-2c59 -9 87 -52 87 -100c0 -84 -75 -124 -164 -124c-91 0 -149 43 -149 126h90c2 -41 4 -90 59 -90
c54 0 56 51 56 89c0 40 -10 81 -59 81h-31z" />
    <glyph glyph-name="copyright" unicode="&#xa9;" horiz-adv-x="800" 
d="M46 340c0 197 149 350 354 350s354 -153 354 -350c0 -198 -149 -348 -354 -348s-354 150 -354 348zM124 340c0 -160 113 -288 276 -288s276 128 276 288c0 161 -113 290 -276 290s-276 -130 -276 -290zM555 514v-78h-24c-14 41 -41 87 -101 87c-72 0 -107 -67 -107 -166
c0 -101 23 -181 105 -181c53 0 95 37 118 92h26l-17 -85c-48 -25 -113 -31 -144 -31c-136 0 -214 69 -214 200c0 84 51 195 221 195c67 0 114 -18 137 -33z" />
    <glyph glyph-name="Aacute" unicode="&#xc1;" horiz-adv-x="778" 
d="M13 0v60h55l256 622h102l273 -622h66v-60h-309v60h78l-54 122h-295l-51 -122h77v-60h-198zM455 242l-126 296l-120 -296h246zM294 718l139 135c13 13 31 27 51 27c25 0 44 -12 44 -36c0 -21 -17 -33 -33 -43l-160 -89h-41v6z" />
    <glyph glyph-name="Acircumflex" unicode="&#xc2;" horiz-adv-x="778" 
d="M13 0v60h55l256 622h102l273 -622h66v-60h-309v60h78l-54 122h-295l-51 -122h77v-60h-198zM455 242l-126 296l-120 -296h246zM251 718l107 162h62l107 -162v-6h-34l-104 102l-104 -102h-34v6z" />
    <glyph glyph-name="Adieresis" unicode="&#xc4;" horiz-adv-x="778" 
d="M13 0v60h55l256 622h102l273 -622h66v-60h-309v60h78l-54 122h-295l-51 -122h77v-60h-198zM455 242l-126 296l-120 -296h246zM414 795c0 35 28 63 63 63s63 -28 63 -63s-28 -63 -63 -63s-63 28 -63 63zM238 795c0 35 28 63 63 63s63 -28 63 -63s-28 -63 -63 -63
s-63 28 -63 63z" />
    <glyph glyph-name="Agrave" unicode="&#xc0;" horiz-adv-x="778" 
d="M13 0v60h55l256 622h102l273 -622h66v-60h-309v60h78l-54 122h-295l-51 -122h77v-60h-198zM455 242l-126 296l-120 -296h246zM442 712l-159 89c-16 10 -33 22 -33 43c0 24 19 36 44 36c20 0 38 -14 51 -27l139 -135v-6h-42z" />
    <glyph glyph-name="Aring" unicode="&#xc5;" horiz-adv-x="778" 
d="M13 0v60h55l256 622h102l273 -622h66v-60h-309v60h78l-54 122h-295l-51 -122h77v-60h-198zM455 242l-126 296l-120 -296h246zM272 809c0 56 46 102 102 102s102 -46 102 -102s-46 -102 -102 -102s-102 46 -102 102zM314 809c0 -33 27 -60 60 -60s60 27 60 60
s-27 60 -60 60s-60 -27 -60 -60z" />
    <glyph glyph-name="Atilde" unicode="&#xc3;" horiz-adv-x="778" 
d="M13 0v60h55l256 622h102l273 -622h66v-60h-309v60h78l-54 122h-295l-51 -122h77v-60h-198zM455 242l-126 296l-120 -296h246zM281 739h-30c0 56 30 111 81 111c41 0 87 -29 119 -29c27 0 46 16 46 44h30c0 -56 -24 -110 -78 -110c-39 0 -100 29 -124 29
c-28 0 -44 -17 -44 -45z" />
    <glyph glyph-name="Ccedilla" unicode="&#xc7;" horiz-adv-x="778" 
d="M280 -190l16 34c24 -16 56 -29 84 -29c26 0 62 13 62 45c0 25 -17 39 -48 39c-13 0 -23 -2 -32 -4l-11 6l44 93c-232 18 -347 176 -347 347c0 182 142 349 369 349c77 0 138 -15 197 -68l35 60h60v-198h-65c-21 88 -96 146 -205 146c-168 0 -217 -158 -217 -297
c0 -161 99 -287 250 -287c84 0 156 43 212 113h9l41 -39v-8c-116 -109 -214 -120 -294 -120h-7l-29 -62c11 3 25 5 50 5c39 0 84 -23 84 -74c0 -60 -76 -82 -139 -82c-41 0 -83 11 -119 31z" />
    <glyph glyph-name="Eacute" unicode="&#xc9;" horiz-adv-x="667" 
d="M35 0v60h81v562h-81v60h552v-145h-66v73h-252v-220h220v71h66v-202h-66v77h-220v-264h268v75h66v-147h-568zM239 718l139 135c13 13 31 27 51 27c25 0 44 -12 44 -36c0 -21 -17 -33 -33 -43l-160 -89h-41v6z" />
    <glyph glyph-name="Ecircumflex" unicode="&#xca;" horiz-adv-x="667" 
d="M35 0v60h81v562h-81v60h552v-145h-66v73h-252v-220h220v71h66v-202h-66v77h-220v-264h268v75h66v-147h-568zM196 718l107 162h62l107 -162v-6h-34l-104 102l-104 -102h-34v6z" />
    <glyph glyph-name="Edieresis" unicode="&#xcb;" horiz-adv-x="667" 
d="M35 0v60h81v562h-81v60h552v-145h-66v73h-252v-220h220v71h66v-202h-66v77h-220v-264h268v75h66v-147h-568zM359 795c0 35 28 63 63 63s63 -28 63 -63s-28 -63 -63 -63s-63 28 -63 63zM183 795c0 35 28 63 63 63s63 -28 63 -63s-28 -63 -63 -63s-63 28 -63 63z" />
    <glyph glyph-name="Egrave" unicode="&#xc8;" horiz-adv-x="667" 
d="M35 0v60h81v562h-81v60h552v-145h-66v73h-252v-220h220v71h66v-202h-66v77h-220v-264h268v75h66v-147h-568zM387 712l-159 89c-16 10 -33 22 -33 43c0 24 19 36 44 36c20 0 38 -14 51 -27l139 -135v-6h-42z" />
    <glyph glyph-name="Iacute" unicode="&#xcd;" horiz-adv-x="389" 
d="M37 0v60h81v562h-81v60h315v-60h-81v-562h81v-60h-315zM100 718l139 135c13 13 31 27 51 27c25 0 44 -12 44 -36c0 -21 -17 -33 -33 -43l-160 -89h-41v6z" />
    <glyph glyph-name="Icircumflex" unicode="&#xce;" horiz-adv-x="389" 
d="M37 0v60h81v562h-81v60h315v-60h-81v-562h81v-60h-315zM57 718l107 162h62l107 -162v-6h-34l-104 102l-104 -102h-34v6z" />
    <glyph glyph-name="Idieresis" unicode="&#xcf;" horiz-adv-x="389" 
d="M37 0v60h81v562h-81v60h315v-60h-81v-562h81v-60h-315zM220 795c0 35 28 63 63 63s63 -28 63 -63s-28 -63 -63 -63s-63 28 -63 63zM44 795c0 35 28 63 63 63s63 -28 63 -63s-28 -63 -63 -63s-63 28 -63 63z" />
    <glyph glyph-name="Igrave" unicode="&#xcc;" horiz-adv-x="389" 
d="M37 0v60h81v562h-81v60h315v-60h-81v-562h81v-60h-315zM248 712l-159 89c-16 10 -33 22 -33 43c0 24 19 36 44 36c20 0 38 -14 51 -27l139 -135v-6h-42z" />
    <glyph glyph-name="Ntilde" unicode="&#xd1;" horiz-adv-x="834" 
d="M25 0v60h81v562h-81v60h217l426 -497v437h-81v60h222v-60h-81v-630h-91l-471 551v-483h81v-60h-222zM309 739h-30c0 56 30 111 81 111c41 0 87 -29 119 -29c27 0 46 16 46 44h30c0 -56 -24 -110 -78 -110c-39 0 -100 29 -124 29c-28 0 -44 -17 -44 -45z" />
    <glyph glyph-name="Oacute" unicode="&#xd3;" horiz-adv-x="834" 
d="M612 341c0 267 -131 301 -195 301s-195 -34 -195 -301s131 -301 195 -301s195 34 195 301zM48 341c0 182 142 349 369 349s369 -167 369 -349s-142 -349 -369 -349s-369 167 -369 349zM322 718l139 135c13 13 31 27 51 27c25 0 44 -12 44 -36c0 -21 -17 -33 -33 -43
l-160 -89h-41v6z" />
    <glyph glyph-name="Ocircumflex" unicode="&#xd4;" horiz-adv-x="834" 
d="M612 341c0 267 -131 301 -195 301s-195 -34 -195 -301s131 -301 195 -301s195 34 195 301zM48 341c0 182 142 349 369 349s369 -167 369 -349s-142 -349 -369 -349s-369 167 -369 349zM279 718l107 162h62l107 -162v-6h-34l-104 102l-104 -102h-34v6z" />
    <glyph glyph-name="Odieresis" unicode="&#xd6;" horiz-adv-x="834" 
d="M612 341c0 267 -131 301 -195 301s-195 -34 -195 -301s131 -301 195 -301s195 34 195 301zM48 341c0 182 142 349 369 349s369 -167 369 -349s-142 -349 -369 -349s-369 167 -369 349zM442 795c0 35 28 63 63 63s63 -28 63 -63s-28 -63 -63 -63s-63 28 -63 63zM266 795
c0 35 28 63 63 63s63 -28 63 -63s-28 -63 -63 -63s-63 28 -63 63z" />
    <glyph glyph-name="Ograve" unicode="&#xd2;" horiz-adv-x="834" 
d="M612 341c0 267 -131 301 -195 301s-195 -34 -195 -301s131 -301 195 -301s195 34 195 301zM48 341c0 182 142 349 369 349s369 -167 369 -349s-142 -349 -369 -349s-369 167 -369 349zM470 712l-159 89c-16 10 -33 22 -33 43c0 24 19 36 44 36c20 0 38 -14 51 -27
l139 -135v-6h-42z" />
    <glyph glyph-name="Otilde" unicode="&#xd5;" horiz-adv-x="834" 
d="M612 341c0 267 -131 301 -195 301s-195 -34 -195 -301s131 -301 195 -301s195 34 195 301zM48 341c0 182 142 349 369 349s369 -167 369 -349s-142 -349 -369 -349s-369 167 -369 349zM309 739h-30c0 56 30 111 81 111c41 0 87 -29 119 -29c27 0 46 16 46 44h30
c0 -56 -24 -110 -78 -110c-39 0 -100 29 -124 29c-28 0 -44 -17 -44 -45z" />
    <glyph glyph-name="Scaron" unicode="&#x160;" horiz-adv-x="611" 
d="M56 0v185h66c0 -69 75 -145 181 -145c60 0 128 31 128 100c0 167 -383 106 -383 355c0 140 112 195 220 195c64 0 129 -17 165 -48l22 40h59v-180h-66c0 85 -89 139 -169 140c-75 0 -123 -42 -123 -86c0 -146 401 -115 401 -346c0 -134 -84 -218 -246 -218
c-58 0 -114 9 -175 48l-20 -40h-60zM444 874l-107 -162h-62l-107 162v6h34l104 -102l104 102h34v-6z" />
    <glyph glyph-name="Uacute" unicode="&#xda;" horiz-adv-x="778" 
d="M25 622v60h315v-60h-81v-409c0 -118 74 -161 167 -161c97 0 186 38 186 210v360h-81v60h222v-60h-81v-374c0 -153 -69 -256 -266 -256c-211 0 -300 62 -300 241v389h-81zM310 718l139 135c13 13 31 27 51 27c25 0 44 -12 44 -36c0 -21 -17 -33 -33 -43l-160 -89h-41v6z
" />
    <glyph glyph-name="Ucircumflex" unicode="&#xdb;" horiz-adv-x="778" 
d="M25 622v60h315v-60h-81v-409c0 -118 74 -161 167 -161c97 0 186 38 186 210v360h-81v60h222v-60h-81v-374c0 -153 -69 -256 -266 -256c-211 0 -300 62 -300 241v389h-81zM267 718l107 162h62l107 -162v-6h-34l-104 102l-104 -102h-34v6z" />
    <glyph glyph-name="Udieresis" unicode="&#xdc;" horiz-adv-x="778" 
d="M25 622v60h315v-60h-81v-409c0 -118 74 -161 167 -161c97 0 186 38 186 210v360h-81v60h222v-60h-81v-374c0 -153 -69 -256 -266 -256c-211 0 -300 62 -300 241v389h-81zM430 795c0 35 28 63 63 63s63 -28 63 -63s-28 -63 -63 -63s-63 28 -63 63zM254 795
c0 35 28 63 63 63s63 -28 63 -63s-28 -63 -63 -63s-63 28 -63 63z" />
    <glyph glyph-name="Ugrave" unicode="&#xd9;" horiz-adv-x="778" 
d="M25 622v60h315v-60h-81v-409c0 -118 74 -161 167 -161c97 0 186 38 186 210v360h-81v60h222v-60h-81v-374c0 -153 -69 -256 -266 -256c-211 0 -300 62 -300 241v389h-81zM458 712l-159 89c-16 10 -33 22 -33 43c0 24 19 36 44 36c20 0 38 -14 51 -27l139 -135v-6h-42z
" />
    <glyph glyph-name="Yacute" unicode="&#xdd;" horiz-adv-x="722" 
d="M217 0v60h81v195l-202 367h-72v60h329v-60h-86l159 -294l158 294h-84v60h209v-60h-60l-198 -365v-197h81v-60h-315zM326 718l139 135c13 13 31 27 51 27c25 0 44 -12 44 -36c0 -21 -17 -33 -33 -43l-160 -89h-41v6z" />
    <glyph glyph-name="Ydieresis" unicode="&#x178;" horiz-adv-x="722" 
d="M217 0v60h81v195l-202 367h-72v60h329v-60h-86l159 -294l158 294h-84v60h209v-60h-60l-198 -365v-197h81v-60h-315zM386 795c0 35 28 63 63 63s63 -28 63 -63s-28 -63 -63 -63s-63 28 -63 63zM210 795c0 35 28 63 63 63s63 -28 63 -63s-28 -63 -63 -63s-63 28 -63 63z
" />
    <glyph glyph-name="Zcaron" unicode="&#x17d;" horiz-adv-x="667" 
d="M628 155v-155h-589v15c0 4 1 5 13 24l371 571h-293v-74h-66v146h565v-12l-387 -598h320v83h66zM472 874l-107 -162h-62l-107 162v6h34l104 -102l104 102h34v-6z" />
    <glyph glyph-name="aacute" unicode="&#xe1;" 
d="M332 0v47h-2c-23 -36 -63 -55 -131 -55c-96 0 -160 62 -160 150c0 102 65 169 172 169c58 0 96 -18 114 -40h2v113c0 46 -50 56 -76 56c-72 0 -106 -33 -123 -68h-6l-55 69c34 24 97 53 194 53c102 0 212 -17 212 -145v-295h58v-54h-199zM185 151c0 -50 21 -93 73 -93
c31 0 69 16 69 42v111c0 22 -28 40 -64 40c-56 0 -78 -45 -78 -100zM183 550l139 135c13 13 31 27 51 27c25 0 44 -12 44 -36c0 -21 -17 -33 -33 -43l-160 -89h-41v6z" />
    <glyph glyph-name="acircumflex" unicode="&#xe2;" 
d="M332 0v47h-2c-23 -36 -63 -55 -131 -55c-96 0 -160 62 -160 150c0 102 65 169 172 169c58 0 96 -18 114 -40h2v113c0 46 -50 56 -76 56c-72 0 -106 -33 -123 -68h-6l-55 69c34 24 97 53 194 53c102 0 212 -17 212 -145v-295h58v-54h-199zM185 151c0 -50 21 -93 73 -93
c31 0 69 16 69 42v111c0 22 -28 40 -64 40c-56 0 -78 -45 -78 -100zM140 550l107 162h62l107 -162v-6h-34l-104 102l-104 -102h-34v6z" />
    <glyph glyph-name="adieresis" unicode="&#xe4;" 
d="M332 0v47h-2c-23 -36 -63 -55 -131 -55c-96 0 -160 62 -160 150c0 102 65 169 172 169c58 0 96 -18 114 -40h2v113c0 46 -50 56 -76 56c-72 0 -106 -33 -123 -68h-6l-55 69c34 24 97 53 194 53c102 0 212 -17 212 -145v-295h58v-54h-199zM185 151c0 -50 21 -93 73 -93
c31 0 69 16 69 42v111c0 22 -28 40 -64 40c-56 0 -78 -45 -78 -100zM303 627c0 35 28 63 63 63s63 -28 63 -63s-28 -63 -63 -63s-63 28 -63 63zM127 627c0 35 28 63 63 63s63 -28 63 -63s-28 -63 -63 -63s-63 28 -63 63z" />
    <glyph glyph-name="agrave" unicode="&#xe0;" 
d="M332 0v47h-2c-23 -36 -63 -55 -131 -55c-96 0 -160 62 -160 150c0 102 65 169 172 169c58 0 96 -18 114 -40h2v113c0 46 -50 56 -76 56c-72 0 -106 -33 -123 -68h-6l-55 69c34 24 97 53 194 53c102 0 212 -17 212 -145v-295h58v-54h-199zM185 151c0 -50 21 -93 73 -93
c31 0 69 16 69 42v111c0 22 -28 40 -64 40c-56 0 -78 -45 -78 -100zM331 544l-159 89c-16 10 -33 22 -33 43c0 24 19 36 44 36c20 0 38 -14 51 -27l139 -135v-6h-42z" />
    <glyph glyph-name="aring" unicode="&#xe5;" 
d="M332 0v47h-2c-23 -36 -63 -55 -131 -55c-96 0 -160 62 -160 150c0 102 65 169 172 169c58 0 96 -18 114 -40h2v113c0 46 -50 56 -76 56c-72 0 -106 -33 -123 -68h-6l-55 69c34 24 97 53 194 53c102 0 212 -17 212 -145v-295h58v-54h-199zM185 151c0 -50 21 -93 73 -93
c31 0 69 16 69 42v111c0 22 -28 40 -64 40c-56 0 -78 -45 -78 -100zM176 628c0 56 46 102 102 102s102 -46 102 -102s-46 -102 -102 -102s-102 46 -102 102zM218 628c0 -33 27 -60 60 -60s60 27 60 60s-27 60 -60 60s-60 -27 -60 -60z" />
    <glyph glyph-name="atilde" unicode="&#xe3;" 
d="M332 0v47h-2c-23 -36 -63 -55 -131 -55c-96 0 -160 62 -160 150c0 102 65 169 172 169c58 0 96 -18 114 -40h2v113c0 46 -50 56 -76 56c-72 0 -106 -33 -123 -68h-6l-55 69c34 24 97 53 194 53c102 0 212 -17 212 -145v-295h58v-54h-199zM185 151c0 -50 21 -93 73 -93
c31 0 69 16 69 42v111c0 22 -28 40 -64 40c-56 0 -78 -45 -78 -100zM170 571h-30c0 56 30 111 81 111c41 0 87 -29 119 -29c27 0 46 16 46 44h30c0 -56 -24 -110 -78 -110c-39 0 -100 29 -124 29c-28 0 -44 -17 -44 -45z" />
    <glyph glyph-name="ccedilla" unicode="&#xe7;" horiz-adv-x="500" 
d="M141 -190l16 34c24 -16 56 -29 84 -29c26 0 62 13 62 45c0 25 -17 39 -48 39c-13 0 -23 -2 -32 -4l-11 6l44 92c-139 12 -219 107 -219 247c0 133 85 254 231 254c54 0 102 -27 119 -48h2l-4 42h63l10 -174h-60l-2 20c-7 68 -41 100 -98 100c-49 0 -108 -36 -108 -204
c0 -148 58 -184 113 -184c57 0 92 28 117 67h6l37 -52c-45 -43 -104 -67 -169 -69l-29 -62c11 3 25 5 50 5c39 0 84 -23 84 -74c0 -60 -76 -82 -139 -82c-41 0 -83 11 -119 31z" />
    <glyph glyph-name="eacute" unicode="&#xe9;" 
d="M507 224h-317c0 -111 45 -178 138 -178c60 0 106 39 135 95h6l45 -41c-34 -47 -99 -108 -213 -108c-181 0 -264 105 -264 254c0 160 103 248 244 248c123 0 228 -89 228 -226c0 -18 -1 -32 -2 -44zM190 284h179c0 61 -4 156 -86 156c-84 0 -93 -95 -93 -156zM183 550
l139 135c13 13 31 27 51 27c25 0 44 -12 44 -36c0 -21 -17 -33 -33 -43l-160 -89h-41v6z" />
    <glyph glyph-name="ecircumflex" unicode="&#xea;" 
d="M507 224h-317c0 -111 45 -178 138 -178c60 0 106 39 135 95h6l45 -41c-34 -47 -99 -108 -213 -108c-181 0 -264 105 -264 254c0 160 103 248 244 248c123 0 228 -89 228 -226c0 -18 -1 -32 -2 -44zM190 284h179c0 61 -4 156 -86 156c-84 0 -93 -95 -93 -156zM140 550
l107 162h62l107 -162v-6h-34l-104 102l-104 -102h-34v6z" />
    <glyph glyph-name="edieresis" unicode="&#xeb;" 
d="M507 224h-317c0 -111 45 -178 138 -178c60 0 106 39 135 95h6l45 -41c-34 -47 -99 -108 -213 -108c-181 0 -264 105 -264 254c0 160 103 248 244 248c123 0 228 -89 228 -226c0 -18 -1 -32 -2 -44zM190 284h179c0 61 -4 156 -86 156c-84 0 -93 -95 -93 -156zM303 627
c0 35 28 63 63 63s63 -28 63 -63s-28 -63 -63 -63s-63 28 -63 63zM127 627c0 35 28 63 63 63s63 -28 63 -63s-28 -63 -63 -63s-63 28 -63 63z" />
    <glyph glyph-name="egrave" unicode="&#xe8;" 
d="M507 224h-317c0 -111 45 -178 138 -178c60 0 106 39 135 95h6l45 -41c-34 -47 -99 -108 -213 -108c-181 0 -264 105 -264 254c0 160 103 248 244 248c123 0 228 -89 228 -226c0 -18 -1 -32 -2 -44zM190 284h179c0 61 -4 156 -86 156c-84 0 -93 -95 -93 -156zM331 544
l-159 89c-16 10 -33 22 -33 43c0 24 19 36 44 36c20 0 38 -14 51 -27l139 -135v-6h-42z" />
    <glyph glyph-name="iacute" unicode="&#xed;" horiz-adv-x="334" 
d="M31 0v54h66v378h-66v54h206v-432h66v-54h-272zM72 550l139 135c13 13 31 27 51 27c25 0 44 -12 44 -36c0 -21 -17 -33 -33 -43l-160 -89h-41v6z" />
    <glyph glyph-name="icircumflex" unicode="&#xee;" horiz-adv-x="334" 
d="M31 0v54h66v378h-66v54h206v-432h66v-54h-272zM29 550l107 162h62l107 -162v-6h-34l-104 102l-104 -102h-34v6z" />
    <glyph glyph-name="idieresis" unicode="&#xef;" horiz-adv-x="334" 
d="M31 0v54h66v378h-66v54h206v-432h66v-54h-272zM192 627c0 35 28 63 63 63s63 -28 63 -63s-28 -63 -63 -63s-63 28 -63 63zM16 627c0 35 28 63 63 63s63 -28 63 -63s-28 -63 -63 -63s-63 28 -63 63z" />
    <glyph glyph-name="igrave" unicode="&#xec;" horiz-adv-x="334" 
d="M31 0v54h66v378h-66v54h206v-432h66v-54h-272zM220 544l-159 89c-16 10 -33 22 -33 43c0 24 19 36 44 36c20 0 38 -14 51 -27l139 -135v-6h-42z" />
    <glyph glyph-name="ntilde" unicode="&#xf1;" horiz-adv-x="611" 
d="M23 0v54h66v378h-66v54h206v-74h2c29 55 66 82 135 82c98 0 156 -49 156 -140v-300h66v-54h-254v54h48v274c0 44 -7 88 -65 88c-68 0 -88 -71 -88 -131v-231h48v-54h-254zM198 571h-30c0 56 30 111 81 111c41 0 87 -29 119 -29c27 0 46 16 46 44h30
c0 -56 -24 -110 -78 -110c-39 0 -100 29 -124 29c-28 0 -44 -17 -44 -45z" />
    <glyph glyph-name="oacute" unicode="&#xf3;" horiz-adv-x="611" 
d="M49 243c0 119 77 251 257 251c179 0 256 -132 256 -251s-84 -251 -256 -251c-188 0 -257 132 -257 251zM202 243c0 -129 32 -197 104 -197c71 0 103 68 103 197s-32 197 -103 197c-72 0 -104 -68 -104 -197zM211 550l139 135c13 13 31 27 51 27c25 0 44 -12 44 -36
c0 -21 -17 -33 -33 -43l-160 -89h-41v6z" />
    <glyph glyph-name="ocircumflex" unicode="&#xf4;" horiz-adv-x="611" 
d="M49 243c0 119 77 251 257 251c179 0 256 -132 256 -251s-84 -251 -256 -251c-188 0 -257 132 -257 251zM202 243c0 -129 32 -197 104 -197c71 0 103 68 103 197s-32 197 -103 197c-72 0 -104 -68 -104 -197zM168 550l107 162h62l107 -162v-6h-34l-104 102l-104 -102h-34
v6z" />
    <glyph glyph-name="odieresis" unicode="&#xf6;" horiz-adv-x="611" 
d="M49 243c0 119 77 251 257 251c179 0 256 -132 256 -251s-84 -251 -256 -251c-188 0 -257 132 -257 251zM202 243c0 -129 32 -197 104 -197c71 0 103 68 103 197s-32 197 -103 197c-72 0 -104 -68 -104 -197zM331 627c0 35 28 63 63 63s63 -28 63 -63s-28 -63 -63 -63
s-63 28 -63 63zM155 627c0 35 28 63 63 63s63 -28 63 -63s-28 -63 -63 -63s-63 28 -63 63z" />
    <glyph glyph-name="ograve" unicode="&#xf2;" horiz-adv-x="611" 
d="M49 243c0 119 77 251 257 251c179 0 256 -132 256 -251s-84 -251 -256 -251c-188 0 -257 132 -257 251zM202 243c0 -129 32 -197 104 -197c71 0 103 68 103 197s-32 197 -103 197c-72 0 -104 -68 -104 -197zM359 544l-159 89c-16 10 -33 22 -33 43c0 24 19 36 44 36
c20 0 38 -14 51 -27l139 -135v-6h-42z" />
    <glyph glyph-name="otilde" unicode="&#xf5;" horiz-adv-x="611" 
d="M49 243c0 119 77 251 257 251c179 0 256 -132 256 -251s-84 -251 -256 -251c-188 0 -257 132 -257 251zM202 243c0 -129 32 -197 104 -197c71 0 103 68 103 197s-32 197 -103 197c-72 0 -104 -68 -104 -197zM198 571h-30c0 56 30 111 81 111c41 0 87 -29 119 -29
c27 0 46 16 46 44h30c0 -56 -24 -110 -78 -110c-39 0 -100 29 -124 29c-28 0 -44 -17 -44 -45z" />
    <glyph glyph-name="scaron" unicode="&#x161;" horiz-adv-x="444" 
d="M44 0v144h66c0 -32 14 -56 35 -73s49 -25 75 -25c47 0 79 21 79 62c0 85 -258 76 -258 235c0 87 65 151 148 151c56 0 92 -14 126 -48v42h60v-126h-60c0 22 -16 43 -38 59c-21 15 -48 25 -70 25c-35 0 -64 -21 -64 -55c0 -79 264 -70 264 -239c0 -91 -65 -160 -168 -160
c-58 0 -102 25 -129 54v-46h-66zM360 706l-107 -162h-62l-107 162v6h34l104 -102l104 102h34v-6z" />
    <glyph glyph-name="uacute" unicode="&#xfa;" horiz-adv-x="611" 
d="M23 432v54h206v-328c0 -55 12 -100 65 -100c64 0 88 52 88 121v253h-66v54h206v-432h66v-54h-206v58h-2c-29 -39 -64 -66 -145 -66c-88 0 -146 49 -146 186v254h-66zM211 550l139 135c13 13 31 27 51 27c25 0 44 -12 44 -36c0 -21 -17 -33 -33 -43l-160 -89h-41v6z" />
    <glyph glyph-name="ucircumflex" unicode="&#xfb;" horiz-adv-x="611" 
d="M23 432v54h206v-328c0 -55 12 -100 65 -100c64 0 88 52 88 121v253h-66v54h206v-432h66v-54h-206v58h-2c-29 -39 -64 -66 -145 -66c-88 0 -146 49 -146 186v254h-66zM168 550l107 162h62l107 -162v-6h-34l-104 102l-104 -102h-34v6z" />
    <glyph glyph-name="udieresis" unicode="&#xfc;" horiz-adv-x="611" 
d="M23 432v54h206v-328c0 -55 12 -100 65 -100c64 0 88 52 88 121v253h-66v54h206v-432h66v-54h-206v58h-2c-29 -39 -64 -66 -145 -66c-88 0 -146 49 -146 186v254h-66zM331 627c0 35 28 63 63 63s63 -28 63 -63s-28 -63 -63 -63s-63 28 -63 63zM155 627c0 35 28 63 63 63
s63 -28 63 -63s-28 -63 -63 -63s-63 28 -63 63z" />
    <glyph glyph-name="ugrave" unicode="&#xf9;" horiz-adv-x="611" 
d="M23 432v54h206v-328c0 -55 12 -100 65 -100c64 0 88 52 88 121v253h-66v54h206v-432h66v-54h-206v58h-2c-29 -39 -64 -66 -145 -66c-88 0 -146 49 -146 186v254h-66zM359 544l-159 89c-16 10 -33 22 -33 43c0 24 19 36 44 36c20 0 38 -14 51 -27l139 -135v-6h-42z" />
    <glyph glyph-name="yacute" unicode="&#xfd;" 
d="M119 -212v54h67l62 153l-187 437h-48v54h257v-54h-60l113 -274l114 274h-62v54h168v-54h-47l-247 -590h68v-54h-198zM243 550l139 135c13 13 31 27 51 27c25 0 44 -12 44 -36c0 -21 -17 -33 -33 -43l-160 -89h-41v6z" />
    <glyph glyph-name="ydieresis" unicode="&#xff;" 
d="M119 -212v54h67l62 153l-187 437h-48v54h257v-54h-60l113 -274l114 274h-62v54h168v-54h-47l-247 -590h68v-54h-198zM303 627c0 35 28 63 63 63s63 -28 63 -63s-28 -63 -63 -63s-63 28 -63 63zM127 627c0 35 28 63 63 63s63 -28 63 -63s-28 -63 -63 -63s-63 28 -63 63z
" />
    <glyph glyph-name="zcaron" unicode="&#x17e;" horiz-adv-x="500" 
d="M35 338v148h419v-24l-260 -408h198v94h66v-148h-434c0 23 1 26 7 35l253 397h-183v-94h-66zM388 706l-107 -162h-62l-107 162v6h34l104 -102l104 102h34v-6z" />
    <glyph glyph-name="Omega" unicode="&#x2126;" horiz-adv-x="728" 
d="M694 168l-27 -168h-254l-10 22c39 91 107 225 106 349c0 196 -65 265 -148 265c-85 0 -144 -62 -144 -268c0 -121 58 -246 104 -345l-9 -23h-255l-25 168h34c22 -57 36 -67 79 -67h91c-70 51 -172 129 -172 275c0 183 129 298 301 298c173 0 296 -111 296 -292
c0 -132 -97 -214 -178 -281h103c39 0 53 9 73 67h35z" />
    <glyph glyph-name="uni03BC" unicode="&#x3bc;" horiz-adv-x="611" 
d="M23 432v54h206v-328c0 -55 12 -100 65 -100c64 0 88 52 88 121v253h-66v54h206v-432h66v-54h-206v58h-2c-29 -39 -73 -66 -122 -66c-11 0 -28 3 -40 9c2 -47 12 -99 12 -133c0 -64 -33 -94 -76 -94s-76 30 -76 94c0 53 11 163 11 241v323h-66z" />
    <glyph glyph-name="pi" unicode="&#x3c0;" horiz-adv-x="582" 
d="M529 466l29 -8c-4 -42 -24 -101 -38 -119c-16 -5 -37 -6 -62 -6c-5 -63 -5 -117 -4 -183c0 -62 15 -83 38 -83c17 0 28 7 43 19l13 -28c-25 -39 -75 -71 -121 -71c-56 0 -104 28 -104 133c0 90 4 146 9 215c-50 0 -84 2 -120 2v-9c0 -224 -49 -302 -65 -323
c-25 -10 -51 -16 -71 -18l-8 23c70 97 93 237 93 329c-58 1 -83 -10 -125 -36l-17 31c33 42 69 104 181 103c78 -1 178 -3 270 -3c32 0 44 7 59 32z" />
    <glyph glyph-name="Euro" unicode="&#x20ac;" 
d="M527 675v-173h-59c-19 79 -35 120 -109 120c-93 -1 -115 -81 -126 -218h226l-19 -46h-208c-1 -9 -1 -17 -1 -26v-26h185l-19 -46h-164c8 -138 59 -218 143 -218c50 0 80 17 115 67h9l35 -34v-10c-33 -40 -87 -72 -193 -72c-160 0 -239 96 -256 267h-69l19 46h43
c-1 10 -1 20 -1 28c0 7 0 16 1 24h-62l19 46h47c20 173 90 278 259 278c52 0 87 -15 112 -32l15 25h58z" />
    <glyph glyph-name="afii61289" unicode="&#x2113;" horiz-adv-x="446" 
d="M406 146l24 -23c-43 -81 -104 -130 -189 -130c-57 0 -92 16 -115 39c-24 30 -38 56 -38 147v59l-56 -35l-14 32l70 49v134c0 135 13 187 53 239c35 44 76 64 117 64c73 0 107 -62 107 -137c0 -110 -53 -184 -148 -272v-75c0 -121 21 -165 80 -165c47 0 82 36 109 74z
M217 470v-101c43 50 75 122 75 213c0 59 -11 102 -38 102c-32 0 -37 -43 -37 -214z" />
    <glyph glyph-name="estimated" unicode="&#x212e;" horiz-adv-x="831" 
d="M798 327h-620c-3 0 -5 -1 -5 -4v-188c0 -8 3 -15 8 -21c60 -62 143 -102 234 -102c99 0 187 45 247 114h55c-68 -80 -179 -133 -303 -133c-211 0 -382 153 -382 343c0 191 171 344 382 344c212 0 384 -153 384 -344v-9zM657 351v189c0 8 -3 16 -9 22
c-60 59 -142 98 -233 98c-90 0 -173 -40 -233 -101c-6 -6 -9 -14 -9 -23v-185c0 -2 2 -6 5 -6h475c3 0 4 4 4 6z" />
    <glyph glyph-name="partialdiff" unicode="&#x2202;" horiz-adv-x="551" 
d="M267 423h1c42 0 89 -17 117 -55c5 31 10 72 12 108c2 47 -1 98 -23 145c-19 35 -55 61 -106 61c-57 0 -110 -37 -146 -67c-19 0 -53 62 -42 90c35 20 78 39 147 39c102 0 175 -54 223 -140c42 -76 54 -167 54 -229c0 -79 -15 -167 -51 -235c-43 -86 -116 -147 -222 -147
c-115 0 -191 74 -191 194c0 70 28 128 62 165c39 44 99 71 165 71zM299 374h-1c-28 0 -58 -8 -86 -53c-28 -51 -43 -130 -43 -201c0 -57 22 -89 66 -89c41 0 72 55 92 100c24 57 37 110 48 189c-11 22 -38 54 -76 54z" />
    <glyph glyph-name="product" unicode="&#x220f;" horiz-adv-x="718" 
d="M691 673v-34c-85 -7 -92 -17 -92 -95v-490c0 -84 8 -93 91 -100v-35h-301v35c70 6 74 12 74 99v541c0 32 -5 36 -37 36h-138c-31 0 -34 -3 -34 -33v-544c0 -82 0 -93 67 -99v-35h-294v35c82 6 90 17 90 99v491c0 79 -7 88 -94 95v34h668z" />
    <glyph glyph-name="summation" unicode="&#x2211;" horiz-adv-x="566" 
d="M543 129l-48 -218h-469v34l213 301l-209 392v35h465c1 -18 7 -106 12 -176l-35 -7c-10 41 -23 77 -38 103c-16 30 -32 39 -105 39h-137l160 -294l-218 -315h228c89 0 101 6 146 115z" />
    <glyph glyph-name="uni2219" unicode="&#x2219;" horiz-adv-x="278" 
d="M55 279c0 46 38 84 84 84s84 -38 84 -84s-38 -84 -84 -84s-84 38 -84 84z" />
    <glyph glyph-name="radical" unicode="&#x221a;" horiz-adv-x="559" 
d="M549 837l-175 -998l-31 -13l-208 521l-87 -39l-13 42l188 83l139 -370h2l134 783z" />
    <glyph glyph-name="infinity" unicode="&#x221e;" horiz-adv-x="743" 
d="M698 275v-1c0 -109 -78 -171 -157 -171c-52 0 -107 19 -169 106c-49 -62 -98 -106 -174 -106c-81 0 -155 65 -155 166c0 100 71 168 163 168c71 0 121 -38 170 -102c36 41 83 103 170 102c83 0 152 -64 152 -162zM207 178h1c50 0 88 44 123 87c-38 53 -68 98 -127 98
c-51 0 -83 -38 -84 -95c0 -49 38 -90 87 -90zM538 363h-1c-55 0 -94 -56 -123 -91c55 -72 83 -94 129 -94c50 0 78 51 78 90c0 54 -32 95 -83 95z" />
    <glyph glyph-name="integral" unicode="&#x222b;" horiz-adv-x="405" 
d="M159 -15l-21 380c-19 365 100 436 180 436c34 0 77 -19 77 -58c0 -42 -32 -62 -61 -62c-40 0 -36 66 -57 66c-18 0 -30 -24 -24 -142l19 -351c18 -331 -78 -460 -185 -460c-42 0 -76 27 -76 60c-1 38 37 65 70 65c34 0 33 -72 54 -72c24 0 29 54 24 138z" />
    <glyph glyph-name="approxequal" unicode="&#x2248;" horiz-adv-x="525" 
d="M439 439l52 -47c-33 -60 -83 -101 -135 -101c-39 0 -66 12 -105 37c-27 17 -49 31 -80 31c-41 0 -65 -33 -89 -67l-52 47c29 55 86 100 146 100c46 0 75 -18 99 -33c35 -22 53 -34 79 -34c35 0 59 27 85 67zM439 256l52 -48c-33 -59 -81 -100 -136 -100
c-39 0 -66 13 -104 36c-29 18 -50 32 -79 32c-43 0 -66 -34 -90 -68l-52 47c29 55 86 100 146 100c47 0 75 -19 99 -32c28 -17 49 -35 79 -35c36 0 58 27 85 68z" />
    <glyph glyph-name="notequal" unicode="&#x2260;" horiz-adv-x="525" 
d="M392 491l-35 -79h123v-81h-153l-53 -123h206v-81h-238l-46 -107l-63 26l35 81h-123v81h154l53 123h-207v81h237l46 105z" />
    <glyph glyph-name="lessequal" unicode="&#x2264;" horiz-adv-x="525" 
d="M478 101l-429 210v87l429 210v-92l-349 -160v-2l349 -161v-92zM481 -15h-435v82h435v-82z" />
    <glyph glyph-name="greaterequal" unicode="&#x2265;" horiz-adv-x="525" 
d="M51 608l428 -210v-87l-428 -210v92l348 161v2l-348 160v92zM479 -15h-432v82h432v-82z" />
    <glyph glyph-name="lozenge" unicode="&#x25ca;" horiz-adv-x="568" 
d="M523 321l-190 -391h-99l-189 391l192 394h97zM432 321l-146 311h-3l-147 -310l147 -313h3z" />
    <glyph glyph-name="uni00A0" unicode="&#xa0;" horiz-adv-x="278" 
 />
    <glyph glyph-name="uni00AD" unicode="&#xad;" horiz-adv-x="389" 
d="M56 183v108h277v-108h-277z" />
    <glyph glyph-name="uni02C9" unicode="&#x2c9;" horiz-adv-x="278" 
d="M1 598v60h276v-60h-276z" />
    <glyph glyph-name="uni03A9" unicode="&#x3a9;" horiz-adv-x="728" 
d="M694 168l-27 -168h-254l-10 22c39 91 107 225 106 349c0 196 -65 265 -148 265c-85 0 -144 -62 -144 -268c0 -121 58 -246 104 -345l-9 -23h-255l-25 168h34c22 -57 36 -67 79 -67h91c-70 51 -172 129 -172 275c0 183 129 298 301 298c173 0 296 -111 296 -292
c0 -132 -97 -214 -178 -281h103c39 0 53 9 73 67h35z" />
    <glyph glyph-name="uni2215" unicode="&#x2215;" horiz-adv-x="167" 
d="M-168 -36l441 746h62l-441 -746h-62z" />
    <glyph glyph-name="a.superior" horiz-adv-x="361" 
d="M309 423h36v-36h-138v28h-2c-19 -22 -52 -34 -91 -34c-53 0 -98 33 -98 90c0 61 42 104 112 104c32 0 62 -10 78 -28l1 2v53c0 32 -17 44 -49 44c-34 0 -64 -9 -80 -38h-4l-34 41c36 23 75 33 119 33c81 0 150 -10 150 -87v-172zM207 444v61c0 20 -17 34 -40 34
c-34 0 -49 -27 -49 -62c0 -30 14 -54 46 -54c22 0 35 9 43 21z" />
    <glyph glyph-name="o.superior" horiz-adv-x="397" 
d="M23 532c0 82 67 150 175 150c109 0 176 -68 176 -150s-67 -151 -176 -151c-108 0 -175 69 -175 151zM131 532c0 -49 9 -115 67 -115c59 0 68 66 68 115s-9 114 -68 114c-58 0 -67 -65 -67 -114z" />
    <glyph glyph-name="one.superior" horiz-adv-x="361" 
d="M78 276v36h61v292c-16 -16 -35 -30 -54 -42l-26 30c33 21 92 67 117 90h65v-370h61v-36h-224z" />
    <glyph glyph-name="two.superior" horiz-adv-x="361" 
d="M283 342v37h48v-103h-295c-4 0 -6 2 -6 6c0 3 5 9 16 20l33 33c61 61 143 151 143 244c0 34 -5 67 -47 67c-44 0 -55 -38 -55 -78h-90c0 79 68 114 153 114c78 0 148 -32 148 -113c0 -69 -78 -130 -131 -175l-63 -50v-2h146z" />
    <glyph glyph-name="three.superior" horiz-adv-x="361" 
d="M139 474v39c11 -1 21 -3 32 -3c50 0 58 31 58 73c0 30 -10 63 -50 63c-45 0 -47 -47 -47 -80h-84c0 83 58 116 143 116c74 0 136 -31 136 -100c0 -44 -26 -76 -77 -88v-2c59 -9 87 -52 87 -100c0 -84 -75 -124 -164 -124c-91 0 -149 43 -149 126h90c2 -41 4 -90 59 -90
c54 0 56 51 56 89c0 40 -10 81 -59 81h-31z" />
    <glyph glyph-name="uni2206" unicode="&#x2206;" horiz-adv-x="651" 
d="M617 0h-583v37l256 623l60 14l267 -637v-37zM452 63l-176 432l-172 -432h348z" />
    <glyph glyph-name="uni2010" unicode="&#x2010;" horiz-adv-x="389" 
d="M56 183v108h277v-108h-277z" />
    </font>
</defs>
</svg>
