<?xml version="1.0" encoding="utf-8"?>
<!-- Generator: Adobe Illustrator 18.1.0, SVG Export Plug-In . SVG Version: 6.00 Build 0)  -->
<!DOCTYPE svg PUBLIC "-//W3C//DTD SVG 1.1//EN" "http://www.w3.org/Graphics/SVG/1.1/DTD/svg11.dtd">
<svg version="1.1" xmlns="http://www.w3.org/2000/svg" xmlns:xlink="http://www.w3.org/1999/xlink" x="0px" y="0px"
	 viewBox="0 0 261.2 201.1" enable-background="new 0 0 261.2 201.1" xml:space="preserve">
<g id="Frame">
	<path fill="none" stroke="#FFFFFF" stroke-miterlimit="10" d="M240.7,200.6h-220c-11,0-20-9-20-20v-160c0-11,9-20,20-20h220
		c11,0,20,9,20,20v160C260.7,191.6,251.7,200.6,240.7,200.6z"/>
</g>
<g id="browser">
	<g display="none">
		<path display="inline" fill="#FFFFFF" d="M148.3,164.4l10.7,8.4v-27.9l-11.3,14.3C146.4,160.8,146.7,163.1,148.3,164.4z"/>
		<path display="inline" fill="#FFFFFF" d="M19,19v181.6h221.8V19H19z M177,70.3c13.5,0,24.5,11,24.5,24.5s-11,24.5-24.5,24.5
			c-13.5,0-24.5-11-24.5-24.5S163.5,70.3,177,70.3z M222.4,164.8c-0.5,1.9-1.6,3.5-3.1,4.7l-21.7,17.3V200h-38.7v-13.1l-21.8-17.4
			c-1.5-1.2-2.6-2.8-3.1-4.7c-0.8-2.8-0.1-5.9,1.7-8.2l7.8-9.6l15.4-19v-6.7h38.7v6.8l15.2,18.9l7.8,9.6
			C222.5,158.9,223.1,161.9,222.4,164.8z"/>
		<path fill="#FFFFFF" d="M197.6,145.1v27.6l10.5-8.3c1.6-1.2,1.9-3.5,0.6-5.1L197.6,145.1z"/>
	</g>
	<g id="armarea">
		<path fill="#FFFFFF" d="M148.3,164.4l10.7,8.4v-27.9l-11.3,14.3C146.4,160.8,146.7,163.1,148.3,164.4z"/>
		<path fill="#FFFFFF" d="M197.6,145.1v27.6l10.5-8.3c1.6-1.2,1.9-3.5,0.6-5.1L197.6,145.1z"/>
	</g>
	<g id="cleanclean">
		<path fill="#FFFFFF" d="M86.9,62.2c-0.2,0.1-0.3,0.4-0.3,0.7c0,0.3,0.1,0.4,0.2,0.5c0.1,0.1,0.3,0.1,0.6,0.1
			c0.2,0,0.4-0.1,0.6-0.2c0.2-0.1,0.5-0.3,0.7-0.4v-1.1L88,61.9C87.5,62,87.1,62.1,86.9,62.2z"/>
		<path fill="#FFFFFF" d="M50.2,59.8c-0.2,0-0.4,0-0.6,0.1c-0.2,0.1-0.3,0.2-0.4,0.4c-0.1,0.2-0.2,0.4-0.2,0.8h2.3
			C51.3,60.2,50.9,59.8,50.2,59.8z"/>
		<path fill="#FFFFFF" d="M81.7,59.8c-0.2,0-0.4,0-0.6,0.1c-0.2,0.1-0.3,0.2-0.4,0.4c-0.1,0.2-0.2,0.4-0.2,0.8h2.3
			C82.8,60.2,82.4,59.8,81.7,59.8z"/>
		<path fill="#FFFFFF" d="M55.3,62.2c-0.2,0.1-0.3,0.4-0.3,0.7c0,0.3,0.1,0.4,0.2,0.5c0.1,0.1,0.3,0.1,0.6,0.1
			c0.2,0,0.4-0.1,0.6-0.2c0.2-0.1,0.5-0.3,0.7-0.4v-1.1l-0.7,0.1C55.9,62,55.6,62.1,55.3,62.2z"/>
	</g>
	<g id="Cleanfeeling">
		<path fill="#FFFFFF" d="M65.6,44.4C65.2,44.6,65,45,65,45.5c0,0.4,0.1,0.7,0.4,0.9s0.5,0.2,0.9,0.2c0.3,0,0.6-0.1,1-0.3
			s0.8-0.4,1.2-0.7v-1.8l-1.2,0.1C66.5,44,65.9,44.1,65.6,44.4z"/>
		<path fill="#FFFFFF" d="M57.1,40.4c-0.4,0-0.7,0.1-1,0.2s-0.5,0.3-0.6,0.6s-0.3,0.7-0.4,1.3h3.8C58.9,41.1,58.3,40.4,57.1,40.4z"
			/>
		<path fill="#FFFFFF" d="M111.4,40.4c-0.4,0-0.7,0.1-1,0.2s-0.5,0.3-0.6,0.6s-0.3,0.7-0.4,1.3h3.8
			C113.2,41.1,112.6,40.4,111.4,40.4z"/>
		<path fill="#FFFFFF" d="M143.7,41.4c-0.6-0.6-1.3-0.8-2-0.8c-0.6,0-1,0.3-1.4,0.8s-0.6,1.2-0.6,2c0,0.9,0.2,1.6,0.5,2.1
			c0.3,0.4,0.8,0.7,1.3,0.7c0.8,0,1.5-0.3,2.2-0.9V41.4z"/>
		<path fill="#FFFFFF" d="M101.3,40.4c-0.4,0-0.7,0.1-1,0.2s-0.5,0.3-0.6,0.6s-0.3,0.7-0.4,1.3h3.8
			C103.2,41.1,102.6,40.4,101.3,40.4z"/>
	</g>
	<path fill="#FFFFFF" d="M19,19v181.6h221.8V19H19z M231.6,20.4h5.4v0.9h-5.4V20.4z M231.6,22.3h5.4v0.9h-5.4V22.3z M231.6,24.2h5.4
		v0.9h-5.4V24.2z M40,21.5h187.2v3H40V21.5z M32.3,21.7c0.6,0,1.1,0.5,1.1,1.1c0,0.6-0.5,1.1-1.1,1.1c-0.6,0-1.1-0.5-1.1-1.1
		C31.2,22.2,31.7,21.7,32.3,21.7z M28.3,21.7c0.6,0,1.1,0.5,1.1,1.1c0,0.6-0.5,1.1-1.1,1.1c-0.6,0-1.1-0.5-1.1-1.1
		C27.2,22.2,27.7,21.7,28.3,21.7z M24.3,21.7c0.6,0,1.1,0.5,1.1,1.1c0,0.6-0.5,1.1-1.1,1.1c-0.6,0-1.1-0.5-1.1-1.1
		C23.2,22.2,23.7,21.7,24.3,21.7z M108.4,133H36.9v-2h71.5V133z M108.4,123H36.9v-2h71.5V123z M108.4,113H36.9v-2h71.5V113z
		 M108.4,102H36.9v-2h71.5V102z M108.4,91H36.9v-2h71.5V91z M108.4,80H36.9v-2h71.5V80z M39.4,62.7c0.3,0.4,0.8,0.6,1.4,0.6
		c0.4,0,0.8-0.1,1-0.3c0.2-0.2,0.5-0.4,0.7-0.7l1.2,0.9c-0.3,0.5-0.7,0.8-1.2,1.1c-0.5,0.2-1,0.3-1.7,0.3c-2.3,0-3.5-1.3-3.5-3.9
		c0-1.3,0.3-2.3,0.9-2.9s1.4-0.9,2.5-0.9c0.7,0,1.3,0.1,1.8,0.4c0.5,0.2,0.8,0.6,1,1l-1.2,0.9c-0.2-0.3-0.3-0.4-0.5-0.6
		s-0.3-0.2-0.5-0.3s-0.4-0.1-0.7-0.1c-0.6,0-1.1,0.2-1.4,0.6c-0.3,0.4-0.5,1-0.5,1.9C39,61.6,39.1,62.3,39.4,62.7z M44.8,64.5v-8
		h1.4v8H44.8z M49.3,63.1c0.2,0.2,0.6,0.3,1,0.3c0.3,0,0.5,0,0.7-0.1c0.2-0.1,0.4-0.2,0.5-0.4l1,0.7c-0.2,0.3-0.5,0.6-0.9,0.7
		c-0.4,0.2-0.9,0.2-1.5,0.2c-0.9,0-1.6-0.2-2.1-0.7c-0.5-0.5-0.7-1.2-0.7-2.2c0-2,0.9-3,2.7-3c0.8,0,1.4,0.2,1.8,0.7
		c0.4,0.5,0.6,1.1,0.6,2V62h-3.7C48.9,62.5,49.1,62.9,49.3,63.1z M56.8,60c-0.2-0.1-0.5-0.2-0.8-0.2c-0.3,0-0.6,0.1-0.8,0.2
		c-0.2,0.1-0.4,0.2-0.5,0.4l-1.1-0.7c0.2-0.3,0.5-0.6,0.9-0.7c0.4-0.2,0.9-0.3,1.5-0.3c0.9,0,1.5,0.2,1.9,0.5
		c0.4,0.3,0.6,0.8,0.6,1.5v3.8h-1.3v-0.6c-0.5,0.5-1.1,0.8-1.8,0.8c-0.6,0-1.1-0.2-1.4-0.5c-0.3-0.3-0.5-0.7-0.5-1.3
		c0-0.4,0.1-0.7,0.2-1c0.2-0.3,0.4-0.5,0.7-0.6c0.3-0.1,0.8-0.3,1.4-0.3l1.2-0.1v-0.3C57.1,60.3,57,60.1,56.8,60z M62.3,58.9
		c0.3-0.2,0.7-0.2,1-0.2c0.6,0,1,0.2,1.3,0.5S65,60,65,60.7v3.8h-1.4v-3.1c0-0.6-0.1-1-0.2-1.2c-0.1-0.2-0.3-0.3-0.6-0.3
		c-0.4,0-0.9,0.3-1.5,0.8v3.8H60v-5.6h1.4v0.7C61.7,59.3,62,59.1,62.3,58.9z M70.9,62.7c0.3,0.4,0.8,0.6,1.4,0.6
		c0.4,0,0.8-0.1,1-0.3c0.2-0.2,0.5-0.4,0.7-0.7l1.2,0.9c-0.3,0.5-0.7,0.8-1.2,1.1c-0.5,0.2-1,0.3-1.7,0.3c-2.3,0-3.5-1.3-3.5-3.9
		c0-1.3,0.3-2.3,0.9-2.9s1.4-0.9,2.5-0.9c0.7,0,1.3,0.1,1.8,0.4c0.5,0.2,0.8,0.6,1,1L74,59.2c-0.2-0.3-0.3-0.4-0.5-0.6
		s-0.3-0.2-0.5-0.3s-0.4-0.1-0.7-0.1c-0.6,0-1.1,0.2-1.4,0.6c-0.3,0.4-0.5,1-0.5,1.9C70.5,61.6,70.6,62.3,70.9,62.7z M76.4,64.5v-8
		h1.4v8H76.4z M80.8,63.1c0.2,0.2,0.6,0.3,1,0.3c0.3,0,0.5,0,0.7-0.1c0.2-0.1,0.4-0.2,0.5-0.4l1,0.7c-0.2,0.3-0.5,0.6-0.9,0.7
		c-0.4,0.2-0.9,0.2-1.5,0.2c-0.9,0-1.6-0.2-2.1-0.7c-0.5-0.5-0.7-1.2-0.7-2.2c0-2,0.9-3,2.7-3c0.8,0,1.4,0.2,1.8,0.7
		c0.4,0.5,0.6,1.1,0.6,2V62h-3.7C80.5,62.5,80.6,62.9,80.8,63.1z M88.4,60c-0.2-0.1-0.5-0.2-0.8-0.2c-0.3,0-0.6,0.1-0.8,0.2
		c-0.2,0.1-0.4,0.2-0.5,0.4l-1.1-0.7c0.2-0.3,0.5-0.6,0.9-0.7c0.4-0.2,0.9-0.3,1.5-0.3c0.9,0,1.5,0.2,1.9,0.5
		c0.4,0.3,0.6,0.8,0.6,1.5v3.8h-1.3v-0.6c-0.5,0.5-1.1,0.8-1.8,0.8c-0.6,0-1.1-0.2-1.4-0.5c-0.3-0.3-0.5-0.7-0.5-1.3
		c0-0.4,0.1-0.7,0.2-1c0.2-0.3,0.4-0.5,0.7-0.6c0.3-0.1,0.8-0.3,1.4-0.3l1.2-0.1v-0.3C88.7,60.3,88.6,60.1,88.4,60z M93.9,58.9
		c0.3-0.2,0.7-0.2,1-0.2c0.6,0,1,0.2,1.3,0.5s0.4,0.8,0.4,1.6v3.8h-1.4v-3.1c0-0.6-0.1-1-0.2-1.2c-0.1-0.2-0.3-0.3-0.6-0.3
		c-0.4,0-0.9,0.3-1.5,0.8v3.8h-1.4v-5.6h1.4v0.7C93.2,59.3,93.6,59.1,93.9,58.9z M222.4,164.8c-0.5,1.9-1.6,3.5-3.1,4.7l-21.7,17.3
		V200h-38.7v-13.1l-21.8-17.4c-1.5-1.2-2.6-2.8-3.1-4.7c-0.8-2.8-0.1-5.9,1.7-8.2l7.8-9.6l15.4-19v-6.7h38.7v6.8l15.2,18.9l7.8,9.6
		C222.5,158.9,223.1,161.9,222.4,164.8z M152.5,94.8c0-13.5,11-24.5,24.5-24.5c13.5,0,24.5,11,24.5,24.5s-11,24.5-24.5,24.5
		C163.5,119.2,152.5,108.3,152.5,94.8z M223.4,53.5H35.9v-1h187.5V53.5z M39.5,45.1c0.5,0.7,1.3,1,2.3,1c0.7,0,1.3-0.1,1.7-0.4
		s0.8-0.6,1.1-1.1l2,1.4c-0.5,0.8-1.2,1.4-1.9,1.7s-1.7,0.5-2.8,0.5c-3.8,0-5.7-2.1-5.7-6.3c0-2.2,0.5-3.8,1.4-4.8s2.3-1.5,4.1-1.5
		c1.2,0,2.2,0.2,2.9,0.6s1.3,0.9,1.7,1.6l-1.9,1.5c-0.3-0.4-0.5-0.7-0.8-0.9s-0.5-0.3-0.8-0.4s-0.7-0.1-1.1-0.1c-1,0-1.8,0.3-2.3,1
		s-0.8,1.7-0.8,3.2C38.8,43.4,39,44.4,39.5,45.1z M48.4,48.1V35h2.3v13.1H48.4z M55.7,45.8c0.4,0.4,0.9,0.5,1.7,0.5
		c0.4,0,0.8-0.1,1.2-0.2s0.6-0.3,0.9-0.6l1.7,1.2c-0.4,0.5-0.8,0.9-1.4,1.2s-1.4,0.4-2.4,0.4c-1.5,0-2.6-0.4-3.4-1.2s-1.1-2-1.1-3.6
		c0-3.3,1.5-4.9,4.4-4.9c1.3,0,2.3,0.4,3,1.1s1,1.8,1,3.2v1.1h-6.1C55.1,44.9,55.3,45.5,55.7,45.8z M68,40.7
		c-0.3-0.2-0.8-0.3-1.4-0.3c-0.5,0-0.9,0.1-1.3,0.2s-0.6,0.4-0.8,0.7l-1.8-1.1c0.3-0.5,0.8-0.9,1.5-1.2s1.5-0.4,2.4-0.4
		c1.4,0,2.5,0.3,3.1,0.8s1,1.3,1,2.5v6.3h-2.1v-1c-0.9,0.8-1.9,1.2-2.9,1.2c-1,0-1.8-0.3-2.3-0.8s-0.8-1.2-0.8-2.1
		c0-0.7,0.1-1.2,0.4-1.6s0.7-0.8,1.2-1s1.3-0.4,2.3-0.5l1.9-0.2v-0.4C68.5,41.2,68.3,40.9,68,40.7z M77.1,39
		c0.5-0.2,1.1-0.4,1.6-0.4c0.9,0,1.6,0.3,2.1,0.8s0.7,1.4,0.7,2.6v6.2h-2.3V43c0-1-0.1-1.6-0.3-1.9s-0.5-0.5-1-0.5
		c-0.7,0-1.5,0.4-2.4,1.3v6.2h-2.3v-9.2h2.3v1.2C76,39.6,76.5,39.2,77.1,39z M95.3,40.8V43h-4.5v5.1h-2.5V35.9h7.8v2.3h-5.3v2.6
		H95.3z M99.9,45.8c0.4,0.4,0.9,0.5,1.7,0.5c0.4,0,0.8-0.1,1.2-0.2s0.6-0.3,0.9-0.6l1.7,1.2c-0.4,0.5-0.8,0.9-1.4,1.2
		s-1.4,0.4-2.4,0.4c-1.5,0-2.6-0.4-3.4-1.2s-1.1-2-1.1-3.6c0-3.3,1.5-4.9,4.4-4.9c1.3,0,2.3,0.4,3,1.1s1,1.8,1,3.2v1.1h-6.1
		C99.3,44.9,99.5,45.5,99.9,45.8z M110,45.8c0.4,0.4,0.9,0.5,1.7,0.5c0.4,0,0.8-0.1,1.2-0.2s0.6-0.3,0.9-0.6l1.7,1.2
		c-0.4,0.5-0.8,0.9-1.4,1.2s-1.4,0.4-2.4,0.4c-1.5,0-2.6-0.4-3.4-1.2s-1.1-2-1.1-3.6c0-3.3,1.5-4.9,4.4-4.9c1.3,0,2.3,0.4,3,1.1
		s1,1.8,1,3.2v1.1h-6.1C109.4,44.9,109.6,45.5,110,45.8z M117.5,48.1V35h2.3v13.1H117.5z M124.4,37.2c-0.2,0.2-0.5,0.3-1,0.3
		c-0.5,0-0.8-0.1-1-0.3s-0.3-0.5-0.3-0.9c0-0.4,0.1-0.7,0.3-0.9s0.5-0.3,1-0.3c0.5,0,0.8,0.1,1,0.3s0.3,0.5,0.3,0.9
		C124.8,36.8,124.6,37.1,124.4,37.2z M124.6,38.9v9.2h-2.3v-9.2H124.6z M131,39c0.5-0.2,1.1-0.4,1.6-0.4c0.9,0,1.6,0.3,2.1,0.8
		s0.7,1.4,0.7,2.6v6.2h-2.3V43c0-1-0.1-1.6-0.3-1.9c-0.2-0.3-0.5-0.5-1-0.5c-0.7,0-1.5,0.4-2.4,1.3v6.2h-2.3v-9.2h2.3v1.2
		C129.9,39.6,130.4,39.2,131,39z M141,48.1c-1.1,0-2-0.4-2.7-1.2s-1-2-1-3.5c0-0.9,0.2-1.8,0.5-2.5c0.3-0.7,0.7-1.3,1.3-1.7
		s1.3-0.6,2.1-0.6c0.5,0,1,0.1,1.5,0.3s0.9,0.5,1.2,0.8l0.3-0.9h1.7v9c0,1.2-0.4,2.1-1.1,2.7s-2,0.9-3.6,0.9c-1.4,0-2.6-0.3-3.6-0.8
		l0.7-1.9c1,0.4,1.9,0.7,2.9,0.7c0.9,0,1.6-0.1,2-0.4s0.5-0.7,0.5-1.4v-0.8C143,47.7,142.1,48.1,141,48.1z M237.5,200.3h-1V27.5
		H23.8v172.8h-1V26.5h214.7V200.3z"/>
</g>
<g id="Layer_6">
	<defs>
		<filter id="Adobe_OpacityMaskFilter" filterUnits="userSpaceOnUse" x="158.6" y="101.2" width="37" height="14.1">
			<feFlood  style="flood-color:white;flood-opacity:1" result="back"/>
			<feBlend  in="SourceGraphic" in2="back" mode="normal"/>
		</filter>
	</defs>
	<mask maskUnits="userSpaceOnUse" x="158.6" y="101.2" width="37" height="14.1" id="teethbk_1_">
		<g filter="url(#Adobe_OpacityMaskFilter)">
			<g>
				<path fill="#FFFFFF" d="M177,114.3c8.5,0,15.5-5.4,16.9-12.5h-33.8C161.5,108.9,168.5,114.3,177,114.3z"/>
			</g>
		</g>
	</mask>
	<g id="teethbk" display="none" mask="url(#teethbk_1_)">
		<g display="inline">
			<path fill="#231815" d="M165.6,109.4h-7v-8.2h7V109.4z M159.6,108.4h5v-6.2h-5V108.4z"/>
		</g>
		<g display="inline">
			<path fill="#231815" d="M171.6,109.4h-7v-8.2h7V109.4z M165.6,108.4h5v-6.2h-5V108.4z"/>
		</g>
		<g display="inline">
			<path fill="#231815" d="M177.6,109.4h-7v-8.2h7V109.4z M171.6,108.4h5v-6.2h-5V108.4z"/>
		</g>
		<g display="inline">
			<path fill="#231815" d="M183.6,109.4h-7v-8.2h7V109.4z M177.6,108.4h5v-6.2h-5V108.4z"/>
		</g>
		<g display="inline">
			<path fill="#231815" d="M189.6,109.4h-7v-8.2h7V109.4z M183.6,108.4h5v-6.2h-5V108.4z"/>
		</g>
		<g display="inline">
			<path fill="#231815" d="M195.6,109.4h-7v-8.2h7V109.4z M189.6,108.4h5v-6.2h-5V108.4z"/>
		</g>
		<g display="inline">
			<path fill="#231815" d="M171.6,115.4h-7v-7h7V115.4z M165.6,114.4h5v-5h-5V114.4z"/>
		</g>
		<g display="inline">
			<path fill="#231815" d="M177.6,115.4h-7v-7h7V115.4z M171.6,114.4h5v-5h-5V114.4z"/>
		</g>
		<g display="inline">
			<path fill="#231815" d="M183.6,115.4h-7v-7h7V115.4z M177.6,114.4h5v-5h-5V114.4z"/>
		</g>
		<g display="inline">
			<path fill="#231815" d="M189.6,115.4h-7v-7h7V115.4z M183.6,114.4h5v-5h-5V114.4z"/>
		</g>
	</g>
	<g display="none">
		<path display="inline" fill="#231815" d="M177,114.2c-9.1,0-16.8-5.9-17.4-13.5l0-0.5h34.9l0,0.5
			C193.7,108.3,186.1,114.2,177,114.2z M160.6,101.1c0.9,6.8,8,12.1,16.4,12.1s15.4-5.3,16.4-12.1H160.6z"/>
	</g>
	<g display="none">
		<path display="inline" fill="#231815" d="M177,114.2c-9.1,0-16.8-5.9-17.4-13.5l0-0.5h34.9l0,0.5
			C193.7,108.3,186.1,114.2,177,114.2z M160.6,101.1c0.9,6.8,8,12.1,16.4,12.1s15.4-5.3,16.4-12.1H160.6z"/>
	</g>
	<path id="crippedteeth" display="none" fill="#231815" d="M189.6,108.4v-6.2h4.6c0.1-0.3,0.1-0.7,0.2-1h-4.8h-1h-5h-1h-5h-1h-5h-1
		h-5h-1h-4.9c0,0.3,0.1,0.7,0.2,1h4.8v6.2h-1.5c0.3,0.3,0.6,0.7,1,1h0.5v0.4c0.3,0.3,0.7,0.5,1,0.8v-1.2h5v3.8
		c0.3,0.1,0.7,0.2,1,0.3v-4.1h5v4.8c0.1,0,0.3,0,0.4,0c0.2,0,0.4,0,0.6,0v-4.8h5v4c0.3-0.1,0.7-0.2,1-0.3v-3.7h5v1.1
		c0.3-0.3,0.7-0.5,1-0.8v-0.3h0.3c0.3-0.3,0.7-0.7,1-1H189.6z M170.6,108.4h-5v-6.2h5V108.4z M176.6,108.4h-5v-6.2h5V108.4z
		 M182.6,108.4h-5v-6.2h5V108.4z M188.6,108.4h-5v-6.2h5V108.4z"/>
	<g id="Teeth" display="none">
		<rect x="183.6" y="102.2" display="inline" fill="#FFFFFF" width="5" height="6.2"/>
		<rect x="177.6" y="102.2" display="inline" fill="#FFFFFF" width="5" height="6.2"/>
		<rect x="171.6" y="102.2" display="inline" fill="#FFFFFF" width="5" height="6.2"/>
		<path display="inline" fill="#FFFFFF" d="M194.3,101.2L194.3,101.2c-0.1,0.3-0.1,0.6-0.2,0.9C194.2,101.8,194.3,101.5,194.3,101.2
			z"/>
		<path display="inline" fill="#FFFFFF" d="M189.6,109.7c0.1-0.1,0.2-0.2,0.3-0.3h-0.3V109.7z"/>
		<path display="inline" fill="#FFFFFF" d="M194.1,102.2h-4.6v6.2h1.3C192.5,106.6,193.6,104.5,194.1,102.2z"/>
		<rect x="165.6" y="102.2" display="inline" fill="#FFFFFF" width="5" height="6.2"/>
		<path display="inline" fill="#FFFFFF" d="M176.6,109.4h-5v4.1c-0.3-0.1-0.7-0.2-1-0.3v-3.8h-5v1.2c-0.3-0.2-0.6-0.4-0.9-0.7
			c3.2,2.6,7.5,4.3,12.3,4.3c-0.1,0-0.3,0-0.4,0V109.4z"/>
		<path display="inline" fill="#FFFFFF" d="M164.6,109.9v-0.4h-0.5C164.2,109.6,164.4,109.7,164.6,109.9z"/>
		<path display="inline" fill="#FFFFFF" d="M190.6,108.7c0,0,0.1-0.1,0.1-0.1C190.7,108.6,190.7,108.6,190.6,108.7z"/>
		<path display="inline" fill="#FFFFFF" d="M188.6,110.5v-1.1h-5v3.7c-0.3,0.1-0.7,0.2-1,0.3v-4h-5v4.8c-0.2,0-0.4,0-0.6,0
			c4.9,0,9.4-1.7,12.5-4.5C189.2,110,188.9,110.3,188.6,110.5z"/>
		<path display="inline" fill="#FFFFFF" d="M163.2,108.5c0,0,0.1,0.1,0.1,0.1C163.3,108.6,163.2,108.6,163.2,108.5z"/>
		<path display="inline" fill="#FFFFFF" d="M163.1,108.4h1.5v-6.2h-4.8C160.3,104.5,161.5,106.6,163.1,108.4z"/>
		<path display="inline" fill="#FFFFFF" d="M159.6,101.2L159.6,101.2c0,0.3,0.1,0.6,0.1,0.9C159.7,101.8,159.7,101.5,159.6,101.2z"
			/>
	</g>
	<g id="Teeth_1_">
		<rect x="171.6" y="102.2" fill="#FFFFFF" width="5" height="6.2"/>
		<path fill="#FFFFFF" d="M194.3,101.2L194.3,101.2c-0.1,0.3-0.1,0.6-0.2,0.9C194.2,101.8,194.3,101.5,194.3,101.2z"/>
		<path fill="#FFFFFF" d="M189.6,109.7c0.1-0.1,0.2-0.2,0.3-0.3h-0.3V109.7z"/>
		<path fill="#FFFFFF" d="M194.1,102.2h-4.6v6.2h1.3C192.5,106.6,193.6,104.5,194.1,102.2z"/>
		<rect x="165.6" y="102.2" fill="#FFFFFF" width="5" height="6.2"/>
		<path fill="#FFFFFF" d="M176.6,109.4h-5v4.1c-0.3-0.1-0.7-0.2-1-0.3v-3.8h-5v1.2c-0.3-0.2-0.6-0.4-0.9-0.7
			c3.2,2.6,7.5,4.3,12.3,4.3c-0.1,0-0.3,0-0.4,0V109.4z"/>
		<path fill="#FFFFFF" d="M164.6,109.9v-0.4h-0.5C164.2,109.6,164.4,109.7,164.6,109.9z"/>
		<path fill="#FFFFFF" d="M190.6,108.7c0,0,0.1-0.1,0.1-0.1C190.7,108.6,190.7,108.6,190.6,108.7z"/>
		<path fill="#FFFFFF" d="M163.2,108.5c0,0,0.1,0.1,0.1,0.1C163.3,108.6,163.2,108.6,163.2,108.5z"/>
		<path fill="#FFFFFF" d="M163.1,108.4h1.5v-6.2h-4.8C160.3,104.5,161.5,106.6,163.1,108.4z"/>
		<path fill="#FFFFFF" d="M159.6,101.2L159.6,101.2c0,0.3,0.1,0.6,0.1,0.9C159.7,101.8,159.7,101.5,159.6,101.2z"/>
	</g>
	<g id="tleft">
		<path fill="#FFFFFF" d="M178.9,108.4l0.6-0.5c2.7-2.3,2.9-5.1,2.9-5.2h0.1v-0.5h-5v6.2L178.9,108.4L178.9,108.4z"/>
		<path fill="#FFFFFF" d="M182.6,105.7c-0.4,0.8-1,1.7-1.9,2.6c0.1,0.1,0.1,0.1,0.2,0.2h1.7V105.7z"/>
	</g>
	<g id="tright">
		<path fill="#FFFFFF" d="M183.6,108.4h1.4c0.1-0.1,0.1-0.1,0.2-0.2c-0.7-0.7-1.3-1.4-1.7-2.1V108.4z"/>
		<path fill="#FFFFFF" d="M183.6,102.2v1.2c0.2,1,0.9,2.9,2.8,4.4l0.6,0.5l-0.1,0h1.7v-6.2H183.6z"/>
	</g>
	<g id="tbottom">
		<path fill="#FFFFFF" d="M183.6,109.4v0.7c0.1-0.2,0.3-0.5,0.5-0.7H183.6z"/>
		<path fill="#FFFFFF" d="M182.6,109.4h-0.7c0.3,0.4,0.5,0.7,0.7,1.1V109.4z"/>
		<path fill="#FFFFFF" d="M180.5,109.4h-2.9v4.8c1.7,0,3.3-0.3,4.8-0.7C182.3,112.7,181.9,110.7,180.5,109.4z"/>
		<path fill="#FFFFFF" d="M177,114.2c0.2,0,0.4,0,0.6,0v0C177.4,114.2,177.2,114.2,177,114.2z"/>
		<path fill="#FFFFFF" d="M183.5,113.1C183.6,113.1,183.6,113.1,183.5,113.1L183.5,113.1C183.6,113.1,183.6,113.1,183.5,113.1
			C183.5,113.1,183.5,113.1,183.5,113.1z"/>
		<path fill="#FFFFFF" d="M189.5,109.7c-0.3,0.3-0.6,0.5-1,0.8v0C188.9,110.3,189.2,110,189.5,109.7z"/>
		<path fill="#FFFFFF" d="M185.4,109.4c-1.1,1.1-1.6,2.6-1.8,3.5v0.2c1.8-0.6,3.5-1.5,5-2.6v-1.1H185.4z"/>
	</g>
	<g display="none">
		<path display="inline" fill="#231815" d="M182.5,113.8c0,0-0.2-3.7-2.9-5.1l-0.6-0.3l0.6-0.5c2.7-2.3,2.9-5.1,2.9-5.2h1
			c0,0,0.2,2.9,2.9,5.2l0.6,0.5l-0.6,0.3c-2.6,1.4-2.9,5.1-2.9,5.1L182.5,113.8z M180.7,108.2c1.2,0.9,1.9,2.1,2.3,3.2
			c0.4-1.1,1.1-2.4,2.3-3.2c-1.2-1.2-1.9-2.4-2.3-3.4C182.6,105.8,181.9,107,180.7,108.2z"/>
	</g>
	<g display="none">
		<path display="inline" fill="#FFFFFF" d="M177,114.3c8.5,0,15.5-5.4,16.9-12.5h-33.8C161.5,108.9,168.5,114.3,177,114.3z"/>
	</g>
	<path id="source" display="none" fill="#FFFFFF" stroke="#231815" stroke-miterlimit="10" d="M183.1,102.3c0,0-0.2,3.1-3.1,5.5
		c2.9,1.6,3.1,5.5,3.1,5.5s0.2-3.9,3.1-5.5C183.3,105.3,183.1,102.3,183.1,102.3z"/>
	<path id="kirarin" fill="#FFFFFF" d="M180.8,107.7c1.2,0.9,1.9,2.1,2.3,3.2c0.4-1.1,1.1-2.4,2.3-3.2c-1.2-1.2-1.9-2.4-2.3-3.4
		C182.7,105.3,182,106.6,180.8,107.7z"/>
	<path id="crippedteethbk" display="none" fill="#231815" d="M193.8,102.2c0.1-0.3,0.1-0.7,0.1-1h-4.3h-1h-5h-1h-5h-1h-5h-1h-5h-1
		h-4.5c0,0.3,0.1,0.7,0.1,1h4.4v6.2h-1.4c0.3,0.3,0.6,0.7,0.9,1h0.5v0.4c0.3,0.3,0.7,0.6,1,0.8v-1.3h5v3.9c0.3,0.1,0.7,0.2,1,0.3
		v-4.2h5v4.9c0.1,0,0.3,0,0.4,0c0.2,0,0.4,0,0.6,0v-4.9h3.5c1.2,1.4,1.4,3.3,1.5,3.8v0.3c0.2-0.1,0.5-0.1,0.7-0.2h0.3
		c0,0,0.2-2.3,1.5-3.9h3.5v1.1c0.3-0.3,0.7-0.6,1-0.9v-0.3h0.3c0.3-0.3,0.6-0.7,0.9-1h-1.2v-6.2H193.8z M170.6,108.4h-5v-6.2h5
		V108.4z M176.6,108.4h-5v-6.2h5V108.4z M179.7,108.2c0.3,0.2,0.3,0.2,0.3,0.2h-2.4v-6.2h5v0.1c0-0.1,0-0.1,0-0.1
		c0,0-0.2,2.9-2.9,5.2l-0.6,0.5L179.7,108.2z M183.1,111c-0.4-1.1-1.1-2.4-2.3-3.2c1.2-1.2,1.9-2.4,2.3-3.4c0.4,1,1.1,2.2,2.3,3.4
		C184.2,108.6,183.5,109.9,183.1,111z M188.6,108.4h-2.4c0.1-0.1,0.2-0.1,0.3-0.2l0.6-0.3l-0.6-0.5c-2.4-2-2.9-4.5-2.9-5.1v-0.1h5
		V108.4z"/>
	<path display="none" fill="#231815" d="M193.8,102.2c0.1-0.3,0.1-0.7,0.1-1h-4.3h-1h-5h-1h-5h-1h-5h-1h-5h-1h-4.5
		c0,0.3,0.1,0.7,0.1,1h4.4v6.2h-1.4c0.3,0.3,0.6,0.7,0.9,1h0.5v0.4c0.3,0.3,0.7,0.6,1,0.8v-1.3h5v3.9c0.3,0.1,0.7,0.2,1,0.3v-4.2h5
		v4.9c0.1,0,0.3,0,0.4,0c0.2,0,0.4,0,0.6,0v-4.9h3.5c1.2,1.4,1.4,3.3,1.5,3.8v0.3c0.2-0.1,0.5-0.1,0.7-0.2h0.3c0,0,0.2-2.3,1.5-3.9
		h3.5v1.1c0.3-0.3,0.7-0.6,1-0.9v-0.3h0.3c0.3-0.3,0.6-0.7,0.9-1h-1.2v-6.2H193.8z M170.6,108.4h-5v-6.2h5V108.4z M176.6,108.4h-5
		v-6.2h5V108.4z M179.7,108.2c0.3,0.2,0.3,0.2,0.3,0.2h-2.4v-6.2h5v0.1c0-0.1,0-0.1,0-0.1c0,0-0.2,2.9-2.9,5.2l-0.6,0.5L179.7,108.2
		z M188.6,108.4h-2.4c0.1-0.1,0.2-0.1,0.3-0.2l0.6-0.3l-0.6-0.5c-2.4-2-2.9-4.5-2.9-5.1v-0.1h5V108.4z"/>
</g>
<g id="Layer_5" display="none">
	<path fill="#232020" d="M220.7,156.6l-7.8-9.6l-15.2-18.9v-6.8h-38.7v6.7l-15.4,19l-7.8,9.6c-1.8,2.3-2.5,5.3-1.7,8.2
		c0.5,1.9,1.6,3.5,3.1,4.7l21.8,17.4V200h38.7v-13.2l21.7-17.3c1.5-1.2,2.6-2.8,3.1-4.7C223.1,161.9,222.5,158.9,220.7,156.6z
		 M148.3,164.4c-1.6-1.2-1.9-3.5-0.6-5.1l11.3-14.3v27.9L148.3,164.4z M208.1,164.4l-10.5,8.3v-27.6l11.2,14.1
		C210,160.8,209.7,163.1,208.1,164.4z"/>
	<rect x="35.4" y="35" display="inline" fill="none" width="113.5" height="18.5"/>
	<text transform="matrix(1 0 0 1 35.375 48.0864)" fill="#232020" font-family="'ClearSans-Bold'" font-size="18">Clean Feeling</text>
	<rect x="36.9" y="56.5" display="inline" fill="none" width="72" height="18"/>
	<text transform="matrix(1 0 0 1 36.875 64.4976)" fill="#232020" font-family="'ClearSans-Bold'" font-size="11">Clean Clean</text>
</g>
</svg>
