<?xml version="1.0" encoding="utf-8"?>
<!-- Generator: Adobe Illustrator 18.1.0, SVG Export Plug-In . SVG Version: 6.00 Build 0)  -->
<!DOCTYPE svg PUBLIC "-//W3C//DTD SVG 1.1//EN" "http://www.w3.org/Graphics/SVG/1.1/DTD/svg11.dtd">
<svg version="1.1" xmlns="http://www.w3.org/2000/svg" xmlns:xlink="http://www.w3.org/1999/xlink" x="0px" y="0px"
	 viewBox="0 0 261.4 201.6" enable-background="new 0 0 261.4 201.6" xml:space="preserve">
<g id="Frame">
	<path fill="none" stroke="#FFFFFF" stroke-miterlimit="10" d="M240.7,200.8h-220c-11,0-20-9-20-20v-160c0-11,9-20,20-20h220
		c11,0,20,9,20,20v160C260.7,191.8,251.7,200.8,240.7,200.8z"/>
</g>
<g id="Layer_4">
	<circle fill="#FFFFFF" cx="38" cy="92.9" r="25.5"/>
	<rect x="18.9" y="122.4" fill="#FFFFFF" width="38.9" height="78.1"/>
	<g>
		<g>
			<path fill="#FFFFFF" d="M108.7,147c5.4,2.3,11.7,4.9,13.9,5.7c4,1.4,6.9-0.1,8-0.8l-18.5-7.7L108.7,147z"/>
		</g>
		<path fill="#FFFFFF" d="M98.1,137.8"/>
		<path fill="#FFFFFF" d="M100.2,141.6"/>
		<path fill="#FFFFFF" d="M103.6,144.8c1-0.8,2.1-1.7,3.4-2.7l-6-2.5c0,0,0.8-1.4-0.1-4.1c-1.4-4.5-4.5-5.7-7.6-5.7
			c-2.9,0-5.4,3.1-5.6,5.3c0,0.5,0.2,1.4,0.5,1.9c1.1,1.4,3.3,2.5,8.7,4.9C100.9,143.5,101.5,143.9,103.6,144.8z M92.6,137.9
			c-1.5-0.8-3.4-2.5-2.8-3.9c1-2.5,3.6-2.8,6-1.7c2.4,1.1,4,3.3,2.6,6.2c-0.4,0.9-1.1,1.1-1.1,1.1C96.2,139.8,94.1,138.7,92.6,137.9
			z"/>
		<path fill="#FFFFFF" d="M103,156.1"/>
		<path fill="#FFFFFF" d="M102.4,151.8"/>
		<path fill="#FFFFFF" d="M90.3,134"/>
		<path fill="#FFFFFF" d="M97.1,163.4c2.9-0.8,5.6-2.8,5.7-7.5c0.1-2.9-1-4-1-4l9.5-7.5l15.7-12.4c-1.3-0.4-4.5-1-8,1.4
			c-2,1.4-10.6,8.3-11.9,9.3c-1.8,1.4-6.6,5.4-9.8,8.1c-4.6,3.8-6.4,5.4-7.1,7.1c-0.2,0.6-0.2,1.6,0,2
			C91.1,161.9,94.3,164.2,97.1,163.4z M107.1,144.6c-0.1-0.6,0.4-1.1,0.9-1.1c0.6-0.1,1.1,0.4,1.1,0.9s-0.4,1.1-0.9,1.1
			C107.6,145.6,107.1,145.2,107.1,144.6z M92.5,160.2c-0.9-1.2,0.4-3.3,1.6-4.5c1.2-1.2,3-2.8,4.1-2.9c0,0,0.7,0,1.4,0.7
			c2.1,2.4,1.1,4.9-0.8,6.6C96.7,161.9,94.2,162.4,92.5,160.2z"/>
	</g>
	<path fill="#FFFFFF" d="M100.3,145c-0.4-3.4-3.8-6.3-7.1-5.9c-0.2,0-2.2,0.3-5.3,0.7l0,0c-17.5,2.3-33.6-4.8-35.1-15.6l-12.9,1.7
		c2.5,18.4,24.4,30.2,49.7,26.8l0,0c3.3-0.4,5.4-0.7,5.4-0.7C98.3,151.5,100.7,148.4,100.3,145z"/>
</g>
<g id="Layer_5">
	<g>
		<path fill="#FFFFFF" d="M153.5,118.6l0.8,0c0,0,6.8-0.8,8.8-0.7c-3.1-0.1-3.1-0.1-3.1-0.1s-5.1,0.3-10.7,0.9
			C151.6,118.6,152.8,118.5,153.5,118.6z"/>
		<path fill="#FFFFFF" d="M164.1,117.7l0.5,0c0,0.1,0,0.3,0,0.9c6.2-0.3,8.4-0.4,8.4-0.4v-1.9l-9,0.2L164.1,117.7z"/>
		<path fill="#FFFFFF" d="M176.2,115.5c0,0,0,0.5,0,0.9c3.4,0,7-0.1,8.8-0.1c0-0.2,0-0.8,0-0.8H176.2z"/>
		<path fill="#FFFFFF" d="M188.6,115c0,0,0,0.3,0,0.6c3.1,0,6.7-0.2,10-0.1l0-0.4L188.6,115z"/>
		<path fill="#FFFFFF" d="M148.4,122c-5.9,2.7-1.2,6.2-1.2,6.2l13.2-0.5c-9.5-4.7-4.1-6.2-4.1-6.2s-6.8,0-7.8,0L148.4,122z"/>
		<path fill="#FFFFFF" d="M145.4,126.5c0,0.2,0.1,5.8,0.2,6.7c0,0.9,1.1,5.1,1.1,5.1l0.3,0.3l0-9.7
			C145.4,127.3,145.4,126.6,145.4,126.5z"/>
		<path fill="#FFFFFF" d="M154.7,118.7v2.3l3,0c0,0,0.2,0,0.1,0.2c3.4-0.9,6.4-1,6.4-1s0-0.5,0-2.3
			C161.1,117.9,154.7,118.7,154.7,118.7z"/>
		<path fill="#FFFFFF" d="M250.2,124.2L250.2,124.2L250.2,124.2l-0.6-64.7l0.7-53.4l-3.4,1.1l-1.1,2.8l-9.5,3.1v-2c0,0,0,0-3.1,1.2
			c-9.7,44.5-31.2,59.1-31.2,59.1l-5.2-0.4c0,0,0,0.9,0,2v-0.4l5.7,0.3l0,1.9l-5.6-0.2c0,1.1,0,2,0,2.3c0.3,0.1,0.5,1.6,0.5,1.6v0.3
			l5.1,0.2v1.7l-5.6-0.2l0-0.8l0,6.7l5.6,0.3l0,1.8l-5.6-0.2l0-1.4l0,5.5l0.1-1.6l5.5,0.2v1.6l-5.6-0.2l0,2l0.4,0.6l0,1.4l5.2,0.1
			v1.5l-5.6-0.1l0.1,16l1.9,1.1l-6.1-0.1c0.1-0.3,0.2-0.5,0.2-0.8c0,0,0,0,0,0c2.5-0.2,3.9-0.3,3.9-0.3s-0.1-15.5-0.1-16.6
			c0.4-0.4,0.4-0.7,0.4-0.7l0-1.6l-0.4-0.6l-0.1-12.1l0-2.5l0.5,0c0-0.1,0-0.3,0-1.2c-0.2-1.6-0.5-1.6-0.5-1.6s0-0.5,0-1.4l-1.8-2.3
			c0,0,0-7.7,0.1-11.3c0.8,0.7,1.6,3.6,1.6,4.2c0.7-2.1,0.2-5.9,0.2-5.9h-0.3l0-9.1c0,0,4.7-16.1-19-31.4
			c-30-17.1-58.7-7.3-58.7-7.3v0.5h-0.3v0.9l0.3,0.5l-0.1,6.5l0.4,0.4l-0.2,14.7h-0.3l0,8.9l-0.1,0l0.1-6.5l-0.2-0.4v-2.1l0.5,0
			l0.1-12.1c0,0,0,0-7.8-8.4C76.4,32.4,83.3,52.7,83.3,52.7s-0.1,1.8-0.1,7c-1.1,4.9,0,7.7,0,7.7v9.4c0,0-0.1,0.1-0.2,0.4
			c-0.1,0.3-0.1,0.3-0.3,2.6c-0.2,2.1,0.4,2.5,0.5,2.6c0.1-0.5,1.3-2.1,1.4-1.8c0,0.4,0.1,11.9,0.1,11.9l-1.4,1.1c0,0,0-6-0.1-9.2
			l0,9.7l-0.4,0.8l-0.1,0.6v1.1l0.4,0.8l0.2,15.3c0.7,0.1,1.3,0.1,2,0.2c-0.3,0-0.7-0.1-1-0.1l-1,0c0,9.3,22,17.2,50,18
			c0,0.1,0,0.1,0.1,0.2c0.1-0.1,0.1-0.1,0.2-0.2c-2,2.1-3.6,4.3-4.8,6.6c0.2,0.1,14.5,4.3,32.2,2.6l0.9,0
			c-9.1,7.7-18.9,16.7-26.8,22.9c0,0,0.1,0.1,0.1,0.1l-0.2,0.2c10.8,13.2,33.4,22.2,59.6,22.2c27.7,0,51.4-10.1,61.4-24.5
			c3.2-4.6,5-9.7,5-15.1C260.7,137.8,256.8,130.4,250.2,124.2z M202.3,90.5l-5.5-0.2v-1.9l5.5,0.3V90.5z M196.6,99.2
			c0,2.6,0.1,14.5,0.1,14.5l-1.2,0.1c0-0.8,0-14.4,0-15.5C195.5,98,196.6,99,196.6,99.2z M195.1,96.1v-1.2l0.5,0.3v1.2L195.1,96.1z
			 M196.3,96.9l-0.3-0.3v-1l0.3,0.3V96.9z M195.8,77.8l0.3,0.4v0.9l-0.3-0.4V77.8z M195,76.6l0.3,0.4l0,1l-0.3-0.4V76.6z M195,80
			c0-0.3,1.3,1.6,1.3,2c0,0.8,0,11.2,0,11.2l-1.3-1.1C195,92.1,195,80.8,195,80z M83.5,96l0.3-0.3v1.6l-0.3,0.3L83.5,96z
			 M83.5,112.5c0-0.5,0-13.4,0-13.4l1.1-0.6c0,0,0,13.3,0,14.2C84.3,112.6,83.8,112.5,83.5,112.5z M84.6,96.7L84.3,97l0-1.6l0.3-0.3
			V96.7z M103.6,22.5l1.3-0.6l0,1.8l-1.3,0.6V22.5z M101,87.1V71.9l6.1-1.8l0,15.9L101,87.1z M104.2,89.8v1.6l-1.1,0.2l0-1.6
			L104.2,89.8z M103.2,67.3l1.1-0.3l0.1,1.8l-1.2,0.3L103.2,67.3z M106.2,68.3l0-1.8l1.1-0.3V68L106.2,68.3z M107.2,63l-6,1.8V49.7
			l6-2.4V63z M103.4,46.6l-0.1-1.7l1.1-0.5l0.1,1.8L103.4,46.6z M101.4,42.5V27.4l6.1-3.4l-0.2,16L101.4,42.5z M100.9,24.1l1.2-0.6
			l0,1.8l-1.1,0.6V24.1z M101.5,45.7l0.1,1.9l-1,0.3l-0.1-1.8L101.5,45.7z M96.8,27.1l0.1,1.8L96,29.5l-0.1-1.7L96.8,27.1z
			 M94.1,88.6L94,74.2l4.4-1.5l0,14.9L94.1,88.6z M96.4,91.2v1.6l-1,0.2l0-1.6L96.4,91.2z M95.4,70l0.9-0.3l0.1,1.8l-0.9,0.3
			L95.4,70z M97.8,70.9l0-1.8l1-0.4l0,1.9L97.8,70.9z M94,67.8V53.3l4.5-2.4L98.8,66L94,67.8z M96.3,50.2l-0.6,0.2l0-1.7l0.6-0.3
			V50.2z M94.5,46.3V32.2l4.4-3.1v14.8L94.5,46.3z M94.6,28.9l0,1.8l-0.8,0.6l0-1.7L94.6,28.9z M93.5,50.2l0.8-0.4v1.7l-0.8,0.3
			L93.5,50.2z M90.8,32.6l0.1,1.5l-0.8,0.7l0-1.5L90.8,32.6z M88.7,90.6l-0.1-13.7l3.4-1.8l0.2,14.2L88.7,90.6z M90.5,94.2l-0.7,0.2
			l0-1.5l0.7-0.2L90.5,94.2z M89.7,72.9l0.6-0.4l0.1,1.8l-0.6,0.3L89.7,72.9z M91.5,73.7l0-1.7l0.7-0.4l0.1,1.8L91.5,73.7z M89,70.5
			l-0.1-13.3l3.1-2.3l0.1,13.9L89,70.5z M90.5,54.3l-0.8,0.5l0-1.7l0.7-0.6V54.3z M89.1,51c0,0.1-0.2-12.3-0.2-12.9
			c0-0.4,3.4-3.8,3.4-3.4c0,0.2,0,13.9,0,13.9L89.1,51z M89.3,34.3l0,1.6l-0.5,0.6l0-1.6L89.3,34.3z M88.4,54.6L89,54v1.4L88.4,56
			L88.4,54.6z M86.7,38l0,1.5l-0.5,0.7l0-1.5L86.7,38z M85.7,39.8l0.1,1.1l-0.4,0.7l-0.1-1.2L85.7,39.8z M85.1,58.4l0.3-0.5v1.7
			L85.1,60V58.4z M87.2,58.8l0.3,13l-2.3,1.6V61.1L87.2,58.8z M85.9,58.9l0-1.6l0.5-0.7v1.7L85.9,58.9z M87.5,75.8l-0.6,0.4
			l-0.1-1.4l0.6-0.5L87.5,75.8z M86.4,75.3v1.1l-0.5,0.5l0-1.1L86.4,75.3z M85.4,76.2l0.1,1.4L85.1,78L85,76.6L85.4,76.2z M84,43.4
			l0.1,1.6l-0.3,0.5l0-1.6L84,43.4z M84.6,45c0.1-0.1,0,10.6,0,10.6l-1.1,2.1c0,0.1,0-7.8,0-8.1C83.5,48.9,83.9,46.5,84.6,45z
			 M83.4,61.5l0.5-0.7l-0.1,1.4l-0.4,0.7L83.4,61.5z M83.1,80.7l0-1l0.3-0.4l0.1,1.1L83.1,80.7z M83.7,80l0-1.3l0.3-0.5l0.1,1.4
			L83.7,80z M83.4,74.2V65l1.1-2.4l-0.1,10.6L83.4,74.2z M84.3,79l0-1.3l0.3-0.5l0.1,1.4L84.3,79z M84.7,60.9l-0.5,0.6l0-1.5
			l0.5-0.5V60.9z M84.6,42.1l0.3-0.6L85,43l-0.2,0.4L84.6,42.1z M85.1,96.4l0-1.6l0.5-0.3v1.6L85.1,96.4z M85.1,112.7V97.8l2.1-0.8
			l0.1,15.6L85.1,112.7z M85.9,96l0-1.6l0.4-0.3v1.6L85.9,96z M87.5,95.3l-0.6,0.3l0-1.6l0.5-0.3V95.3z M85,92.4
			c0,0-0.1-12.1-0.1-12.5s2.3-2.4,2.4-2.1c0,0.4,0.3,13.4,0.3,13.4L85,92.4z M87.6,56.9L87,57.5l0-1.6l0.6-0.6V56.9z M87.6,52.3
			l-2.4,3c0,0.1,0.1-11.2,0.1-11.7c0-0.3,2.3-4.1,2.3-3.7C87.6,40.1,87.6,52.3,87.6,52.3z M87.8,37.9l-0.6,0.8l0-1.6l0.6-0.8
			L87.8,37.9z M88.8,73.5l0.1,1.5l-0.5,0.3l0-1.5L88.8,73.5z M88.3,93.5l0.7-0.3v1.6L88.3,95L88.3,93.5z M89.1,113
			c0-0.6-0.3-16.5-0.3-16.5l3.2-0.8c0,0,0.1,16.4,0.1,17.4C91.3,113.2,90,113.1,89.1,113z M92.3,93.8L91.5,94v-1.6l0.8-0.2V93.8z
			 M92.3,52.8l-0.7,0.4l0-1.7l0.7-0.4V52.8z M92.6,32.4L91.9,33l0-1.6l0.8-0.6L92.6,32.4z M93.3,71.1l0.7-0.4l0.1,1.6l-0.7,0.3
			L93.3,71.1z M94.3,93.2l-0.8,0.2l0-1.6l0.8-0.2V93.2z M98.5,113.5c-1.1,0-2.7-0.1-3.9-0.1c0-0.6,0-18.2,0-18.2l3.9-0.7
			C98.5,94.5,98.5,112.3,98.5,113.5z M98.8,92.3l-1.1,0.2l0-1.6l1.1-0.2V92.3z M98,49.3l-0.1-1.8l1-0.5l0.1,1.7L98,49.3z M99.3,27
			l-1,0.8V26l1-0.7V27z M100.3,68.2l1-0.3l0.1,1.8l-1.1,0.3L100.3,68.2z M100.4,90.4l1-0.2v1.6l-1,0.2L100.4,90.4z M101.1,112.7
			c0-4,0-18.6,0-18.6l6-0.9c0,0,0,15.1,0,19.5L101.1,112.7z M107.3,90.9l-1.1,0.2l0-1.6l1.1-0.2V90.9z M106.4,45.4l-0.1-1.8l1.2-0.3
			l0.1,1.8L106.4,45.4z M107.9,21.9l-1.3,0.6v-1.8l1.3-0.6L107.9,21.9z M117.1,94.1v2.6v3.5v12.6l-4.8,0V96.3v-0.6v-1.3v-2.1v0
			c0,0,0-0.1,0.1-0.1c0.5-0.8,1.2-1.3,2.1-1.3c1.4,0,2.6,1.4,2.6,3.1C117.1,94,117.1,94.1,117.1,94.1L117.1,94.1z M112.2,86.3
			l0.1-15.6l0.1,0.1l0.1-1.4c0.5-0.6,1-0.9,1.6-0.9c1,0,1.7,0.9,2.1,1.6c0.7,1.2,0.8,2.7,0.9,4.1c0,0.5-0.1,13.7-0.1,13.7
			L112.2,86.3z M117.1,52.3v0.2v13.1l-4.9-2.5l0.2-15.9c0.3-0.8,0.5-1.1,1.4-1.1c1.5,0,2.8,2.2,3.1,4.9l0.1,0V52.3z M117.6,30.7
			L117.4,44l-5-3.4l0.3-14.7l0,0l0-1.2c0.5-0.6,1.1-0.9,1.7-0.9c1.8,0,3.2,2.7,3.2,6.1C117.7,30.1,117.6,30.4,117.6,30.7z M118.2,93
			L118.2,93l0-6.4l-0.3-0.2l0-2.1l0.4,0L118.2,93z M118.3,68.7L118.3,68.7l-0.1-6.4l-0.3-0.2l0-2.1l0.5-0.1L118.3,68.7z M194,113.7
			h-3.6c0,0-0.1-14.4,0-17.4c0-0.2,3.2,1,3.7,1.2C194.1,98.3,194,112.8,194,113.7z M193.7,60.2c0,1.5,0,11.4,0,12.5l-3.5-2.6
			c0,0-0.2-10.2-0.1-13.8C191.7,57.5,192.7,58.7,193.7,60.2z M191.9,56.5v-1.9l0.7,0.7v1.8L191.9,56.5z M193.6,58.3v-1.6l0.5,0.6
			v1.6L193.6,58.3z M192.7,74.5l0,1.4l-0.6-0.5V74L192.7,74.5z M190,72.6l0.7,0.6v1.5L190,74V72.6z M190.2,76c0-0.2,3.7,2.5,3.7,2.8
			c0,1.5,0.1,11.8,0.1,12.8l-3.9-1.7C190.2,89.9,190.1,79.6,190.2,76z M192.7,93.7v1.4l-0.5-0.2v-1.4L192.7,93.7z M190.2,92.7
			l0.6,0.3v1.5l-0.6-0.2V92.7z M195.3,61l-0.4-0.6v-1.9l0.4,0.7V61z M196.2,62.8l-0.5-1.2v-1.2l0.5,1.2V62.8z M195.8,43.2l0.5,1.9
			v1.1l-0.5-1.5V43.2z M194.8,40.5l0.4,0.9l-0.1,1.2l-0.5-0.9L194.8,40.5z M194.8,44.3c0.8,1.5,1.1,2.7,1.3,4.3
			c0,1.5-0.2,7.3-0.2,8.3l-1.2-1.9C194.7,55,194.8,47.9,194.8,44.3z M194.4,95.7l-0.5-0.2v-1.3l0.5,0.2V95.7z M194.1,77.1l-0.4-0.2
			v-1.5l0.4,0.3V77.1z M193.6,38l0.4,0.6l-0.1,1.6l-0.4-0.8L193.6,38z M192,35.5l0.6,0.8l-0.2,1.4l-0.6-0.9L192,35.5z M190,33
			l0.8,0.9l0,1.6l-0.7-0.9V33z M190.1,36.7c1.3,0.8,3.4,4.3,3.3,4.7c0,0-0.1,11.3-0.1,12.3l-3.3-3.4C190,50.2,190.1,40.2,190.1,36.7
			z M190,52.8l0.7,0.6v1.7l-0.7-0.6V52.8z M188,113.6l-5.9,0.2c0,0-0.1-15.6,0-19.2c0-0.2,5.8,1,6.3,1.3
			C188.3,97.3,188,112.6,188,113.6z M187.6,54.4c0,1.5-0.1,13.1-0.1,14.1l-6.1-3c0,0,0.1-10.9,0.1-14.5
			C181.5,50.6,187.6,53.9,187.6,54.4z M184.7,50.8V49l1.1,0.6v1.8L184.7,50.8z M185.7,70.5v1.4l-0.9-0.4V70L185.7,70.5z M182.5,69.1
			l0,1.7l-1.1-0.4v-1.7L182.5,69.1z M181.7,72.6c0-0.4,5.9,1.7,5.9,2.3c0,1.2,0,14.2,0,14.2l-6-1.5
			C181.7,87.7,181.7,73.8,181.7,72.6z M187.6,73v-1.6l0.9,0.4l0,1.6L187.6,73z M185.8,91.6v1.6l-0.9-0.1v-1.6L185.8,91.6z
			 M181.7,90.7l1.1,0.2v1.7l-1.1-0.1V90.7z M187.8,93.6v-1.5l0.8,0.3v1.5L187.8,93.6z M188.5,53.3l-1-0.6V51l1,0.6V53.3z
			 M187.6,30.5l0.8,0.8l0,1.4l-0.8-0.6V30.5z M188.1,34.5c0,1.5-0.3,12.6-0.3,13.6l-6.2-3.9c0,0-0.1-11.3,0-14.9
			C184,30.7,187,33.5,188.1,34.5z M184.9,27.8l1,0.9l-0.2,1.6l-1-0.9L184.9,27.8z M181.6,25.4l1.3,1l-0.1,1.6l-1.3-0.8L181.6,25.4z
			 M181.3,47l1.4,0.8l0,1.7l-1.4-0.6V47z M177.9,23.1l1.3,0.9l0,1.6l-1.4-0.8V23.1z M178.3,49.4c0,1.5,0,14,0,15l-8.9-2.5
			c0,0-0.1-12.1,0-15.7C169.3,45.7,178.3,49.4,178.3,49.4z M173.6,45.5v-1.9l1.5,0.7v1.8L173.6,45.5z M179.1,47.7l-1.4-0.6v-1.8
			l1.4,0.6V47.7z M179.1,67.9v1.6l-1.4-0.4v-1.6L179.1,67.9z M173.6,66.4l1.4,0.3v1.8l-1.4-0.3V66.4z M178.5,72
			c0,1.2,0.1,15.2,0.1,15.2l-9.3-1.3c0,0,0-15.3,0-16.4C169.3,69.1,178.5,71.4,178.5,72z M175,89.5v2.1l-1.3-0.2v-2L175,89.5z
			 M170.8,89.1l0,1.8l-1.6-0.2l0-1.9L170.8,89.1z M169.6,93.1c0-0.2,9.3,0.3,9.1,0.9c0,1.5,0,19.2,0.1,20.2l-9.2,0.4
			C169.6,114.6,169.6,96.7,169.6,93.1z M177.9,91.8l0-1.8l1.3,0.2l0,1.8L177.9,91.8z M178,26.9c0,1.5-0.1,14.3,0,15.3l-8.3-3.1
			c0,0,0.1-12.6,0.1-16.1C171.5,23.5,176.9,26,178,26.9z M173.8,20.9l1.5,0.8v1.7l-1.5-0.7V20.9z M169.4,18.9l1.5,0.7v1.8l-1.5-0.6
			V18.9z M169.2,42.2l1.5,0.3l0,1.9l-1.6-0.4V42.2z M169.1,65.2l1.7,0.5l0,1.7l-1.7-0.4V65.2z M166.2,17.7v1.7l-1.6-0.5l0-1.7
			L166.2,17.7z M165,37.5C165,37.6,165,37.6,165,37.5l-10.4-2.1c0,0,0.1-13,0.2-16.6c3.6,0,7.6,1.6,10.5,2.6
			C165.3,22.9,164.9,36.4,165,37.5L165,37.5z M159.2,39.7L161,40V42l-1.8-0.3V39.7z M164.9,45.1c0,1.5-0.4,15.2-0.3,16.2l-10.1-1.4
			c0,0,0.1-13.3,0.1-16.9C157.6,43.3,161.4,43.8,164.9,45.1z M166,64.7l0,1.7l-1.7-0.2v-1.8L166,64.7z M159.1,63.6l1.8,0.2v1.7
			l-1.8-0.2V63.6z M165.6,69.1c0,1.2,0,16,0,16l-11.1-0.8c0,0,0-15.7,0-16.9C154.6,67,165.6,68.5,165.6,69.1z M160.9,88.1l0,1.8
			l-1.6-0.1l0.1-1.8L160.9,88.1z M155.6,87.7v1.7H154v-1.7H155.6z M154.8,91.9c0-0.2,10.6,0.3,10.5,0.7c0,1.5,0.1,20.7,0.1,21.7
			l-10.5-0.2C154.8,114.1,154.7,95.5,154.8,91.9z M164.4,90.2l0.1-1.9l1.6,0.2l-0.1,1.9L164.4,90.2z M164.4,42.7v-1.9l1.6,0.4l0,1.9
			L164.4,42.7z M159.6,15.6l1.6,0.4v1.8l-1.8-0.5L159.6,15.6z M154.2,14.4l1.8,0.3l0,1.8l-1.7-0.4V14.4z M154,38.8l1.7,0.2l-0.1,1.8
			l-1.7-0.1L154,38.8z M153.9,63l1.8,0.2v1.9l-1.8-0.2V63z M148.8,13.5l1.9,0.3v1.7l-1.9-0.2V13.5z M138.2,83.6c0,0,0-15.7,0-16.9
			c0-0.4,11.1-0.3,11.1,0.3c0,1.2,0,16.8,0,16.8L138.2,83.6z M144.8,87.4v1.9h-1.9v-1.9H144.8z M149.3,42.5c0,1.2,0,16.7,0,16.7
			l-10.9-0.4c0,0,0-15.8,0-16.9C138.4,41.5,149.3,41.8,149.3,42.5z M143.1,39.6v-1.8h1.8v1.8H143.1z M150.2,62.7v2l-1.8-0.1v-2
			L150.2,62.7z M144.6,62.4v2h-1.8v-2H144.6z M148.4,87.5l1.8,0v1.9l-1.8,0V87.5z M148.5,40v-1.9l1.9,0.2l0,1.8L148.5,40z M143.4,13
			l1.9,0.1V15l-1.9-0.2V13z M149.7,17.8c0,1.5-0.3,16.8-0.3,16.8l-10.7-0.8c0,0-0.1-13,0-16.6C141.5,16.7,146,17.2,149.7,17.8z
			 M137.9,12.9h1.7v1.9h-1.7V12.9z M137.5,37.6h1.8v1.9h-1.8V37.6z M129,13.5l0.1,2.2l-1.7,0.2l-0.1-2.2L129,13.5z M122.8,84.2
			c0,0,0-15.7,0-16.9c0-0.4,10.5-1.2,10.5-0.6c0,1.2,0,17.2,0,17.2L122.8,84.2z M128.9,89.7l-2,0l-0.1-2.3l2,0L128.9,89.7z
			 M126.8,64.9v-2.2l1.7-0.1v2.2L126.8,64.9z M131.9,64.5v-2.1h1.8v2.1H131.9z M133.3,58.8l-10.5,0.8c0,0,0-15.4,0-16.6
			c0-0.4,10.5-1.6,10.5-1C133.3,43.2,133.3,58.8,133.3,58.8z M128.7,39.9L127,40l0.1-1.8l1.6-0.1L128.7,39.9z M123.3,35.1V18.5
			l10.2-1.3v17L123.3,35.1z M122.5,14.5l1.6-0.4v2.2l-1.6,0.4L122.5,14.5z M122.2,39l1.5-0.3v1.9l-1.5,0.2V39z M121.9,63.2l1.7-0.2
			v2.1l-1.7,0.2V63.2z M121.9,87.7h2.1v2.1h-2.1V87.7z M122.9,112.4c0,0-0.1-17-0.1-20.6c0-0.2,10.1-0.7,10.5-0.4
			c0,1.5,0.1,20.1,0.1,21.1L122.9,112.4z M133.9,89.6h-1.8l0-2.1h1.8L133.9,89.6z M133.9,39.6l-1.7,0.1v-1.9l1.7-0.1V39.6z
			 M134.4,14.8h-1.9v-1.9h1.9V14.8z M137.4,62.3h1.8v2.1h-1.8V62.3z M137.5,87.3h1.6v2.2h-1.6V87.3z M138.2,91.6
			c0-0.2,10.7-0.3,11.1,0c0,1.5,0.3,19.9,0.3,21l-11.4-0.2C138.2,112.4,138.1,95.2,138.2,91.6z M164.6,118.9c0-0.2,0,1.6,0,1.6
			s-3.4,0.2-7,1.1c0-0.4,0-0.4,0-0.4l-0.5,0.1c0,0-6.4,1.5,4.5,6.6l0.3,11.8l-14.8-0.2l-0.2-0.1l-0.5-0.4c-0.3-1-0.5-2-0.7-3
			c-0.2-0.8-0.3-1.4-0.5-2.3l-0.1-7.9c0,0,0-0.3,0-0.5c0-0.8,0.4-1.5,1-2.1c0.5-0.5,1.2-1,2.3-1.5l0.1-0.7l-0.1-2.6
			c5.8-0.6,11.8-1,11.8-1l0-1.4h3.8l0.1,0l9.2-0.2l0,2.4C173.3,118.3,170.8,118.5,164.6,118.9z M185.1,116.5c-1.8,0-9,0-9,0
			l-2.6-0.1v-1.2l2.6,0l9.1,0.1C185.1,115.4,185.1,116.3,185.1,116.5z M188.5,115.8l-1.9,0v-0.9l12.1,0.1l0,0.7
			C195.3,115.7,188.5,115.8,188.5,115.8z M205.6,81.9l-0.9,0.7v-2.1l0.9-0.6L205.6,81.9z M205.6,94.7l-2.3,1V85.4l2.2-1.3
			L205.6,94.7z M205.2,72.2l0.1,5.6l-2.3,1.4l0-5.2L205.2,72.2z M196.7,76.6l0-1.9l5.6,0.2l0,2L196.7,76.6z M199.8,78.5
			c0,0-2.5-0.1-2.6-0.2c-0.1-0.5-0.2-1.2-0.4-1.5c0.1,0,2.7,0.2,2.7,0.2l2.7,0.2l0,0.7l0,0.7L199.8,78.5z M202.4,86.3l-5.6-0.2v-1.9
			l5.6,0.2V86.3z M196.8,83.9v-1.4l5.6,0.2v1.4L196.8,83.9z M196.8,82.2v-1.5l5.6,0.2l0,1.5L196.8,82.2z M196.8,94.1v-1.7l5.6,0.2
			v1.5L196.8,94.1z M197.2,96l0-1.7l5.2,0.1V96H197.2z M196.8,98l5.6,0.1l-0.1,1.8l-5.5-0.1L196.8,98z M196.8,100l5.5,0.1v1.9
			l-5.5-0.1V100z M196.8,104.1l0-1.9l5.5,0.1l0.1,1.9L196.8,104.1z M196.9,104.3l5.5,0.1v1.5h-5.5V104.3z M198.2,112.4l-1.2,0v-3.6
			h1.2V112.4z M199.7,112.4l-1.2,0v-3.6h1.2V112.4z M201.8,112.5l-1.5,0l0-3.6h1.5V112.5z M202.5,108H197v-1.7h5.5V108z M202.8,81.7
			l0.9-0.6l0,2l-0.9,0.7V81.7z M203,98.1l0.9-0.3l0,1.9l-0.9,0.2V98.1z M203.4,112.9v-11l2.2-0.6l0.1,11.6H203.4z M205.7,99.1
			l-1,0.3l0-2l1-0.4V99.1z M231.7,47.2l-0.9,1.5l-0.2-3.9l0.9-2.5L231.7,47.2z M231.5,72.7l-2.5,4V56.8l2.3-5.6L231.5,72.7z
			 M229.1,34.5l2.3-7.6L231,39l-2.1,5.6L229.1,34.5z M228,86.4l-1,0.9v-3.5l0.9-1L228,86.4z M225.6,81.4l-0.3-17.6l2.1-3.9l0.3,18.9
			L225.6,81.4z M227.8,55.9l-1,1.5v-3.5l1-1.9V55.9z M225.3,44.1l2.2-5.4l0.1,9.8l-2.3,4.4V44.1z M224.4,89.7l-1,0.8v-3.3l0.9-0.7
			L224.4,89.7z M221.8,85l-0.2-15.8l2.2-3.2l0.3,16.7L221.8,85z M224.2,62.3l-0.9,1.4l-0.1-3l1-1.7V62.3z M223.8,47.4l0.1,8.5
			l-2.2,3.6l-0.2-7.6L223.8,47.4z M220.5,67.6l-0.9,1.3l-0.2-2.7l1-1.4L220.5,67.6z M220.3,86.2L218,88l-0.2-14.2l2.3-2.6
			L220.3,86.2z M220.1,54.4l0.1,7.6l-2.2,2.9l-0.1-7.1L220.1,54.4z M216.7,72.5l-1,0.8l-0.1-2.5l1-1.1L216.7,72.5z M216.5,88.9
			l-2.2,1.5l-0.1-13.1l2.2-2.1L216.5,88.9z M214.1,63l2.2-2.9l0.1,7l-2.3,2.6V63z M212.2,94.4l1-0.4v2.4l-1,0.4V94.4z M210.6,92.5
			l-0.2-11.9l2.3-1.9l0.2,12.4L210.6,92.5z M213,76l-0.9,0.7v-2.3l0.9-0.8V76z M210.4,67.2l2.2-2.4l0.1,6.3l-2.3,2.3V67.2z
			 M208.3,80v-2.3l0.9-0.7v2.2L208.3,80z M209.2,93.1l-2,1l-0.3-11l2.1-1.4L209.2,93.1z M208.8,68.9l0.2,5.9l-2.3,1.8l-0.1-5.6
			L208.8,68.9z M206.5,79.1l1-0.7v2.1l-1,0.6V79.1z M206.6,96.8l1-0.4v2.2l-1,0.3L206.6,96.8z M207.4,113l-0.2-12.2l1.9-0.5
			l0.1,12.7H207.4z M208.5,98l0-2l0.9-0.4l0.1,2.1L208.5,98z M210.2,76.2l0.9-0.8v2.4l-0.9,0.7V76.2z M210.4,95.2l0.9-0.4l0.1,2.3
			l-0.9,0.4L210.4,95.2z M210.9,113.3l-0.1-13.6l2.1-0.7l0.4,14.5L210.9,113.3z M213.9,72.8l0.9-1l0.1,2.5l-0.9,0.9L213.9,72.8z
			 M214.1,93.4l0.9-0.5l0.1,2.5l-1,0.4L214.1,93.4z M214.6,113.5l-0.1-15.2l2.2-0.9l0.3,16.2L214.6,113.5z M216.9,94.6L216,95v-2.6
			l0.9-0.6V94.6z M217.6,68.6l1-1.2l0.1,2.8l-1.1,1.1V68.6z M217.8,91.4l0.9-0.7l0.1,2.8l-1.1,0.5L217.8,91.4z M218.4,113.9
			l-0.2-17.3l2.1-1.1l0.3,18.6L218.4,113.9z M219.7,92.9v-2.8l0.9-0.7l0.1,2.9L219.7,92.9z M221.3,63.5l0.9-1.3l0.2,2.6l-1,1.6
			L221.3,63.5z M221.5,88.8l0.9-0.8l0.1,3.2l-1,0.6L221.5,88.8z M222.4,114.3L222,94.5l2-1.3l0.4,21.4L222.4,114.3z M224.9,57.6
			l1.1-1.9l0.1,3l-0.9,1.5L224.9,57.6z M225.2,85.6l0.9-0.9l0.1,3.5l-1,0.8V85.6z M225.9,114.9l-0.3-22.7l2.2-1.7l0.3,24.7
			L225.9,114.9z M228.8,49.5l0.8-2.2l0.1,3.7l-0.9,2.2V49.5z M229,81.6l0.9-1.2l0,4l-0.8,0.7L229,81.6z M229.5,115.4l-0.3-26.3
			l2.3-2.5l0.1,33.8L229.5,115.4z M231.7,82.1l-1,1.2v-4.2l1-1.5V82.1z M236,20L236,20c0.7-1.6,2-2.8,3.7-3.4c0,0,5.4-2.4,5.7,2.4
			l-0.2,12.3l-9.3,2.2L236,20L236,20z M235.9,46.5v-5.3c0.7-1.4,2-2.5,3.5-3c0,0,5.2-2.4,5.6,2.4l-0.1,4.4v24.7l-8.8,1l-0.2-23.5
			L235.9,46.5z M245.8,123.8c-2.8-0.3-5.7-0.5-8.6-0.7c-0.2-0.1-0.5-0.2-0.7-0.3L236.1,78c0.7-0.9,1.7-1.7,2.8-2.2v0
			c0.6-0.2,1.3-0.4,2-0.4c0.7,0,1.2,0,1.8,0.3c0.6,0.2,1,0.5,1.3,0.7c0.8,0.5,1.3,1.5,1.3,2.7c0,0.2,0,0.3,0,0.4L245.8,123.8
			L245.8,123.8z"/>
		<path fill="#FFFFFF" d="M148.4,118.5C148.6,118.5,148.5,118.5,148.4,118.5L148.4,118.5z"/>
		<path fill="#FFFFFF" d="M148.3,118.5c0,0,0.1,0,0.1,0C148.3,118.5,148.3,118.5,148.3,118.5z"/>
	</g>
</g>
</svg>
