<?xml version="1.0" encoding="utf-8"?>
<!-- Generator: Adobe Illustrator 18.1.0, SVG Export Plug-In . SVG Version: 6.00 Build 0)  -->
<!DOCTYPE svg PUBLIC "-//W3C//DTD SVG 1.1//EN" "http://www.w3.org/Graphics/SVG/1.1/DTD/svg11.dtd">
<svg version="1.1" xmlns="http://www.w3.org/2000/svg" xmlns:xlink="http://www.w3.org/1999/xlink" x="0px" y="0px"
	 viewBox="0 0 261.2 201" enable-background="new 0 0 261.2 201" xml:space="preserve">
<g id="Frame">
	<path display="none" fill="none" stroke="#FFFFFF" stroke-miterlimit="10" d="M240.6,200.5h-220c-11,0-20-9-20-20v-160
		c0-11,9-20,20-20h220c11,0,20,9,20,20v160C260.6,191.5,251.6,200.5,240.6,200.5z"/>
	<path fill="none" stroke="#FFFFFF" stroke-miterlimit="10" d="M240.6,0.5h-220c-11,0-20,9-20,20v160c0,11,9,20,20,20h220
		c11,0,20-9,20-20v-160C260.6,9.5,251.6,0.5,240.6,0.5z M182.8,160.6c-3.1-0.1-5.7-2.9-5.7-6.2c0-3.3,2.5-5.9,5.7-5.7
		c3.2,0.1,5.7,2.9,5.7,6.2C188.5,158.2,185.9,160.8,182.8,160.6z M218.4,147.5l-64.6-2.6v-115l64.6,0.4V147.5z"/>
</g>
<g id="Layer_2">
	
		<rect x="252.3" y="58.1" transform="matrix(0.9901 -0.1403 0.1403 0.9901 -13.4155 38.7093)" display="none" fill="#FFFFFF" width="31" height="112.8"/>
</g>
<g id="Layer_5">
	<circle fill="#FFFFFF" cx="55.1" cy="48.5" r="24.4"/>
	<path fill="#FFFFFF" d="M36.5,77.2c-0.1,0.2-24.1,49.9-24.1,49.9c-1.6,3.2-0.2,7.1,3,8.7l0,0c3.2,1.6,7.7,0.3,9.2-2.9
		c0.6-1.2,22.9-46.8,27.3-55.7H36.5z"/>
	<polygon fill="#FFFFFF" points="35.8,74.9 35.8,153.6 35.8,200.5 49.1,200.5 52,153.6 58.2,153.6 60.6,200.5 74.4,200.5 
		74.4,153.6 74.4,74.9 	"/>
	<path fill="#FFFFFF" d="M117,59c-2.8,7.3-10.1,22.4-23.7,29c-8.8,4.2-18.6,4.2-29-0.2l4.3-10.1c7.5,3.1,14,3.3,19.9,0.5
		c10.9-5.2,16.8-19.1,18.6-24.2l0,0c0.3-0.8,0.5-1.4,0.7-2l0,0l0,0c0.4-1.1,0.6-1.8,0.6-1.8c0.6-1.8,2-3.2,3.7-3.9
		c0.6-0.3,1.3-0.4,2-0.4c0.3,0,0.7,0,1,0.1c0.5,0.1,0.9,0.3,1.4,0.5c0.4,0.2,0.7,0.4,1.1,0.7c0.6,0.5,1.1,1.3,1.4,2
		c0.5,1.3,0.4,2.7,0,3.9c0,0.1-0.3,0.8-0.6,1.8l0,0c-0.1,0.2-0.5,1.7-1.4,4C117.1,58.9,117.1,58.9,117,59L117,59z"/>
	<path fill="none" stroke="#FFFFFF" stroke-width="1.6" stroke-miterlimit="10" d="M103.7,37.8c0,0,7.6,1.3,7.6-5.4
		c0,0,4.6,5,7.8-0.3c0,6.7,7.6,5.5,7.6,5.5"/>
</g>
<g id="Layer_4">
	<g>
		<path fill="#FFFFFF" d="M145.9,97.5c-7.6,0-14.3-2.2-20-6.6c-15.7-12.1-17.6-36.5-17.7-37.5l11-0.8l-5.5,0.4l5.5-0.4
			c0,0.2,1.6,20.6,13.5,29.6c5.2,4,11.6,5.2,19.6,3.7l2.1,10.8C151.4,97.2,148.6,97.5,145.9,97.5z"/>
	</g>
	<polygon fill="#FFFFFF" points="169.5,184.6 160.1,183 162.5,161.5 172,163.1 	"/>
	<polygon fill="#FFFFFF" points="199.5,185.4 209,184.9 208.9,163.2 199.3,163.7 	"/>
	<path id="arm" fill="#FFFFFF" d="M245.5,129.6L245.5,129.6c-0.1-7.8-1.6-24.5-12.1-35.4c-2.5-2.6-5.4-4.7-8.6-6.3v13.3
		c0.2,0.2,0.4,0.4,0.6,0.6c8.4,8.7,9.1,23.7,9,29.2l0,0c0,0.8,0,1.5-0.1,2.1c0,0,0,0,0,0l0,0c0,1.2-0.1,1.8-0.1,1.8
		c0,1.9,0.7,3.7,2.1,4.9c0.5,0.5,1.1,0.8,1.7,1.1c0.3,0.1,0.7,0.2,1,0.3c0.5,0.1,1,0,1.5,0c0.4,0,0.8-0.1,1.2-0.3
		c0.8-0.3,1.5-0.8,2-1.4c0.9-1,1.3-2.4,1.4-3.7c0-0.1,0-0.8,0-1.9l0,0c0-0.2,0.1-1.8,0.1-4.2C245.5,129.7,245.5,129.7,245.5,129.6z"
		/>
	<path id="body" fill="#FFFFFF" d="M217.2,21.8l-62.5-0.2c-4.1,0-7.4,4.4-7.4,9.7v121.9c0,5.4,3.3,9.9,7.4,10.1l62.5,2.9
		c4.2,0.2,7.7-4.1,7.7-9.6V31.8C224.9,26.3,221.4,21.8,217.2,21.8z M182.8,160.6c-3.1-0.1-5.7-2.9-5.7-6.2c0-3.3,2.5-5.9,5.7-5.7
		c3.2,0.1,5.7,2.9,5.7,6.2C188.5,158.2,185.9,160.8,182.8,160.6z M218.4,147.5l-64.6-2.6v-115l64.6,0.4V147.5z"/>
</g>
</svg>
