<?xml version="1.0" encoding="utf-8"?>
<!-- Generator: Adobe Illustrator 18.1.0, SVG Export Plug-In . SVG Version: 6.00 Build 0)  -->
<!DOCTYPE svg PUBLIC "-//W3C//DTD SVG 1.1//EN" "http://www.w3.org/Graphics/SVG/1.1/DTD/svg11.dtd">
<svg version="1.1" xmlns="http://www.w3.org/2000/svg" xmlns:xlink="http://www.w3.org/1999/xlink" x="0px" y="0px"
	 viewBox="0 0 261.2 201.1" enable-background="new 0 0 261.2 201.1" xml:space="preserve">
<g id="Frame">
	<path display="none" fill="none" stroke="#FFFFFF" stroke-miterlimit="10" d="M240.6,200.6h-220c-11,0-20-9-20-20v-160
		c0-11,9-20,20-20h220c11,0,20,9,20,20v160C260.6,191.6,251.6,200.6,240.6,200.6z"/>
	<path fill="none" stroke="#FFFFFF" stroke-miterlimit="10" d="M240.6,0.6h-220c-11,0-20,9-20,20v160c0,11,9,20,20,20h220
		c11,0,20-9,20-20v-160C260.6,9.6,251.6,0.6,240.6,0.6z M82.4,156.2l-3.7-1.6v0l-0.3-0.1l-3.6-1.6l0.1-0.3l3.6,1.6l1.5-3.4l0.3,0.1
		l-1.5,3.4l3.7,1.6L82.4,156.2z M238.7,132.4H56.5V11h182.2V132.4z"/>
</g>
<g id="Layer_4">
	<rect x="142.3" y="132.4" fill="#FFFFFF" width="9.1" height="11.9"/>
	<ellipse fill="#FFFFFF" cx="146.9" cy="150.9" rx="21.7" ry="10.8"/>
	<rect x="56.5" y="11" fill="none" stroke="#FFFFFF" stroke-miterlimit="10" width="182.2" height="121.4"/>
	<rect x="68.2" y="23.8" display="none" fill="#FFFFFF" width="158.7" height="96.4"/>
	<path display="none" d="M212.7,79.4c0,0-5,0-5,0h-42.2h-1.1h-0.7h-3.2c-1.5,0-2.6-1.2-2.6-2.6c0-1.5,1.2-2.7,2.6-2.7h3.2
		c1.2,0,2.5,0,3.7,0c0.8,0,1.6,0,2.3,0c1,0,2,0,3,0c1.2,0,2.4,0,3.6,0c1.3,0,2.6,0,4,0c1.4,0,2.8,0,4.2,0c1.4,0,2.8,0,4.3,0
		c1.4,0,2.8,0,4.2,0c1.3,0,2.6,0,3.9,0c1.2,0,2.4,0,3.6,0c1,0,2,0,3,0c0.8,0,1.5,0,2.3,0c0.5,0,1,0,1.4,0c0.1,0,0.3,0,0.4,0h5
		c2,0,3.7-1.7,3.7-3.8c0-2-1.7-3.7-3.7-3.7h-4.9h-0.1h-56.9v1.1h56.9h0.1h1h0.7h3.2c1.5,0,2.6,1.2,2.6,2.7c0,1.5-1.2,2.6-2.6,2.6
		h-3.2h-0.7h-1.1c-0.2,0-0.4,0-0.6,0c-0.5,0-1.1,0-1.6,0c-0.8,0-1.6,0-2.4,0c-1,0-2.1,0-3.1,0c-1.2,0-2.4,0-3.7,0c-1.3,0-2.7,0-4,0
		c-1.4,0-2.8,0-4.2,0c-1.4,0-2.9,0-4.3,0c-1.4,0-2.8,0-4.2,0c-1.3,0-2.6,0-3.9,0c-1.2,0-2.3,0-3.5,0c-1,0-1.9,0-2.9,0
		c-0.7,0-1.5,0-2.2,0c-1.8,0-3.7,0-5.5,0c-0.3,0-0.7,0-1,0c-2,0-3.7,1.7-3.7,3.7c0,2.1,1.7,3.8,3.7,3.8h5c0,0,42.2,0,42.2,0h1.1h0.7
		h3.2c1.5,0,2.6,1.2,2.6,2.7c0,1.5-1.2,2.6-2.6,2.6h-3.2h-0.7h-1h-0.1h-36.2c-0.2-1-0.5-1.8-0.8-2.5c-0.5-1.4-2.7-2.3-5.6-2.3
		c-3.2,0-5.7,1.3-5.7,2.9c0,1.7,2.4,2.9,5.7,2.9h5.5c0.3,1.5,0.5,3.5,0.4,6c0,1.8,0.1,4.2,0.5,6.3c0.1,1.3,0.5,2.5,1.1,3.3
		c0.1,0.1,0.2,0.3,0.3,0.4c0.5,0.7,1.2,1.1,1.9,1.2v0c0,0,0.2,0,0.2,0l28.2,0c2.2,0,4,1.8,4,4c0,2.2-1.8,4-4,4.1c0,0-6.3,0-6.3,0
		c-6.8,0.3-12.1,4-12.1,8.6h1.1c0-4.2,5.3-7.6,11.8-7.6c0,0,0,0,0.1,0h5.6v0c2.8-0.1,5-2.3,5-5.1c0-2.8-2.2-5-5-5.1h-24.8
		c0.4-0.6,0.6-1.4,0.6-2.4c0-1.9-0.9-3.3-2.1-3.3c-1.2,0-2.1,1.5-2.1,3.3c0,0.9,0.2,1.8,0.6,2.4l-0.5,0c-0.4,0-0.9-0.3-1.2-0.7v0
		c0,0,0,0-0.1,0c-0.2-0.2-0.3-0.4-0.4-0.7c-0.2-0.5-0.5-1.4-0.7-2.6c0-0.2-0.1-0.7-0.1-0.7c-0.2-1.4-0.4-3.3-0.4-5.4
		c0-1.7-0.1-4-0.4-6h36h0.1h4.9c2,0,3.7-1.7,3.7-3.8C216.4,81.1,214.7,79.4,212.7,79.4z M165,85.8c-2.6,0-4.6-1-4.6-1.9
		c0-0.9,2-1.9,4.6-1.9c1,0,2,0.1,3,0.5c0.3,0.1,0.7,0.3,1,0.5c0.4,0.3,0.7,0.8,0.9,1.2c0.1,0.1,0.4,1.5,0.4,1.5H165z M176.9,98.4
		c0.4,0,1,0.9,1,2.2c0,1.4-0.6,2.2-1,2.2c-0.5,0-1-1-1-2.2C175.9,99.3,176.5,98.4,176.9,98.4z"/>
	<g>
		<path fill="#FFFFFF" d="M175.9,100.6c0,1.3,0.5,2.2,1,2.2c0.4,0,1-0.9,1-2.2c0-1.4-0.6-2.2-1-2.2
			C176.5,98.4,175.9,99.3,175.9,100.6z"/>
		<path fill="#FFFFFF" d="M68.2,23.8v96.4h116.6c0.4-4.3,5.6-7.8,12.1-8.1c0,0,6.3,0,6.3,0c2.2,0,4-1.8,4-4.1c0-2.2-1.8-4-4-4
			l-28.2,0c0,0-0.2,0-0.2,0v0c-0.7-0.1-1.4-0.5-1.9-1.2c-0.1-0.1-0.2-0.2-0.3-0.4c-0.6-0.9-0.9-2-1.1-3.3c-0.4-2-0.5-4.5-0.5-6.3
			c0-2.5-0.2-4.5-0.4-6H165c-3.2,0-5.7-1.3-5.7-2.9c0-1.7,2.4-2.9,5.7-2.9c2.8,0,5.1,1,5.6,2.3c0.4,0.6,0.6,1.5,0.8,2.5h41.2
			c1.5,0,2.6-1.2,2.6-2.6c0-1.5-1.2-2.7-2.6-2.7l-52.1,0c-2,0-3.7-1.7-3.7-3.8c0-2,1.7-3.7,3.7-3.7c0.3,0,0.7,0,1,0
			c1.8,0,51.2,0,51.2,0c1.5,0,2.6-1.2,2.6-2.6c0-1.5-1.2-2.7-2.6-2.7h-61.9v-1.1h61.9c2,0,3.7,1.7,3.7,3.7c0,2.1-1.7,3.8-3.7,3.8
			l-52.1,0c-1.5,0-2.6,1.2-2.6,2.7c0,1.5,1.2,2.6,2.6,2.6l52.1,0c2,0,3.7,1.7,3.7,3.7c0,2.1-1.7,3.8-3.7,3.8h-41
			c0.3,2,0.4,4.2,0.4,6c0,2.2,0.1,4,0.4,5.4c0,0,0.1,0.5,0.1,0.7c0.2,1.2,0.5,2,0.7,2.6c0.1,0.3,0.3,0.5,0.4,0.7c0,0,0,0,0.1,0v0
			c0.4,0.4,0.8,0.7,1.2,0.7l0.5,0c-0.4-0.6-0.6-1.4-0.6-2.4c0-1.9,0.9-3.3,2.1-3.3c1.2,0,2.1,1.5,2.1,3.3c0,0.9-0.2,1.8-0.6,2.4
			h24.8c2.8,0.1,5,2.3,5,5.1c0,2.8-2.2,5-5,5.1v0h-5.6c0,0,0,0-0.1,0c-6.2,0-11.3,3.1-11.8,7H227V23.8H68.2z M78.3,25.4
			c0.6,0,1.1,0.5,1.1,1.1c0,0.6-0.5,1.1-1.1,1.1s-1.1-0.5-1.1-1.1C77.3,25.9,77.7,25.4,78.3,25.4z M75.1,25.4c0.6,0,1.1,0.5,1.1,1.1
			c0,0.6-0.5,1.1-1.1,1.1s-1.1-0.5-1.1-1.1C74.1,25.9,74.6,25.4,75.1,25.4z M71.9,25.4c0.6,0,1.1,0.5,1.1,1.1c0,0.6-0.5,1.1-1.1,1.1
			c-0.6,0-1.1-0.5-1.1-1.1C70.9,25.9,71.4,25.4,71.9,25.4z M92,112.4H70.9v-1H92V112.4z M107.6,106H70.9v-1h36.7V106z M99.4,85.9v1
			H70.9v-1H99.4z M70.9,80.5v-1h32v1H70.9z M99.4,92.3v1H70.9v-1H99.4z M99.4,98.7v1H70.9v-1H99.4z M107.6,74.1H70.9v-1h36.7V74.1z
			 M125.3,67.7H70.9v-1h54.4V67.7z M102.8,53.9v1h-32v-1H102.8z M70.9,48.5v-1h28.5v1H70.9z M107.6,60.3v1H70.9v-1H107.6z
			 M125.3,42.1H70.9v-1h54.4V42.1z M70.9,36.8v-1h28.5v1H70.9z M187.5,61.3h-36.7v-1h36.7V61.3z M182.7,53.9v1h-32v-1H182.7z
			 M150.8,48.5v-1h28.5v1H150.8z M205.2,42.1h-54.4v-1h54.4V42.1z M150.8,36.8v-1h28.5v1H150.8z M226.2,30.2h-78.6l0,89.1h-0.8
			l0-89.1h-78v-0.8h157.4V30.2z"/>
		<path fill="#FFFFFF" d="M169,83.1c-0.3-0.2-0.6-0.4-1-0.5c-1-0.4-2-0.5-3-0.5c-2.6,0-4.6,1-4.6,1.9c0,0.9,2,1.9,4.6,1.9h5.3
			c0,0-0.4-1.4-0.4-1.5C169.7,83.9,169.4,83.4,169,83.1z"/>
	</g>
	<g display="none">
		<path display="inline" d="M186.9,132.4c-0.6-1.7-1-3.5-1.2-5.3h-1.1c0.2,1.8,0.6,3.6,1.1,5.3H186.9z"/>
	</g>
	<path fill="#FFFFFF" d="M247.8,147.1c0-4.4-8-7.8-18.1-7.8c-3.3,0-6.5,0.3-9.6,1.2c-1.4,0.4-2.7,0.6-4.1,0.8
		c-7.1,1-14.4,0.6-21.1-1.7c-2-0.7-4-1.6-5.4-3.1c-1.1-1.1-1.7-2.6-2.2-4.1c-1.5-4.2-1.9-8.7-1.3-12.9c0,0-0.9,0-1,0
		c-0.1,0.1-0.1,0.1-0.1,0.3s0,0.3-0.1,0.5c-0.1,0.6-0.1,1.3-0.2,1.9c-0.1,1.3,0,2.6,0.1,3.8c0.2,2.4,0.8,4.7,1.6,6.9
		c0.6,1.5,1.3,3,2.4,4.3c1.9,2.2,4.7,3.2,7.5,4c7.4,2,15.2,2.3,22.7,0.7c0,0,1-0.2,1.4-0.3c0.4-0.1,0.7-0.2,1.1-0.3
		c2.5-0.6,5.4-0.9,8.5-0.9c9.2,0,17.1,3.1,17.1,6.7c0,2.4-2.9,3.8-4.8,4.6c-6.6,2.7-14.6,2.4-21.6,2.4c-2.5,0-4.9-0.1-7.4-0.2
		c-2.4-0.1-4.7-0.3-7.1-0.5c-2.2-0.2-4.4-0.5-6.5-0.8c-2-0.3-4-0.7-5.9-1.1c-1.7-0.4-3.5-0.8-5.1-1.4c-1.4-0.5-2.9-1-4.3-1.6
		c-0.6-0.3-1.2-0.5-1.8-0.9c-0.6-0.3-1.1-0.7-1.7-1c-1.3-0.7-2.5-1.5-3.8-2.1c-1.5-0.7-3-1.4-4.5-2c-1.7-0.7-3.4-1.3-5.1-1.8
		c-1.9-0.6-3.8-1.1-5.7-1.5c-2-0.5-4.1-0.9-6.2-1.3c-2.2-0.4-4.4-0.7-6.6-1c-2.3-0.3-4.6-0.5-6.9-0.6c-2.4-0.2-4.8-0.3-7.3-0.3
		c-0.8,0-1.6,0-2.4,0c-24.5,0-45.4,6.2-52.7,14.6h1.2c7.5-8,27.7-13.6,51.5-13.6c19.9,0,37.4,4,46.9,9.9c6,4.8,21.8,8.2,40.8,8.2
		c2.6,0,5.2,0.1,7.7,0c2.5-0.1,5-0.3,7.5-0.7c2.2-0.3,4.7-0.7,6.7-1.7C244.5,151.8,247.8,150,247.8,147.1z"/>
</g>
<g id="Layer_6">
	<path fill="#FFFFFF" d="M80.3,150.8c-2.4-1.1-5.6,1-7.2,4.5s-0.9,7.3,1.5,8.3c2.4,1.1,5.6-1,7.2-4.5
		C83.3,155.6,82.7,151.9,80.3,150.8z M78.7,154.6L78.7,154.6l-0.3-0.1l-3.6-1.6l0.1-0.3l3.6,1.6l1.5-3.4l0.3,0.1l-1.5,3.4l3.7,1.6
		l-0.1,0.3L78.7,154.6z"/>
	<path fill="#FFFFFF" d="M74.4,163.6l-1.7-1c-3.1-1.8-7-0.7-8.8,2.4l-10.2,17.8c0,0-0.6,1-0.9,1.7c0,0.1-0.1,0.1-0.1,0.2
		c-0.6,1-1.6,1.9-2.8,2.3l-10.7,3.4l0-8.7l-35-0.5l0,10.6c3.7,4.9,10,8.8,16.5,8.8h34.6c0.8-0.3,1.3-0.4,1.3-0.4
		c0.7-0.2,1.3-0.5,1.9-0.8c2.1-1,3.8-2.4,5.2-4.1c0,0,0,0,0,0c0,0,0,0,0,0c1.1-1.3,12.7-22.2,13-22.8
		C78.5,169.3,77.5,165.4,74.4,163.6z"/>
	<path fill="#FFFFFF" d="M21.6,119.3c-8.4,0-16.1,3.4-21.6,9v42.9c5.5,5.6,13.2,9,21.6,9c16.8,0,30.5-13.6,30.5-30.5
		S38.4,119.3,21.6,119.3z"/>
</g>
</svg>
