<?xml version="1.0" encoding="utf-8"?>
<!-- Generator: Adobe Illustrator 18.1.0, SVG Export Plug-In . SVG Version: 6.00 Build 0)  -->
<!DOCTYPE svg PUBLIC "-//W3C//DTD SVG 1.1//EN" "http://www.w3.org/Graphics/SVG/1.1/DTD/svg11.dtd">
<svg version="1.1" xmlns="http://www.w3.org/2000/svg" xmlns:xlink="http://www.w3.org/1999/xlink" x="0px" y="0px"
	 viewBox="0 0 261.4 201.8" enable-background="new 0 0 261.4 201.8" xml:space="preserve">
<g id="Frame" display="none">
	<path display="inline" fill="#232020" stroke="#000000" stroke-miterlimit="10" d="M240.6,200.7h-220c-11,0-20-9-20-20v-160
		c0-11,9-20,20-20h220c11,0,20,9,20,20v160C260.6,191.7,251.6,200.7,240.6,200.7z"/>
</g>
<g id="Layer_2">
	
		<rect x="252.4" y="58.3" transform="matrix(0.9901 -0.1403 0.1403 0.9901 -13.4385 38.7168)" display="none" fill="#FFFFFF" width="31" height="112.8"/>
	<polygon fill="#FFFFFF" stroke="#000000" stroke-width="0.5" stroke-miterlimit="10" points="61.8,54.4 47.6,54.7 47.6,40.3 
		61.8,39.8 	"/>
	<polygon fill="#FFFFFF" stroke="#000000" stroke-width="0.5" stroke-miterlimit="10" points="75.9,54 61.4,54.3 61.4,39.8 
		75.9,39.4 	"/>
	<polygon fill="#FFFFFF" stroke="#000000" stroke-width="0.5" stroke-miterlimit="10" points="90,53.5 75.3,53.9 75.3,39.4 90,39 	
		"/>
	<polygon fill="#FFFFFF" stroke="#000000" stroke-width="0.5" stroke-miterlimit="10" points="127.5,54.5 90,53.5 90,39 127.5,40.3 
			"/>
	<polygon fill="#FFFFFF" stroke="#000000" stroke-width="0.5" stroke-miterlimit="10" points="61.8,83.3 47.6,83.6 47.6,69.2 
		61.8,68.8 	"/>
	<polygon fill="#FFFFFF" stroke="#000000" stroke-width="0.5" stroke-miterlimit="10" points="75.9,82.9 61.4,83.2 61.4,68.8 
		75.9,68.3 	"/>
	<polygon fill="#FFFFFF" stroke="#000000" stroke-width="0.5" stroke-miterlimit="10" points="75.9,142.1 61.4,142.4 61.4,128 
		75.9,127.5 	"/>
	<polygon fill="#FFFFFF" stroke="#000000" stroke-width="0.5" stroke-miterlimit="10" points="90,82.5 75.3,82.8 75.3,68.4 90,67.9 
			"/>
	<polygon fill="#FFFFFF" stroke="#000000" stroke-width="0.5" stroke-miterlimit="10" points="61.8,171.8 47.1,171.6 47.1,157.2 
		61.8,157.2 	"/>
	<polygon fill="#FFFFFF" stroke="#000000" stroke-width="0.5" stroke-miterlimit="10" points="127.5,83 90,82.5 90,68.4 127.5,69.3 
			"/>
	<polygon fill="#FFFFFF" stroke="#000000" stroke-width="0.5" stroke-miterlimit="10" points="61.8,112.9 47.6,113.2 47.6,98.7 
		61.8,98.3 	"/>
	<polygon fill="#FFFFFF" stroke="#000000" stroke-width="0.5" stroke-miterlimit="10" points="99.4,113.6 61.8,112.8 61.8,98.4 
		99.4,99.6 	"/>
	<polygon fill="#FFFFFF" stroke="#000000" stroke-width="0.5" stroke-miterlimit="10" points="90,112.3 75.3,112.6 75.3,98.1 
		90,97.7 	"/>
	<polygon fill="#FFFFFF" stroke="#000000" stroke-width="0.5" stroke-miterlimit="10" points="127.5,112.9 90,112.4 90,97.7 
		127.5,98.6 	"/>
	<polygon fill="#FFFFFF" stroke="#000000" stroke-width="0.5" stroke-miterlimit="10" points="113.4,142.5 75.9,142 75.9,127.4 
		113.4,128.3 	"/>
	<polygon fill="#FFFFFF" stroke="#000000" stroke-width="0.5" stroke-miterlimit="10" points="99.3,172.3 61.8,171.8 61.8,157.2 
		99.3,158.1 	"/>
	<polygon fill="#FFFFFF" stroke="#000000" stroke-width="0.25" stroke-miterlimit="10" points="102.6,68.6 90,68.4 90,53.6 
		102.6,53.9 	"/>
	<polygon fill="#FFFFFF" stroke="#000000" stroke-width="0.25" stroke-miterlimit="10" points="102.5,187 89.8,187 90,172.2 
		102.6,172.3 	"/>
	<polygon fill="#FFFFFF" stroke="#000000" stroke-width="0.25" stroke-miterlimit="10" points="115.2,69 102.8,68.8 102.8,53.9 
		115.2,54.2 	"/>
	<polygon fill="#FFFFFF" stroke="#000000" stroke-width="0.25" stroke-miterlimit="10" points="115.3,157.5 102.9,157.3 
		102.9,142.4 115.3,142.7 	"/>
	<polygon fill="#FFFFFF" stroke="#000000" stroke-width="0.25" stroke-miterlimit="10" points="115.3,98 102.9,97.8 102.9,82.9 
		115.3,83.3 	"/>
	<polygon fill="#FFFFFF" stroke="#000000" stroke-width="0.25" stroke-miterlimit="10" points="127.5,69.3 115.3,69.1 115.3,54.2 
		127.5,54.6 	"/>
	<polygon fill="#FFFFFF" stroke="#000000" stroke-width="0.25" stroke-miterlimit="10" points="127.2,127.6 115,127.5 115,112.9 
		127.2,113.1 	"/>
	<polygon fill="#FFFFFF" stroke="#000000" stroke-width="0.5" stroke-miterlimit="10" points="90,68.6 47.6,69.1 47.6,54.5 90,53.6 
			"/>
	<polygon fill="#FFFFFF" stroke="#000000" stroke-width="0.5" stroke-miterlimit="10" points="102.6,97.6 58.2,98.1 58.2,83.7 
		102.6,82.8 	"/>
	<polygon fill="#FFFFFF" stroke="#000000" stroke-width="0.5" stroke-miterlimit="10" points="90,187.1 47.2,186 47.2,171.6 
		90,172.2 	"/>
	<polygon fill="#FFFFFF" stroke="#000000" stroke-width="0.5" stroke-miterlimit="10" points="115,127.7 70.6,127.2 70.6,112.9 
		115,112.9 	"/>
	<polygon fill="#FFFFFF" stroke="#000000" stroke-width="0.5" stroke-miterlimit="10" points="102.8,157.3 58.4,156.9 58.4,142.5 
		102.8,142.5 	"/>
	<polygon fill="#FFFFFF" stroke="#000000" stroke-width="0.5" stroke-miterlimit="10" points="90,172.1 75.3,171.9 75.3,157.5 
		90,157.5 	"/>
	<polygon fill="#FFFFFF" stroke="#000000" stroke-width="0.5" stroke-miterlimit="10" points="127.5,172.2 90,172.2 90,157.4 
		127.5,157.9 	"/>
</g>
<g id="Layer_4">
	<circle id="headbk" display="none" fill="#FFFFFF" cx="235.6" cy="28.2" r="33.5"/>
	<path fill="#FFFFFF" d="M260.6,50.5V20.7c0-11-9-20-20-20h-24.1l0,0c-8.7,6.1-14.4,16.1-14.4,27.5c0,18.5,15,33.5,33.5,33.5
		C245.6,61.7,254.5,57.4,260.6,50.5L260.6,50.5z"/>
	<polygon fill="#FFFFFF" stroke="#000000" stroke-width="0.25" stroke-miterlimit="10" points="192.6,80 179.9,79.7 179.9,64.9 
		192.6,65.2 	"/>
	<polygon fill="#FFFFFF" stroke="#000000" stroke-width="0.5" stroke-miterlimit="10" points="179.9,79.9 137.5,80.4 137.5,65.8 
		179.9,64.9 	"/>
	<path id="bodybk" display="none" fill="#FFFFFF" d="M314.5,160.5L279.8,44.9l-49.5,26.6l2.5,8.3l-0.1,0c0.5,1.5,0.3,3.2-0.7,4.6
		L218.1,103c-1.6,2.2-4.8,2.7-7,1l-18.4-13.8l-0.1,0l-12.2-8.9c-2.9-2.1-7-1.5-9.1,1.4l-1.2,1.6c-2.1,2.9-1.5,7,1.4,9.1l2.3,1.7
		l-0.1,0l34.5,25.4c2.1,1.6,4.7,2.4,7.3,2.4c4,0,7.8-1.9,10.2-5.2l9.9-13.7l3.1-4.2l26.2,87.2L314.5,160.5z"/>
	<path fill="#FFFFFF" d="M260.6,55.2l-30.4,16.3l2.5,8.3l-0.1,0c0.5,1.5,0.3,3.2-0.7,4.6L218.1,103c-1.6,2.2-4.8,2.7-7,1l-18.4-13.8
		l-0.1,0l-12.2-8.9c-2.9-2.1-7-1.5-9.1,1.4l-1.2,1.6c-2.1,2.9-1.5,7,1.4,9.1l2.3,1.7l-0.1,0l34.5,25.4c2.1,1.6,4.7,2.4,7.3,2.4
		c4,0,7.8-1.9,10.2-5.2l9.9-13.7l3.1-4.2l21.8,72.7L260.6,55.2z"/>
	<path id="armbk" display="none" fill="#FFFFFF" d="M248.2,75.7c-0.1-0.1-0.1-0.1-0.2-0.2l-1.4-1c-2.9-2.1-7-1.5-9.1,1.4l-2.4,3.2
		l-3.2,0.8c0.5,1.5,0.3,3.2-0.7,4.6L217.3,103c-1.6,2.2-4.8,2.7-7,1l-18.4-13.8l-0.1,0l-12.2-8.9c-2.9-2.1-7-1.5-9.1,1.4l-1.2,1.6
		c-2.1,2.9-1.5,7,1.4,9.1l2.3,1.7l-0.1,0l34.5,25.4c2.1,1.6,4.7,2.4,7.3,2.4c4,0,7.8-1.9,10.2-5.2l9.9-13.7l14.4-19.5
		c0.4-0.6,0.7-1.2,0.9-1.8l6.8-9.4L248.2,75.7z"/>
	<path id="cripbk" display="none" d="M197.3,88.1l13.9-18.6c1.6-2.2,4.8-2.7,7-1l12,8.9c2.2,1.6,2.7,4.8,1,7L217.3,103
		c-1.6,2.2-4.8,2.7-7,1l-12-8.9C196.1,93.4,195.7,90.3,197.3,88.1z"/>
</g>
<g id="Frame2">
	<path fill="none" stroke="#FFFFFF" stroke-miterlimit="10" d="M240.6,200.7h-220c-11,0-20-9-20-20v-160c0-11,9-20,20-20h220
		c11,0,20,9,20,20v160C260.6,191.7,251.6,200.7,240.6,200.7z"/>
</g>
</svg>
