<?xml version="1.0" encoding="utf-8"?>
<!-- Generator: Adobe Illustrator 18.1.0, SVG Export Plug-In . SVG Version: 6.00 Build 0)  -->
<!DOCTYPE svg PUBLIC "-//W3C//DTD SVG 1.1//EN" "http://www.w3.org/Graphics/SVG/1.1/DTD/svg11.dtd">
<svg version="1.1" xmlns="http://www.w3.org/2000/svg" xmlns:xlink="http://www.w3.org/1999/xlink" x="0px" y="0px"
	 viewBox="0 0 261.2 201.1" enable-background="new 0 0 261.2 201.1" xml:space="preserve">
<g id="Frame">
	<path display="none" fill="#232020" d="M240.6,200.6h-220c-11,0-20-9-20-20v-160c0-11,9-20,20-20h220c11,0,20,9,20,20v160
		C260.6,191.6,251.6,200.6,240.6,200.6z"/>
	<g>
		<path fill="#FFFFFF" d="M240.6,201.1h-220c-11.3,0-20.5-9.2-20.5-20.5v-160C0.1,9.3,9.3,0.1,20.6,0.1h220
			c11.3,0,20.5,9.2,20.5,20.5v99.3L213.7,91l-8.5,1.5L205,26.8l-35.1-19L168.6,8l34.5,18.7l0.2,66.2l-61.4,10.9l73.2,65.8l46.1-20.7
			v31.6C261.1,191.9,251.9,201.1,240.6,201.1z M20.6,1.1C9.9,1.1,1.1,9.8,1.1,20.6v160c0,10.8,8.7,19.5,19.5,19.5h220
			c10.8,0,19.5-8.7,19.5-19.5v-30l-45.3,20.3l-0.2-0.2l-74.9-67.4L202.3,92l-0.2-64.7L165.6,7.5l4.4-0.8l37.2,20.1L206,27l0.2,64.3
			l7.7-1.4l46.2,28.1V20.6c0-10.8-8.7-19.5-19.5-19.5H20.6z"/>
	</g>
	<line fill="none" stroke="#FFFFFF" stroke-miterlimit="10" x1="260.6" y1="119" x2="260.6" y2="149.8"/>
	<g>
		<polygon fill="#FFFFFF" points="202.7,122.9 202.4,122 205.2,121.2 205.2,91.9 206.2,91.9 206.2,121.9 		"/>
	</g>
	<g>
		<rect x="202.3" y="92.5" fill="#FFFFFF" width="1" height="30"/>
	</g>
</g>
<g id="Layer_5">
	<polygon fill="#FFFFFF" points="152,184.7 152.1,184.7 152.1,114 147.6,110 147.6,180.7 	"/>
	<polygon fill="#FFFFFF" points="213.2,200.2 213.2,168.7 207.4,163.8 207.4,200.1 	"/>
</g>
<g id="Layer_6">
	<polygon fill="#FFFFFF" points="202.6,122.4 166.6,103.4 166.6,7.7 202.6,27 	"/>
	<rect x="205.9" y="65.1" fill="#FFFFFF" width="14" height="9.6"/>
	<rect x="211.3" y="65.1" fill="#FFFFFF" width="8.6" height="50.3"/>
	<ellipse fill="#FFFFFF" cx="215.6" cy="121.5" rx="20.3" ry="10.2"/>
	<path fill="#FFFFFF" d="M169.8,38.7c-1.9-0.2-6.4,0.8-7.1,0.5c-0.7-0.3-3.3,0.3-3.8-0.7c-0.4-1-0.9-0.8-2.3-2.2
		c-2-6-6.5-9.3-8.8-10.1c-4.1-1.6-7.6-0.9-7.6-0.9c-1.4-2.7-4.6-1.7-5.5-0.7c-0.6,0.6-6.9,0.9-7.9,0.6c-1-0.3-5.1-3.1-5.7-3
		c-0.6,0.1-1.8-0.1-2.1-0.3c-0.3-0.2-0.8,0-1.3,0.2c-0.5,0.2-0.9-0.1-1.4,0c-0.5,0.1,0,0-0.7-0.1c-0.7-0.1-0.6,0.5-0.7,0.8
		c-0.1,0.3-0.8,0.3-1.2,0.5c-0.5,0.1-1.6,0.4-3.3,2c-1.7,1.6-2.8,5.5-2.8,5.5c-1.5,0.7-0.4,1.7,1.1,2.2c0,0,2.9,1.5,8.3,3.7
		c0,0,0,0,0,0c0,0,0.1,0,0.1,0.1c0.7,0.3,1.5,0.6,2.3,0.9c1.5,0.3,2.8,0.4,3.8,0.4c0,0,0,0,0,0c0.3,0,0.5,0,0.7,0c0,0,0,0,0,0
		c0.2,0,0.4,0,0.6,0c0,0,0,0,0,0c0.5,0,1,0,1.4-0.1c0.5,0,1.1-0.1,1.6-0.1c0.1,0,0.3,0,0.4,0c-0.3,1.3-0.7,4.4-0.9,5.3
		c-0.3,1.2-1.5,3.2-2,3.5c-0.5,0.3-1.8,2.2-1.9,2.3c-0.4,0.9-1.7,1.7-3.2,2.8c-0.2,0.2-0.5,0.3-0.7,0.5c0,0,0,0,0,0
		c-0.2,0.1-0.4,0.2-0.5,0.4c0,0,0,0,0,0c-0.2,0.1-0.4,0.3-0.6,0.4c0,0,0,0,0,0c0,0-0.1,0-0.1,0c-1.8,1.1-3.2,1.4-4.9,1.8
		c-1.2,0.5-2.3,1.2-2.3,1.2c-0.1,0-0.2,0.1-0.2,0.1c-1.2,0.7-0.1,1.3-0.1,1.3s0.7,3.4,4.4,2.6c1.1-0.2,3.9-0.6,6.6-1.6
		c2.3-0.8,4.7-2.1,6.3-2.5c2.4-0.6,7.9,0.6,12.9-2.7c0.9-0.6,1.4-2.4,1.4-2.4s1.9,2.4,3.4,3.8c1.6,1.3,5.2,2.9,5.8,3.7
		c0.6,0.9,0.8,4.8,2.5,6.9c0,0,0,0,0,0c-0.4,2.2-0.4,4.5-0.6,4.6c-0.3,0.2-0.5,1-0.5,1s-5.3,0.5-6.8,1.2c-1.5,0.6-2.6,2.3-3,3.6
		c-0.4,1.3-0.8,2.1-0.8,3.1c0,1,0.4,0.2,0.8,1.3c0.4,1.2,2.4,1.3,1.4,1c-0.9-0.4-0.7-1.1-0.6-1.4c0.1-0.3-0.3-1.1,0-1.2
		c0,0.5,0.7,1.1,0.7,1.1s0.4,0.8,0.6,0.8c0.3,0.1-0.2-1.3-0.2-1.3s0.1-0.4-0.2-0.8c-0.2-0.4,1.3-2.4,1.3-2.4s0.1,0.6,0.5,0.5
		c0.4-0.1,0.5-0.9,0.4-1.2c0-0.3,0.8-1.1,1.5-1.4c0.7-0.4,3,0.5,5.3,0.5c2.3-0.1,4.3-5.1,4.9-5.4c0.2-0.1,0.3-0.4,0.4-0.7
		c1.6,0.5,3.1,1,4,1.4c0,0,0.1,0,0.1,0.1c0.3,1.1,0.7,2.2,1.1,2.8c0.9,1.4,1.1,2.1,1.1,2.1s-0.6,0.2-0.4,0.8
		c0.2,0.6-3.3,2.6-3.6,3.4c-0.3,0.8-2.4,1.5-3.1,1.7c-0.7,0.3-2.3,1.5-2.5,2.2c-0.2,0.8-0.2,0.8-0.2,0.8s-1.1,1.8-0.7,2.6
		c0.5,0.8,0.9-1.6,1.5-1.6c0.6,0,1,0.3,1.5-0.2c0.5-0.5,0.9-0.8,1.2-0.8c0.3,0.1-0.9,2.3-0.6,2.9c0.3,0.6-0.4,3.6,0.5,3.8
		c0.3,0.1,0.2-2.3,0.8-2.3c0.6,0,1.5-1.1,1.3-1.9c-0.1-0.8-0.3-1.8,0.3-2.5c0.5-0.7,2.2-2.9,3.4-3.5c1.2-0.6,5.3-2.5,5.7-3.5
		c0.2-0.6,0.9-1.3,1.1-2.8c3.9,1.8,8.4,3.8,12.2,5.5c0.6,1.4,1.7,2.9,3,4.2l8.5-47.2C181.5,35.7,171.1,38.8,169.8,38.7z"/>
</g>
<g id="Layer_4">
	<circle id="head" fill="#FFFFFF" cx="28.5" cy="50.7" r="20.3"/>
	<path display="none" fill="#FFFFFF" d="M313.7,160.4L279,44.8l-49.5,26.6l2.5,8.3l-0.1,0c0.5,1.5,0.3,3.2-0.7,4.6L217.3,103
		c-1.6,2.2-4.8,2.7-7,1l-18.4-13.8l-0.1,0l-12.2-8.9c-2.9-2.1-7-1.5-9.1,1.4l-1.2,1.6c-2.1,2.9-1.5,7,1.4,9.1l2.3,1.7l-0.1,0
		l34.5,25.4c2.1,1.6,4.7,2.4,7.3,2.4c4,0,7.8-1.9,10.2-5.2l9.9-13.7l3.1-4.2l26.2,87.2L313.7,160.4z"/>
	<path id="armbk_1_" display="none" fill="#FFFFFF" d="M138,205.2l0.6,1.6c1.3,3.3,5.1,5,8.4,3.7l31.6-12.1c2.6-1,5.5,0.3,6.4,2.9
		l13.7,35.6c1.3,3.3,5.1,5,8.4,3.7l1.9-0.7c3.3-1.3,5-5.1,3.7-8.4c-0.6-1.4-14.9-38.7-16.4-42.6c-1-2.5-2.7-4.5-4.9-5.9
		c-3.4-2.2-7.6-2.6-11.3-1.1l-15.7,6.3l-22.6,8.7C141.1,197.1,138,205.1,138,205.2z"/>
	<path id="armbk_2_" display="none" fill="#FFFFFF" d="M52.5,136.9l0.5,1.6c1.1,3.4,4.8,5.3,8.2,4.2l32.3-10.3
		c2.6-0.8,5.4,0.6,6.3,3.3l11.7,36.3c1.1,3.4,4.8,5.3,8.2,4.2l0.5-0.3c3.4-1.1,5.3-4.8,4.2-8.2c-0.5-1.4-12.7-39.5-14-43.5
		c-0.8-2.5-2.4-4.6-4.6-6.2c-3.3-2.3-6.6-1.4-10.4-0.1l-16,5.4l-23.1,7.4C55.5,130.9,52.5,136.8,52.5,136.9z"/>
	<path id="armbk_3_" fill="#FFFFFF" d="M47.2,133.7l0.5,1.6c1.1,3.4,4.8,5.3,8.2,4.2l32.3-10.3c2.6-0.8,5.4,0.6,6.3,3.3l11.7,36.3
		c1.1,3.4,4.8,5.3,8.2,4.2l0.5-0.3c3.4-1.1,5.3-4.8,4.2-8.2c-0.5-1.4-12.7-39.5-14-43.5c-0.8-2.5-2.4-4.6-4.6-6.2
		c-3.3-2.3-6.6-1.4-10.4-0.1L74,120l-23.1,7.4C50.2,127.7,47.2,133.6,47.2,133.7z"/>
	<path id="cripbk" display="none" d="M197.3,88l13.9-18.6c1.6-2.2,4.8-2.7,7-1l12,8.9c2.2,1.6,2.7,4.8,1,7L217.3,103
		c-1.6,2.2-4.8,2.7-7,1l-12-8.9C196.1,93.4,195.7,90.2,197.3,88z"/>
	<path display="none" stroke="#FFFFFF" stroke-width="15" stroke-miterlimit="10" d="M665.3-110.6l0,78.8c0,11-9,20-20,20l-161.4,0
		c-11,0-20-9-20-20l0-78.8c0-11,9-20,20-20l161.4,0C656.3-130.6,665.3-121.6,665.3-110.6z"/>
	<polygon display="none" fill="#FFFFFF" points="80.6,136.4 51.9,145.2 27.6,79.7 55.6,67.5 	"/>
	<path fill="#FFFFFF" d="M97,70.6l-1-1.3c-1.9-2.3-5.3-2.7-7.6-0.9L74.8,79.3c0,0-0.8,0.6-1.2,1c0,0-0.1,0.1-0.1,0.1
		c-0.8,0.6-1.8,1-2.9,0.9l-31.8-2.2c-3-0.2-5.6,2.1-5.8,5.1l-0.1,1.7c-0.2,3,2.1,5.6,5.1,5.8c0.7,0,33.8,2.1,33.8,2.1
		c0.6,0,1.2,0,1.8,0c1.9-0.1,3.8-0.7,5.4-1.6c0,0,0,0,0,0c0,0,0,0,0,0c1.2-0.7,16.8-13.5,17.3-13.9C98.5,76.4,98.9,72.9,97,70.6z"/>
	<path fill="#FFFFFF" d="M75.3,133.1l-25-66.7l-27.9,10l20.8,56.3l0,0c1,3,2.3,5.4,5.4,6.5c2.5,0.9,5.2,0.9,7.7,0.1
		c1.1-0.3,4.5-1.5,9.1-2.9l-0.1-0.2L75.3,133.1z"/>
	<path fill="#FFFFFF" d="M91.4,62.5l0.2,0.5l-0.9,0.4c-1.2,0.5-1.8,1.9-1.2,3.1c0.5,1.2,1.9,1.8,3.1,1.2l1.1-0.5
		c2.1,3.1,5.6,4.6,8.4,3.4c3.3-1.4,4.5-6,2.7-10.2l-1.4-3.2L91.4,62.5z M92.3,66.9c-0.7,0.3-1.5,0-1.8-0.7c-0.3-0.7,0-1.5,0.7-1.8
		l0.9-0.4l0.8,1.8c0.1,0.3,0.2,0.5,0.4,0.8L92.3,66.9z"/>
	
		<ellipse transform="matrix(-0.8309 -0.5565 0.5565 -0.8309 149.3022 149.0294)" fill="#FFFFFF" cx="97.3" cy="51.8" rx="0.8" ry="1.3"/>
	
		<ellipse transform="matrix(-0.9997 -2.600106e-02 2.600106e-02 -0.9997 190.7325 115.7007)" fill="#FFFFFF" cx="96.1" cy="56.6" rx="1.7" ry="3"/>
	
		<rect x="27.7" y="76.9" transform="matrix(0.9399 -0.3413 0.3413 0.9399 -37.0188 17.2254)" fill="#FFFFFF" width="5.5" height="73.9"/>
	
		<rect x="62.3" y="115.9" transform="matrix(-0.299 -0.9543 0.9543 -0.299 -50.7062 245.9922)" fill="#FFFFFF" width="5.5" height="51.5"/>
	
		<rect x="42.9" y="144.7" transform="matrix(0.9899 -0.1418 0.1418 0.9899 -23.7152 8.1958)" fill="#FFFFFF" width="5.5" height="51.5"/>
	
		<rect x="94.7" y="129.9" transform="matrix(0.9516 -0.3074 0.3074 0.9516 -43.9847 37.6358)" fill="#FFFFFF" width="5.5" height="57"/>
	<path fill="none" stroke="#FFFFFF" stroke-width="1.6" stroke-miterlimit="10" d="M39.2,22c0,0,5.6,5.2,9.3-0.3
		c0,0,1.1,6.7,6.7,4.1c-3.7,5.6,3.3,8.8,3.3,8.8"/>
</g>
</svg>
